<mxfile host="Electron" agent="Mozilla/5.0 (Windows NT 10.0; Win64; x64) AppleWebKit/537.36 (KHTML, like Gecko) draw.io/26.0.16 Chrome/132.0.6834.196 Electron/34.2.0 Safari/537.36" version="26.0.16">
  <diagram id="C5RBs43oDa-KdzZeNtuy" name="Page-1">
    <mxGraphModel dx="1195" dy="703" grid="1" gridSize="10" guides="1" tooltips="1" connect="1" arrows="1" fold="1" page="1" pageScale="1" pageWidth="827" pageHeight="1169" math="0" shadow="0">
      <root>
        <mxCell id="WIyWlLk6GJQsqaUBKTNV-0" />
        <mxCell id="WIyWlLk6GJQsqaUBKTNV-1" parent="WIyWlLk6GJQsqaUBKTNV-0" />
        <mxCell id="cTkpzX_AqZkBJyhIl-F0-0" value="" style="shape=image;verticalLabelPosition=bottom;labelBackgroundColor=default;verticalAlign=top;aspect=fixed;imageAspect=0;image=data:image/png,iVBORw0KGgoAAAANSUhEUgAAAzIAAANICAIAAACT7k3dAAAAAXNSR0IArs4c6QAAIABJREFUeAHsfQd8HMXZ/iUh/w/4QktIPgglYEiB8EEgBLAT2kczBGOqsQ0YFxCuYNxw78YF96ZerF5t1ZNk9X7q5XRFOknXe9urkk7tn925nd3b62cDttn5zU+anZ1533eemZ15dmZ2jjFFOxoBGgEaARoBGgEaARoBGoErAAHGFWADbQKNAI0AjQCNAI0AjQCNAI3AFE3L6EZAI0AjQCNAI0AjQCNAI3BFIEDQsoaK3LhNLySsuDthxV1e/N1xm15oqMi9IgynjaARoBGgEaARoBGgEaARuLYQcNKyhorcxu23TkUy/PrG7bfSzOzaagN0aWgEaARoBGgEaARoBK4IBJy0LHbj834IWcKvp6QXp/Kfn4xgRH3z4hVhO20EjQCNAI0AjQCNAI0AjcA1hICTlsWvuMcRcd1Eyv1TQ+en+PFTcTe7sLRzv53SdU+N2SeLXjOeuSVi+YPXEAJ0UWgEaARoBGgEaARoBGgErggEnLQsfNkD6tO/G+7LcbQdmOpPnmJ9Q9Cyc7+b0rMhJ1Of/l34sgfcbGeGMaCbcVzgdt9jhOD4DEbAiT1KIEcSJoQxp6amLlU4MywQ24LXQpiJA3b5IPAMB4PBwBAh37284cCwctOJgkdYhl45nTdEmGFYeoo6yqWbmqAiPKuYmpq6rFqCMsljYqed6D0ScJda0ySpbkV2vefRKCzyhwPqh9PkvbS+78CHHbZoUmURTZ8QgmbwFE+koEM0AjQC1zgCTloWuWya6exNIz1RwwMFEyrWVF+Ck5Yl/s+UoRflZKVvm1OfVJ/+nXda5ux50H4HdkKXEz2fnTCqFe/OBMePo7zsEp0PdT5uBa70sgjxoe77lk9WHZIuwfEZsJ1ggxVefyjR8FSDMANFHeWSbFiwYW8q3DhKsII9pL8Us6GdgJMRyF3qsE7mXlilkKsIhj2Uhoi6lHIRUgILETgElv6HTUU0YwITMsCu1oBnIAy8ebjeoq9oBGgEfkIIOGlZwoq7piIZo9G3mms3OzqPTY0PT9V8PpX4uykDB3CySWnZuFWljviD5vTtMcvvdUOI6He+t3kFsgqf+t1uhhThQ52PW4GruixCfKj7vuWTVYeiizSikjk1WaxrWHB8hpN+UNRRLl1zBXXlVcUVRsugnR6QI+EaVNlBYlJuVMlxiDnphh+xl686/CjCbnunOYHk/qHSEOgxw3yT26ujPD8UbrQeGoGfIgJOWha7/N7xiJ+bztykPv0769kbpwpfmcp7zrl2Wfr2pLRscnzUWLRAc/p2R8R1KIejOnJfDMNoICxshnNaHnsbBKtU+Ns9TEleicFvkhZnwphwNQATRsqHG4ImcO3wYCIswHQukYUxCbl4epiSPPoSkYRu1DTiirqg5q2Ax50LvLg6YDKQ7zquOnVi/3CDiVyEfAAR9RqHgiwfxqGJnaKIkpEK40TdRbVXrKi2kSRSjaJe4wYRAxVWH7DS8fvkqsDiIBVx4/1Qu5suagSaEm+Q1HtgNRC3A8qE9hAxRAsIHTRChnOSlzAHzvpiGj01HgIKT4M4bij+Hy0BOUxowsx3vwTNBFQQVAAD5EfVxVQcWKgLKyOqg6ICS0BtQu5N0WV51ok0RRJIQjwhsLK8BPDsM44fx7coQGuDQokiH5frdQESokek9GI1TElRQV/SCNAI/FQQcNlbBtYotad/M5Fw+5SuC86ToZyMudBctXY48lf6M7fF+pwtQzseYvzHg1ivS+pbQQrYJ8IAOoJg90hinHXhkgbKJVWUs8tzaiGGImx4gAohe0OjQVqSZJdczmLgKmAyGCB35YQ4bBgi6YNK4CiGSsSFkPphPEgymIABT49lRaXjqXHzKP8xIc69WtCCMKbnbFA4STUpiGYisMIR9GAblIPXo1cjSTdIDM2lDCRhGFx4xULonKnxdCSR2B08HiKGFcNZqdTEoEbIKvCNbsR/H+0BxyQU0IBqvHG4oEpGnWybM4ymhdE4djicpOITiBHSCfBcJeDAOJ9D+A9XRDQFSjvH0QF6SabhEnEDSRi5mUM8FyTppIyEEiKEW4Yn8/afsBxV6+xBQkTJRQe1gC43Qe3i1sJbZL0wktIIyfF0mEaARuCngoCTlkUvv8905ibTmZs0p2/XRD3o0HRPjQ1Pwnky5kJ777nJyUmE+an3vWVw+ILdPKnrIfXSpL4HT4B1kzA/2s26psdqA0/su2owUZgFMD0MUHpIGA8D5ASkSGwcwcwDvSvpFhzwXA3GO2pPKZ32w1t4WpyQkkYmNKnztmeIPLFTqnwSXlhBYPU4pTtx9140Zzr3BLhtLiAQ1YjXo0cjYanBZIqLUSSL8aDL2g+EDtzFLzGIiPHPHTFoJz4RQyTGgCZd4jJx/S6VEkh7QDNCITDgjHVtn1QEcGjIuUhhMhR4UsJMTBhWEFIWaIlrK0VzUUCDDQ6XDEgeTvUCNXUGfDXzoIJsGGqZs+4pqHoxlWhezmyEaU4QiHp3bVQuCaENMECqLy+qieZBUYFdEnfJleGBXDpvkxWTchB4kCLpII0AjcBPCAGXvWVTkQxHxHW25gMOOWu86I3Rlr2jcpax6FNz+YpxRYO5biuYTovw/CWme79E6nlcezq878ETuN5F4XePgUOLv9rBs+LCXTLCSFIv7DkBnhIXR4x3HtMTyVD7qAV0xpEhwuXjckmjBnGLAMJVPsQAjcanVGAkFiALwe9QaBkhEyon5/IYJkfC/HgkjMAVgv+ejMQRQlN4yUYIgeZBeSQkXXMTulzjsZy4nbhkIjFqA0mmSxWD1HheQizMgt9CE3oMkyNhflIkjMOtpPI2QixUiiV1zYhHgYKQ5MPsHtKjmdBo2IowDUzypjJ0ixkOjqsEvBYpuhgzZlCn8UgqyIlxcfh//Gnw1CiINFhBnX9wE8hxHsMuyEEbYIBUd54VuaLkpgLNBDF03nVRScnhxW4v0ZTM9CWNAI3AtYuAKy2Lum6qetHYxXnD4f9lPHMLIGGa07cPh/+X9vRvwKXpzE3+9pZBtChdHv5aTPR6MAHKF/COH2RHE7nGwMSuYx9IzjyOn8oBM8L0MEDqedFcMJ4wCI1zqsXv4v+xXtn7gIflJF7gnWWFmcnqnBbju1vASBQWBkc+khGYUiCVsAzkh3+99P1k1VCj6yImTAIxIzChGAyTkswgYPN0F9qHBdyMdI1ApeLNA6MJ6JeYUCqxl8oplGQEGXfnXVw0ORW4BSU6UwJGglYqVYV7SjwG/++vPZABJFniATSQEi++1wRY26PaSW4rOL9ya4WkRERNExBgIRw0XAjx8GF1g1uH1Qp+4dNUiBNUhKvwhAZMTRhIhHAJpIx4FFoLrt0EvOMWQLMDbFDRzgISZQgSJTfxBKPEb/mgWEThYMlBLh95cLH0fxoBGoFrGgFIy+5GT8SoXzVVv3Kq6ztzwRxL07dI8WJD8tOj7YctNRv0ma/ZuWm27BcmIxgJK+52w4TSuYD7rpFYX0haCiSPW+DlGF+gcI4rYDxAIwliAi5cBWPKiMT4oAETwYCrRrQbxnt0mDssDI+Ed3G70c3izvTO5KhZMBm5CLhY8l2XMMUS9B5utvMWtoGaKDtaRtwQZyy0mZSTVC/EbQY6BKFbrIFZxIgAJRJFIxXHxWAYjwbcbIN3gzCSOp6SSwcMxaW6URFXLMhgO1uQswHB8uE44hIBxqTEbipIKZ2Ywhjc0EsFDat02LhxqThdoLQQp3Y3O6ntgpQdMCiskESrdis50Uxw0EAdQlRdiBiGRWCmOpvCjOMCqgq0LG5NCBdKoOpmqmu1E50CYTip+XsM4paQtvyHjhKhARdLfoYpxmLPoICkDD60sF0BeTQtI3ClQzQCP00EnLTM+eNLTesma7+YkNcgzMXD/bmWpm8dF16w8zLUZ+7UJT3j6EsbLftUf+a2mG+ev0xg0X2QE0hXICg99WUC+/KIuXy2UXmZN/vIe6m8pbnE+O9bxeUCLQA7nfSGxKouEZvLn/1yoQGYT2glvYw2XH6AaIk0AjQCP2UEnLQM/FT5ZOx/21u/s3NTNZH3WypXj7d/q4t/1FSx2ly33ZLy+GjHUX3aiyWb771sP1VO942g6VEJSgi4EC/sYHrkMpyn6/mxCME2z4Kc0wmBT3V4FXPl37icoF35pfVn4WVDA230Ibafy2aDv8LS92kEaARoBIJDwEnLpqamGipyYzb+X8TyB8OXPRC+7IGY5fdGLb8fhCOWPRC/4q6I5Q9GfvPK5eFkV8E7fXA4hpoaAEF547+Sx4wr2bZQK+F7z0eDRob4SkDjSrCBjAkdphGgEaARcCJA0DIaEhoBGgEaARoBGgEaARoBGoEfEQGalv2I4NOqaQRoBGgEaARoBGgEaAQIBGhaRmBBh2gEaARoBGgEaARoBGgEfkQEaFr2I4JPq6YRoBGgEaARoBGgEaARIBCgaRmBBR2iEaARoBGgEaARoBGgEfgREaBp2Y8IPq2aRoBGgEaARoBGgEaARoBAgKZlBBZ0iEaARoBGgEaARoBGgEbgR0SApmU/Ivi0ahoBGgEaARoBGgEaARoBAgGalhFY0CEaARoBGgEaARoBGgEagR8RgSBpmeDY9OnHBN+3vT+Mlu+7FLT8KxOBK6R1XSFmXGl1RMNypdUIbQ+NAI3AD4uAF1omODYd+21F/E8YE3SXl6vTpMp35XoUXSErddES2I/nQV3uAb8VA7P4TRlsAqIggZXCt/yQ7STMYAT6Y4SB6wo8pUvpXGwCzdW1MbmkRi9CVORJDv54oBqDFesjPbwFA27KLzXCRTJ2Uf49v3G5aPReC5Rkl1pOOj+NAI0AjcBVhoB3WuZxcLtcnaZvOZS7lMvAESZnZIYxPJbImzRyXm9pfsj4y2hPyKLIGYPF0y9WZOF+E7snCDx74CndtRAx5PIzw0Jgyz7M8HGLMOASQyQdpOAlCvWVnaKFcglzeouHCegAjQCNAI3ANY1AwLQMdJew0yQmKYIiOziWUA4egf4nZDJQCuVMQ8QGrclFCzOMgQ2ehDznWEpEeFS6ZbNz3ZZIh8uZfuxYmHPCBI0C6rC/LvHuRSOXOsAwLIsn+YRpACPKNZEljElC+TLg6SKZXIMYREwMHY8moaUGt1EAsclYJ5JBWwUAJONDqhP0JoEGUXECcnQoKvHmBKsPGID+DQvDppphoYi2QTYVN5iwzvneQERMD7ztQTMCDuD60XpAAYDXJP3ofgWXeAxANAoEAlbmPknpIhZUGFYNIB7964Qx4InZYIyh09II0AjQCFypCHinZc6xDfyjLGKSxiTYvQZVQqLrx+SjHTI6SDs7e6JrxvaxhabCdSRAFbpqQWOcLMWpFp30gLqoAcI8UkbcYDB1As2GBXFOqRB5iUEuKLjIZcGggxY7+SthSBgTRRIfNd1NIosK2QbAaQCLhYUl1aATIkKXm0koENBKzA4IeLBWgfTO7ATUuAK3GAITiCIOVzCqUblkykCIxegFehsPEHSfVFL38kKQ4C1nwFMRIOzkabtg7IfNxKmW0IWj4RqDcrEwMC0IeFxQysgsGHQpAB5YZpz/AaVo5WHoOdk7blKQOunkNAI0AjQCVx0C3mkZ3is6iwS7S3wwxjtX8tAUcPGdPT4pPTmGrIsY2kmJAwyinTvuQHEoWlBiAIZXvN+HCSgBeAnsAfM7ECJwl/wXWOgtJkD7ycmgATBAIONWBLzQ2H8S1yRbRRYeYNgvnmRAAOmCCPg2iShLgKa4JYOKKDZQ4CIqzhU0N3mBRkAxFAOgXko8LCk5AQSH0ko95iWKgNkI5QRqMUwHKBE+9QV1QWPQAPpcABbmfGkBbzL44wJl+Q9Q7PSmDsbDekSfUOLCvyI6BY0AjQCNwNWMQKi07BL7SUofDccqACWla3ZPHCDi7hnJMfh0CiYMH11hAkoAXgJTPQ6NIA0l5fRjAvKwQr4bYCnImHgEyinHrQhQPkUp5RIm8xtwz0iOoYQptIzSYMiJgV73GL/2kBOA7GQhoH59x1BIOVlgEGGM31AMgHop8bAGYTzkHJQslJTAHo+FomAbsOUo32LiC5LQHjdpGHGDK51hzJC20lHnib2p8xBPfn4CLhudkEaARoBG4OpEICRahg1mIbwwExDBEYiIIjpfdOghr/u48Ccig/+QZy2AL+CraIJjYc4TP7DU8Hs0qNQpBCU9oMjOO2ThIEz+C4wj8uJjHTmX/wKQUsCMMEAatl2KgNJAp6nO/OQsIJfrfZIan0GKHGiAMxOhF4KHD8bELVwBkcQZ4xaBpwzsv9M2QhEuzy0GpKTUe7CHvuBzTKhxuEB0DyKEiBLArXHCD1PCZHBdmFxBzrteigCAIUkIDClSKlQw3hTcdBHpBMfCpsMNluhKZihn5FDs9KYOxJMTEx0DYREdohGgEaARuFYRCI2Wue4UwSlHEBihoxTZYSKwQYLBYKCbfeG4hQkFd4LWQ+7coXGEasCycK1grwspi1Opz23XztGcPJaQJOCkhLy73bnjCJoTUIBsswf5rkVwjus4vK5IAnWXDU+yMS56cdIOExBFwBEgxZBrIuhaBkXyoIhkgxMMLMaZ0g20gGoCJiJZD6a7gFiyGaAkeAzMQGne0A5nPKbBWUGBtz1oV3ABt61dLpWI1xR5GTFkkoTj4DQQXkJc0Ccf57XkSJw3BlcyOjWNAI0AjcDViYAXWnZ1FuYqsJo0Dl4F1l66iSGP4peumpZw9SIASdvVWwTachoBGgEagZAQoGlZSLAFmQnOiMAloyAFXI3JnTM+oSx4XY3FpW2+jAjQtOwygkmLohGgEbiqEKBp2VVVXbSxNAI0AjQCNAI0AjQC1y4CNC27duuWLhmNAI0AjQCNAI0AjcBVhQDDTDsaARoBGgEaARoBGgEaARqBKwABerbsqmLRtLHfGwKlpaXfm2xa8E8RAbpF/QRrna70n2ClX/YiMxDa0QjQCCAI6E9pJGgELhcCdIu6XEheRXLoSr+KKuuKNZWmZVds1dCG/aAI0P3pDwr3T0AZ3aJ+ApVMLaLfSj/Osn9/nmoNfX11IkDQMgfmrs5S0FbTCFwqAuT+lH4WLhVNOr/r/Cvdon4iLcJvN3KcZa8esHwf/jjL/hMB+ZovpgstE4vFJSUl13yZ6QLSCLgjQOlP6WfBHSI6JigE6BYVFFzXRmK/lU7Tsmujor/XUhC0DEGQEsyFrM9gNOzJ33Pf7vt+fejX0+Kn3RV+102bb/rLnr8k1CaELBNmvPKF63Q6bcBOp9PBov2IgeLi4m/37vt2776TJ8/UNnXUNbb69TWNbVs3b/l2774D+/dzudxLMT5v9+7df/jDd7/+dfy0aRF3373l5pv3PvRQbUJwrUWv18sCcHq93rep5P40qGfBbDabTCbfwhEEsVgsftP8KAmGh4dHSO5HseHKV2owGII1MuQWFawiOv2Vg4DfSr8SaJlpcHCKwZhiMCyVlSFDp9cbNm/eXlpaplarQxYSVEaDwaDTod347LNXxOgZlPFBJXahZYHkbGhoaKI4FupqG2rfOfnOjftvnN0+O0mVlKXKylZnn5GdebLkyd/u/O3OtJ3XtnCVSsVisbg83PFJrs+DY7FYKpXKLyZcDudcwrmkxMSMjIyq2saKytpyzFdU1lZU1VVW11XV1FfX1tfUNtTUNdTWNdTVNTY0sTIyMpISE5OTkgYHB32riI6KevGFF1YsWx4ZHSvVWOU6u2+v0NklGvPihYtWLFu+Ytny+ro63/K9tZaG2tqTs2fvv+GG9nfeUSUnaS/kaHJyZGfOtD75ZNoTT6Tv2uVbLPluVVUVi8Vq9+lYLFZhYSE5l3uY0p+6J/AWc+7cuTp/ONTU1MTFxXmTQIm3Wq010NX6cdXV1Tk5ORQJvi9lMhkHc72Ya2lp4XA4fX19XC6XxWKx2WwQz+FwRCKRb1FXyl2jGjH4aeqXaCqfzw8WjdBalFgsHhgc6mFzunt5/D7BkFB4iZaTs9PCyWjA8ODgEIfDbW3vbGlr72H3CgQDIbBwIM1vpf9gtMwWHT3FYEzefDP0Y6+9Boy0f/fd2IwZo0uXOt5/H8QMb9kCk03efPMUgzG6ZAnEx2NAr9efPh1eXl558uTZCxfypFKZx2SXMbKkpDw/vxhBkKhq9B3p+IXe7n7FZZT/fYjqE2lOnucdzewlefbRDPaxTHa/SONNI0HLHJjzlg7GG42IUqVSqdUarVar0+n0er3BYDAaV6d/fct3t7ze9foe0Z4t/C0t6pacwZydQzt3i3Y/VPvQLdtuYXYyoRBvgatXuFwub2lpMZnNZovFarXabDY75oZJcxGjJNfW1iaXy73hAOMzMzKWfbH0rVmzDh8+KtFYDGaH01scRovDaHUgVofZNmaxj1mHx+0j4yOOCS1i37f322VfLF32xdKC/HwoihJgFhXt3bPn008WbN2682J1U3lVQ3VtS3Vtsy/f0Lp+/abdu/eGLfls9ZdfBULLvFVo2pdfHr755q5/vyE98q3kyB7xwT2iPXuEe9C/zX/5y7Zbb+0qRh+/QFxRUdFUAC7fOxRAC7k/DfBZABkFAgGXy+3s7ASX7n95PN7AwEBHR4f7LY8xNptNpdZotFr4cBlBOpMJbWBYGzNbLMBbrNa8vDyPcjxGHjp0aMGCBZ999tmqVauYTGZbW1tycnJeXl5xcXFhYWF8fHxbW1ttbe2XX375+eefL1iwYOPGjR7lXEGRBqFZugLRlH6vJjU3N7NYLL/vOWQbgm1RBoOho6OzvK61sLqzoI5f2CAoqOkprW1rbmkL5BWOrNo9TAt3xwRBEK1Wy2puqaxrLqjuzm8QFDYO5NWwS6ub6xtZEonUYxbfkX4r3Qctq+w3lfP0VXx9Od9Q2W8Kdv8ZZW+ZNTt76uc/d3z4oaWuDngz3gWZW1ombrl1/OZbbNHRoDgmPh8mG96+ffK3vx1Zt853SQ0GQ0REtBhzDQ1NUVGxKSkZAsGA71wh3zUYDJGR8XV1jQiC6A1ojxheyEurEoQs8IfJeCStfUdCbVwpm+R74kp7difWns72OmS40LKA9tOYTGoNNmbodCghQymZsWuo+44td9xUfNM8zrx5nHmz6map7CqmkPlB5wfzOPNms2f/LP1nD2580D8QV6FwrR5pFxhqOiXlNSwLiZNBPgbIGBjp4d/29vZAaFlGenrYZ5/PfG3md4cOK/RWvkTPk+j5JN8n1ffJ9P0yg0CO+gGFwWC2792zN+yzz8M++9zHgB0dFfUCNk92JjxaqEBE/rxYiYhVyKKFC8E82dqv1wRCyxBPFTrY3b31jjtKbrl5aEvYiEqiLznHWzSPt3auprFWVV3Nfuut9J/9bPMf/+i/tWApioqKHA7HlE/ncDiKiop8C6T0pwE9C7jEnJwckUikVCrxCOK/Xq/ncDhFRUVGo5NcEfe8hGw2G3zhAbmcfAw0L4z1o8QfOLvdRy27a3jzzTfnzp27bdu23bt3HzhwIMmTO3PmzJ49e3bs2LFgwYI33njDXUggMWout+zhh1sWLzZ6Wv4zGgwtixeXPfyw+tLWwRFdl1m21KZcjWjKA7Eq5DQdHR19fX2tra0cDidAIcG2qIqq6qLqDmantoZrahm0dIqsjf3mcrahqIFfXlUTSHfhw7BrQ3jrZYVFr9eXlVcyazo9YF7PKa+oDnZ+FHH7zsO9G/FGyyr7TSVsdY9INzY2XseRMbuVlX1IUMzMnZZN/PGP9kOHRjZscG8YeeXSs3EetqDY0tNH584d/eSTQGhZdHScXC6HW0g6O7vOnUtOSEhis3vdNV5iTHt7Z05OXn19E1zEjC3hZ9cNDUi8zjl506jV6pRKlUKhlMvlUqlMIpGKxRLgJRKpRCKVyeSBd9fetID4g+cadiZUJtfyMc9LrnX63eeqDiZ4XWsiaFmA+2lMZjMcM1BGhiCIyXTy4snr919/fc3195fd/1DZQ/en3i+zyjI4GX8q/NNDZQ/dU3HPzyt/ftvW27hiD+2AXKqrUXh2o2ZTmmJzykBifiOcJwOcbHR0FPKwMVfX3t6uUPifgE1PS/ts8ZLPFi85ePCQxmgbHZsA3jE2gfrxybHxyfGJyYmJycnJqampqYnJSZ3JvnvXHpArLzeXDC85HB0VBQjWmfDoIQXCF+lwr+WLPPh+iT4EWuaxQi+ePHnwhhvqf3t9+8d/lDeic13sxL2yejTQtH9b0wN/qPz5z7fddps4sAG7qKjIbLaOjnplZqOjDrPZGhQtC/BZgHhWV1cbDIamJrTLoDgWi2Wz2fxqJ+ey2e06vR4+XNjsGDoF6zoHi87DgmYWHR1NXulMTEwkS6OEX3vttVOnTmHvU4aUlJQKTy4vL8+Euby8vFdeeYUiIZBLNZfLnDatbd68iscfb/zoIwozMxoMDfPnX3z44Z4VK5jTpoXMzIyaSqt8uWlohlW28PumZe3t7RwOp6Ojo729PcCJTzIt89uiKiurmNVtee2G0m5jLc/U0If6Wp6pvNdY1KlnNvCKivyvNnirmmtDeB3PlNKgDq+Q1/ddHljKysqZ1R3eMC9q4BcUFAY7PPutdG+0rKLPmNsi7BJIz507p1KpyzsGUWYWzJyZR1qGIMjw9u3Du3dT2kZ2s2V/IXW3q7Ww0PHmmwiCBEjLYmMTugZ0KpVKiTm1Wm0wGBQKRVlZZXR0fEtLW8hrwRRrjUZjWlpWS0tbdTVKZcAiZlQhlys2Ztf2UxL7veTzBXx+P4/H53B4bDanq4vd3c0WCAaEQhGHw+VweE1NzaHNlbqr3h9bseFM4ZmCVrI/W9C6Mbxof0yZe3oQ40LLvCUix5stFrC2glMydF1lVdoqRjiDkcFI706vFldXi6pHJkZUdhUaFldvLNnIKGHc+O2N6Y3pZFHu4atReFqt+nixOrJUdP5ik91uh4QMcjIyHxvHXWpR8+Ykwe4sRV2vr92LaampixcuWrz0Mh9EAAAgAElEQVRw0YH9B/Rm+xTJTU5NTU6ihGx8YmJsfGJ0bHx4dMw+MqYyWHdu3wVy5V644A4yiIG07Gx4tEhpUmqtJG9Raj34EGiZxwpNXbYs4ueMpnsZvDkM0fpfiuqyQLHK9q9mv/6zlj8zqhiM/Tfe2Jjup7WAguzYsUOl0iCIeXh4ZGxsbGIC46dTUxMTk2NjY8PDIwhiVqk0O3bs8AYFiKf0p74TU+5qtdqqqiqTycTn88m3hEKhRqNpbW2VyYLYeGG32wEnQyfJsBky55o4zsNGSKvho6Oj+fn5cE3TbLH43ug2c+bMs2fPAlqWmpoaExMTi7s4zMXHxycmJoLF0oKCgtfw/SjkcvkOq7jc/GnTOufPtu/Zg5w8Xv3cU3Xz50NmZjQYaufNq/rnE4YD344cOsRbtyJ/2jRVYBTcRa86G50kG/gb0v8nq3zR90rLjEZja2srj8draWlpa2vr7u5msVguxni6CLxF9fSwmWVVmQ2K8y26iz2Gkm7DxR5jWY+xtNvA7NQzO/UlXfryuuaamhpPevzEXTPCL/YYTpSptl9QVPYaLx0WLpdbdLHcN+YVtc01tbV+8HW97bfSvdGyMp4+s47XwhYcOnRo6dKlGq2utG2guEcVODPzRssQBBlZs8Z+5AiwlNVniqw0b82xrEyxRlaaC9rNIN5SVTX24osgHAgtMxqNJxOYWy6MJNTbtVqtXq83Go0mkwl82ySRSAoLmeHh0TU1dZf+fVt3N5vJLG1v76ysRB8B5yJmAVtpsMeV8CQKrWsl+Lni8/uxBT/n/JLRaLTZbGLtSHHPSMuQwzY81t8vkEgkfqQEdntfJHPFoYz9KZUUv/po9t7wAm8yCFoW4H4ai9WqxxYuEbCygg0bK/NXMpIZjExftOz649entqV6swPEX43C02rVB/OVxwuGskqaICcDYEJChpMx9P8E5nIuNh8vGDqYr0yt9fUZS0pyyqefLPj0kwV79+5TGiwCmYHs+2X6fqm+T6rrk+r4Eh1PrOOKtVKNaevW7SDX+Zzz3gAn0zKh0iR28Qi6ZOnqJSpTCLTMY4Ve+OKLVAaj6Q4G731G17LrxA1OWlZ15KuBJYyuF1Baduz669tT/bQWULT169cPDAhlMqVWq0cQs9Vqs9uH7fZhq9WGIGatVi+TKQcGhOvXr/cGBYgn96cBPgtkgVlZWTabjcfjwT7IaDR2dHTY7fbMzExySr9hu91uRBCXfYqwYZHmX+FEbEFBAbGmabMFSMuMmMMmu8HUmHPfGpics2CusLAwBFqW9/DDhQ8+qF7ztWb1as3q1eoD+8pmPHH+nXeMBoPRYMh9552LTz2q2L4V3NVt29a74cu8v/7VLyzkBCZlhE3xBdL/Z6T/Tygtky0yy9eZFVtNyrOIrpuc8lLCer2+p6enFXNsNruvr6+lpYWFua6urtraWt9TKYG3qKqqqoLyhsRazYUW7flW7fkWXV6rLr9Nl9+uQwkZ21DNMVQ3c86f9/qW5aOY14DwgnZdYaeO2WXYW6Rdka6p4iAVvYYaHnIpsFRUVBSWsxJrNUB4YYe+uNNQ0qUv6TZA4VUt/Ozs4L6n8VvpXmkZV5dezWnq4h86dGjWrFkrV67U6vQlrQMlbHWAzMwHLUMnwL74whYZiSDIIaZlToQtstIcWWn+LME2J8KGIIi5pWX8qadgKwqEliEIsj5hcFveSFWvGcyKgX7EaDTqMKfVapVKZVVVTURETGlpucc9HlCj70BKSkZfX39bW0dFRTVcxDyV2y3R2Jr7tLl1we0w4/P7SbvijWiPZ7XndY0o1IYBGVLUNVLL1ojEl4eWrT+St3Bn0qaz+a4+L2xvyrojXkdnF1rmvhDuDpbVakU7I4yTwa1UKb0pv0z+JaOUwchhMLIYjEiGyCxK6ElgpGCXuQxGCeOW6FtqhX7ePK5G4Wm16t058v05gnRm08gIOpFB5mSQkAE2Bv9mljTvzxnYfV7hm5YlJyV/8tHHn3z08Z49eyUaxGC2G8zDmLfrzajXmexaxKZBbGqjVWWwKvWWIYVh8+atIFeO9z7FhZa5LGKC1UzqOmZoi5geK7Q3MTH5uuvK/h+j9oXrJDUoJ+vLWafuRAO6nFWdbzBKGIyYW28VBvaeunLlyvb2bh6vf2hILJXKFQqVSqVRqTQKhUoqlQ8NiXm8/vb27pUrV7o3ZnIMpT8N5FkgZxcIBN3d3Q6HA86jtLe3j4yMCIXCANe8oDS73Q7mydB1S9L8q8PhgESfHCgoKMDm0Zx/6urroSj3AJgto3Ay54cEVqtGqwUefG6g1elUajXYqICYTMBbrVZ3seSYmsWLk2+4gfvJ3IFFi4AXbtt0+u9/jX399aiZM2OfeHhww1p4S3bg2+Lpf69ZvJgswWfYiCj2WqUfA0KG/hX8GRH8FRl4Ahl4DBl4zCqdZ5KvN+r7fArxf3NwcLC9vX1wcFAgEPT19XE4nK6urra2tpaWlsbGxqqqqpaWlpqaGh+nAwTeoi5cyM2t6oqoUGSx1Im16owmdXoTStGKu3SVvcY6PsLqRxp7pWnpGf7tdktxtQuPrlRuShO8fbL/gyjZ7Gj9rBhkfpxqXqTw81heqyB0WM6fv5BT2YMKT+W9fZzzQaR4brzuo0Tj/FjZvIj+z6PYrQKExZWnZwT3TuW30n3QsrTq3sYuHqBls2bN+vrrr3UGI7NFECAz803LUGY2f74tNfVYiSWp3rl82dRnWpFsNfN44w89RG44AdKyBdHI6vRhrR70ECgrM5CcHnc6na6lpTU2NiEvr1AcPN3p6+vPyjovFovb2trLytATPZxfYuZ0CuRmscZ2JKtTqwvi/Bo+vx98qQheSu12O2twtF1gUKj1Ko1Bo0O6hOasFjtfiqPUb+0VWwLdGkzGEUE+233+w02xKw6mOP2BlBWY/3RbYtjuAGiZ390PQJ3VZqNwMvvwsMaqvTnnZsYFhtMnMkQWUQI3AaVoIDKX8eeCPxsQP9hdjcLTatVbMmQ70vpSChs9cjJIxSZJLo3J2p7WvyVD5puWJSUmfTRv/kfz5u/atWdQYZDrzGQv05plWrNUY5JoTGI1IlIhQqWxT6rbuHEzyJWdle3aSIgrMi0TK00ql0VMsKBJXccMYbbMY4Wa1eqcm266wGDUvXO7Xc7jxazu/ZzR/el1uvYsVUN65UOMXAaj8C9/QTxtFQcFqKurS09PLygoqKioWL58eWVlXVNTa0dHT28vj88X9PcP9vcP8vmC3l5eR0dPU1NrZWXd8uXLKyoqCgoK0tPTPc4nkfvTAJ8FAk0slJ6ebrFYdDqdUChUKBRisdhms2Vne60CSnZ4abfbnd/zAk7mhehDxl9UVERe1az3R8vCw8PhDgQ45W3BPu0US6QSqUyuUChV6MegGtLX1nqDAXg2mw1N9RgwGgxl8+dn3fObrvdm9bz7LvDsr5Zvf+SBnY882LsyDEbyli4ufPKRcrfNZx7FYpEGs+xri+R9F07W/6Ce81/6Xgb0pqGnTaI3jdpm73L83OHz+b29vUKhkMfjcTicnp6erq6ujo4OQMvKysqKMNfY2FhZWentSLzAW1R+fn5BVUdEmSy8XB5dqchoUmexNIXtunK2oZZnbBaYWgdM7TxJamqaH7s93b7ahUeVyzdnCBbFDCxLkb9+VvP8Se3XmarVqaKtWYMdQ6HDkpubl1/DRoWn8RdF8ZcmS1dk6FZl6lenK1YnD27N6OsYMnX1K1LTgsPcb6UHTstmzZq1YcMGncFYGBgz80vLEARxzJ594tyACy1LNE/ccw+l4QRCy8RK5N0ztq/S0HdI4ChCwLsf+W9vLycxMTUtLau/P4j5rZSU9J4etlgs7urqKS1Fv+wBi5hHMtu5UpNAaWG2SJlNQXwByuf3gw7QbDbbbDa9eTSx3ipVaOUqvVJjUGuNWr1JozdXcW3n24YlKlPHoCWy2p7Gsuv98BdErzfO+irhn4tinlkU98zi+KcWJTzySepbX4Uv2Bz56dbohdtiFm6L+XRr9ILNkR+sj3nkk5R/LIx/5tPYZz6NmrEwcssJ4oN6YraMgqm3S/RVHlvnIL/Km0ymL1hf/LLil4xUBjpDlsBI70/f2LARXdlMQRc3b7x4YxQ/yptMGH81Ck+rVa9Llmw4x0vMd9IyMJMB1ytJZGwSUrTkwqYNifx1yRLftCzx3Lm5cz6cO+fDbdt38iTalj454fnyFr68mS9v5qGexZOxuLImrpQt1GzYsBHkyvK+fEamZSIFIlGYxFSPiBWEl4T0Jaa3Cm367LOyX/4yhcHIe/CGyucYTe+gzSTluusKrruulsG4eOONPS++KPe+tywtLS0mJiYzM7OkpOSll17au/fg4cPHT5w4ffp0eHh4ZEREdEREdHh45OnT4SdOnD58+Pi+fYdeeumlkpKSzMzMmJiYNE9dLaU/hW0y8ACXy+3p6RkZGeno6GCxWKOjo4ODg3DyLHA5w8PDFmx/P7p0iXEy2KIAFYOtCASYTCZc0HQ4HL5p2WuvvRYeHg7XLuGSpdVqNVssKCVTKsHxN+7Hc4DZMr+0DEEQo8FQMm9e2l23tc18sfWll4BnLZrf/Ok8EG6fOZO/6ovMB+4qJW07CwQikzLSKl/mpGWCPyNunAyQMwPvN2bJfMQYyhkHQqGwu7ubhzsKLauvrwecrKioqK2tra6uztu+5sBbVF1dXVltS2Kt4sxF2bkaRVKt8kKrtqRLV80xsPqRjiFTr9jU2dufG8xJKBDMa0B4RLk8pV6Z2aSZHyv7+7fCln5jswDpFF4SLDW1tWV1rYm1CiA8rUGd36672K2r4yFQeE+f8Lz37bkQYXLAb6UHRctmzZq1detWnQEpbPG/mhkILUMQ5NTGguRM51xyEx9Z9a2H7/ACoWWDctPrx62LYgxJSalJSSmJicnnziXHxyfGxyfGxZ2LjU2IiYmPjo6LioqNiIgJD4/C+uSoyMjYAweO7NlzIMA1TZFIFB+fKBaLVSqVVCpjMtFfIQLHyR5Ma+scNPaKTRyJeW9yC7kWfIf5/H6wB85utzscjsxWR7dAK5FrZEqtQq0HtExvNBtNVqXeltk6wuyyqbWm+DpbahO64OvDGY3GP72xfc7XJ+evPw38JxvD524In7ch8qNN0R9vjv14U8xHG6PnrY+Yu+7MJxvC56075fRrzzw0aw+UTNCyAPfTEK/yNhvc8eJwOIZHhp9nPX8D6wZGBoMRzWBEYX+jMU7Wc+OiskVQpY/A1Sg8rVa9LEa0NKI39kIDXGaCwyfkZOPj4w6HY3R0FByoHnuhYWkEZ1mMyDctOxefMOf9D+a8/8HmLdt6htS9Qg3Zs4Vq9pC6Z0jdPajuGlR1Dag6BMoOgXLt2m9ArswMr6seZFomlDu/xOSJdN58n1gXwmyZtwodHR5ufvZZ1vXXp+PNJBoLiBmM7htvLFvkp7XExsampKQUFhZWVlbOnz//uQDcf5JVVlYWFhampKR4PNmV3J8G+Cy4t+Tk5GSz2TwyMlJVVWWxWLKysnxvP3KXgH45NTxstdns2OH77i1qAvvsFraryclJJpNJXtMMhJaBt1syJ7PZbBaLVaFUoiemgbNvwGfWzoPS0KNfgA+ElgFmVjR3bvLvb2t+/unGJ5+EvmvOnM6FC9vDPk2++9fMefPgpwAeofAcqUq2KlYjgkeQ/j8ZuDfqexkGzvUG/m8N3Jv0vT+Dc2bIwOOILIhziaGu5ubmvr4+NpuNnbnLYeMOLGKWlpYWFRUVFxe3trZ6/PYWygm8RQ0ODpZV1BS2qy60agraVPlt2vIefT3P2DqA9IhMXKmZJzW1d3azmkOZ/7tmhBd16OZHCB7Z2tMtMl86LGKxuLSsosg75lwp0trW2dISxHjvfkCGw+GA7QEEgqVls2bN2rVrl9Zgym8WlPZqfOwzC5CWHSuxpC8Nt2DfrHTPeHdFEvV7zAC/xFRqkRcOWeZHObc0oDt7vweXkZHV0tKqUCgsFgv4jAAuYu5PaWH16ToGkfZBY2rVYEVroAdKx5aImJ2WkRH0EzGhdiK2yiiUqMQyDZgwU2mMGp0J0DKz1W61DfdKh09XDPfLTMuSbTqDnx902XH43MOvrnpxwe4XP9n92meHZq048e7q8Dnroj/8Jm7epvh5G+M/3BD7/rqod1afeXP5sVc/O/jCJ7teXLBr/prjn68/DvFzoWWB7KeBr/Jg2ADLdmBUMDvM89nzb5Xf+ivOr37e9vNfsH5xw+ANd/bdebTnaHNgHcpVJzwsgvPm/u5/bGz9+4amV3c2LjzDWXiGs4jsz3IWneUuOsNZeLp34eneT0+xgX91R8PfNzT9Y2Prv7/tCovwehJSfFz8++++9/6774V9vjQtrzQmOcfVZ8ckoz46CfVRSdmRiVnJOcwFny4EuTK8TziRaZlYhS5iAk/6HtNK+R4zBFrmo0IdJhN77lz5rbf2/vd/t/7sZ42/+MXADTf033FHz5EjvluLXq8TS0QajRr4qqrKygB8VVUlzCKWiNwXniiDaCDPAnyKYKCzs7Onp8dut7e1tdXU1FRXoxtUg3XDw8PoJ734PsWxsTF3lj9FckwmEy5ojo+PB0jLKJzMhjnIydBvDrDvQMG5HPBwZLvdHiAtA8ysYO7cc3fcUvPEI7WPPdYwfXrjiy8y77wz77Yb4n/7q4K5c0PhZBiaRnW+RR5m4P0GkDCz8GWzfL1FvtYseQ8ZeMzJzDj/ZZXOQ4z+D20mVxCfzwfTYz09PWw2W4A5Ho/X29vb19cHpspKS0vBaiY5o3s4qBbV0NjU2tXbIURYAmMN18DqN3YOIVwJysm4UnP/kLS4OPRfK742hNdyDUeYwtWJ/D4Zismlw1JdU9vWzfOGuUCsyC/w89MgIVR6CLRs1qxZBw4c0BiQ/OaBixxtlcDs8TyzwGlZUr1l/K9/nbjvPlardEWyh62ifmfLYmsMs8/q/n3c8t5Z2xsn9QIpsqdw+NM4i95gBLcCCbijR4mRy+VnzkRIpVLwjefQkDAvD60RsIi5N4lVx9U28fWNPH0dR7vrHHrSrG9nNCJ7c5Hbv0JmfGsaGxufnJzaXzTcK1AMiZUiqVqq0CpUehW6iInoEQtisposNovVbh8ePVUxItcg6zKsHJEfWmYwGF58d8Wjr3/1z3m7Xlp86PVlJ99eHfn++vgPNybN3Zwyd3PKhxuT3l8fP/uryPfXRCzddW7xxoi5K7+b8e8lKjVxABtBywLcT+N8lXcdNsgjB0/L292ze2HLwrDmsNjmWL1ePzk56XughVBedcLnn+RfaDOls0xpTUhWs/FCu9mzbzNfcPWZzcb0JiS9yZTdYtqSIYYIUAJxsbHvzn47ZJ/ufTMKpGVffbk6Mjru1Klwvz4iKn7JosVBHSfrt0K1PJ5i5szWBQtaPvusJTraMXOm39ai0+s0GjX4VNBisezateuDANyuXbtgFo1GrddTzyUhD6IBPguUykIQRKVSZWdnt2NHW2VlZQVyNJ27EJSWkZYvKZwMPZ1uYmJsbAx+WVJcXExe1mxoaHCXCWPAIibcUuZkXc4fpRjW6nTOj6rQr5Owg9LAlDjGEcEOtt7eQM+KRL+7nDs37o6ba//0P+UMBvS1f74j7n9uyb0EWoZyPk2VWTIPMDOz6BXnARkGISJdbRbNdNI10auIxutX6BATcqCjo4PH43VhTiAQtLS0CAQCqVQKDpItLi4uKytramry8aMOUFqwLQpV0T8k0lh6JSa22EnI+uQWkVRVxCxWKBR8Pl8Y6m8xXRvCe8UmHsbJLgssRqOxvKKylz9AwbxfbhkUy4uKiiUSSbCY+6300GjZrFmzjh49qkbnzAa9MbPgaNljj03cfTerQxECLSvpRPbmmVl9yMFC079PWNekW9Zm2pObx2JrPEy8wcchhEBubn5dXb1OpwMb1Lq6uvPy0McZLGLuOtdYx9HUcXV1HH0DV38mr7e+a8i3llXJppcPm/6yxfTARlNep6O2byy8VMMTSARD8iGxUoytYyrV6PYynR4xIBazxWazjzQPjpy6aFFpkWWJ5s5BP7QMQRAuf+Cex995Zu7uVz47PuvLqLkbkxfvOb/8YOGXR4pXHy3+8jBz1aGCZfty5qyN/d/Zu+574evb//Iqq83l+3EXWua7SODu8MiIDV++9L3CMkVygdKyq034/FOCbzKNy87pv4jXfpmo2ZiJuPsNGYYN6Yb1qNevT9Ovw/zKc+ov4rVfJOjWpBo+OuV1/2NsTMzbs94K2aeleD1jAtKy5UuXgV9qCuQv4GQrli0P8JT/76O1aLUak8kEN7lv3LhxJu7mzJnzMcnNmTMHvzNz48aNMIvJhP7oCqW1U/pTyt1ALg0Gw9dff61SqQoLC4eGhqxW68qVK318qedNJviiEs5Dg02KYNVyampqfHzcYrGo1Wop5tQaTWFhEXlN0zcte/XVV8PDw8FUGXpELX5I7cjIyPDwMHr2DYKYzWar1UqesYNP+tjYWIC0zGgwnJ87N/rOW5vuvq2JwWhiMOoYjHosgF7e85voO249H9oiJg6cUdtqlsw38n9P0DJwS3EEGXxa38swDf0LUfrf0orLQ/83NzeDY2N5PF5jYyM87qSjo6OxsbGioqKpqSlABEJoUT097F4ub0gsEyu0YqVeJFUJBkVt7Z18Pj8/P7+8vJzJZHJDOOMNKyEtnFzRIGwwGFnNrS2t7UMSuVipE8m1Ipmqp5dXXVvX29sbAuZ+Kz1kWjZr1qzTp0/LNIb8NnFFn9F9wixwWpa+LMLSiM4tdT/zdgiLmGvTUGbzp82mx3Ygz3xrWZxg35E/8k32cHq1ILu6P7umP6dGkFMruFAnyK0byK0fyGsYKGgchL6wcSCl3P8ZsFqt9vTpcKVSqcecSqVqbm7Jz0dny8CXmNvjGrLqJbksRS5LUdiqzKqX7E309UaKIEi/zKTRIU/vM9X2j30cbVueaO7iCDl9Yv6gdECkEEpV6ISZWq/RIXqjGTHbrLZhq92xKcceWWGaH2F67qC5tAuJqfbPzJIyC++f8enT8w+/sjRq9prUd7/J+XBrwbwdzHk7mHO2FryzIfv1L5NeWBLx1NzvHvjnp0fOnKO0TIKWBbifZmR01G63w5MgyPNkcNfLlPOk0wn4oh8gLaMIz8jIgBKA8MzMzMsl/LJYvixGuDPPtjbdsibd/E0WsjvfTvG78m0782w78qw7ci3bzpu25iBbz5s3ZiFfJevWoLksW85bl8V4/TXimOjot/79Zsg+NTmFUt/wEtIyyLSCCgRIyygVelkw1+p0lZWVF3EXFxcXjbsjR47sJLkjR47gd6Lj4uLwHBcrKyu1Ol+zZQE+CxBMEGAymatWrbJarVVVVQ0NDWazefv27QkJCZRkfi/B/BRgQrD9T2I/4zA+Pm40GoeGhjo6Ourr6+vq6oovlg0MDEyRnG9a9vIrr5BpGTiodnh4GOx6BOelAU42MjIC2RgwA/wNhJQYDYbsefOi7ryt8+7f9DIYvQwGm8Eovff20ntuZ2OXvQxG572/jbzz19lBbvmnoqfnmiUfW6Qfuhwna9SYxfOMvN8gg0+Z1LHULD6vm5ub2Ww2+O5SKiW+GACfYTY1NfX1BXr0BnmEDrxFyeVygWCAze7t7mHz+/rhsZb79+/ft29fYWFhcXFxsEeuwBLTwiEU5IBMLu/uYTc1Nzc2sjo7uweHnB1yCJj7rfRLoWWxsbFDMnVWPb+cbwiZlp3aVJiczgPFb+LoQ9jybzAiuy6Y7llvunsdMm2jaX60bX32yL48Qw1bXderaeJpW9EtX/oeoZErMfbLTEKlRapBt89LNJbiVum3qZ3na7zORMB6qaysqqqq1mNOq9XKZLLW1raCAvQ39MAi5raYulyWrKRDVdKhKutUV/Vo9iax2rl+zhsbUpjePm2empqKrBlNqpT39ol4A1KBUD4kUUnkGrkK3fKvM5iMJitYvkxpGmF2mLR65MndyF1rkb9uMxW0+adlCIJ8unLH9Hl7/r065YMteQv2XFxysOqLw7Vhh2uWHKj6ZE/pB5vz3vgqefq8vW9+tMp9/7ELLQtkP83o6Ch52AADLVhDIb/Qj4yMmM3O44NNFmuAtIwsnMvlfvTRR9HR0Xl5eTabbWBgoKKi4uOPP46OjtZoNCEIl8vlsbGx0dHRDQ0Ncrl8bGyspKSkq6srLy/v9OnTXC731KlT4KypwIVvSZcdKRvZXWDbmWfZX2Q+UTlC9RUjx8qHj5bbj5bZD5daj5cPHyw277hg2Jln2Zlv3ZlvPVBs35Lu9Qj46Miof898Hfry8vIO3LWTXBvm1q1d+8TfHn/ib4/fd+8fQJbkpCTYyikBCi1bsGDB119/vXr16q9w9+WXX65ateo/pxquWL7i0f999OGHHn74oYffmPl6UIuY5AoFGxApH6iC6Z+gWotCgf70JFyRDDbQ2NhgNBqBEDImlP40kGeBnF2j0SxbtiwsLGzbtm0g/sCBAyBGLPa6SE2WAMPk54s8VTY5OYmeRi0WX7x4cXJycmzMUdfQMDg4ODk5CT4oASyqvt7XK+NLL7/sTssAAxt1OBDskG4b9t5F4YVwnbQngAMyMufPD7/z17x7/0fEYADffP/vn/yfXz/5+9+23vd7GMm77+7w3/8uK4gDMiBIzgC6uqEfMkuWGFTFBuyYazTGaDQpjxn77zeL3zTpqqh5fF6D/f1gdz84uBwIbG5urq+vHxoacu9DvckLqkU92/Msg8VgsBhv9KI/QrpfuB9cMljOLlqlUm3YsOHMmTPx8fFMJtM3+fZmEoIg5cryTQOb9g3ta9O0wWSXKDxeEq8xEjtjoNgMWcaQfugShUNpHgM/jPC4uLgAMfdb6SHTstjY2AGR9HR6SXZjf8i0zPHeeycSBNQDMu6/n4Kt371lCIJEluvuWG28baMczBoAACAASURBVBXyzwOWDyKsXLGZIzbxpWaBwiJUW2U6u8o4rDOPIFaHdXjMaB1t5CjD83tqu0QUXR4vDQbDmTMRWq0WPH3/6V3VanVXV1dBAVOpRb5ItuW3mbdE1xa3yqvZ2hq2tpajbeDpztcLD6f52WGm0CAfRVs15smPI/RsvpArkPQPyQbFSrFMLVPqVBqDVm/Cli/tNvuI2ji6KsV5YllslfHxncauQL8rQOQK1ROvLXr3m4xP95UtO1q3+nTzuoj2dRHtq083Lz1St2DvxXe/yXj4uQ9FYuLdD0JB0LIA99OAgZa8wkIeOaampsbGxsxms1wu7+3tbWlpbe/orG1qDnBLBFn4f17fwcJTR0fHiRMndu3a9Z/hauPGjUajUSaThSD8yJEjAoFAJpN1dHRERUXpdLrDhw9nZmbm5ua2t7fv2LFDr9evX78+KMsP5ikjaoePV44cLbefrbYltDgoPr7ZEccajW0ajWkcjmmwR9bZjpYiR8ttxyqGj1XYj1UMn6y0H8zz8BPXoIYiwsNffell6MvKyjIyMg4dPHjo4MGszMxGkquvr9+2deuz//zns//855/++EeQJfEcdXYUVjyZlq1cvoLl0+3ZvWfBx5988tHHTz/9dAi0LMDW0tzc0tjEKquu9d1aVCq1SCSSY667u/vkyZPHjx8/duzY0aNHjxw5cvjw4e8wdxhzR44cOXr06LFjx06dOtXd3S2Xyxsa6kUisUpF/XEFcn8a4LMAwGxoaKioqIiKilq6dOnTTz/d1uYc7eRy+dNPP71kyZIdO3Y0NDRUVlYGOKJTNvuDeWLAX/V6PY/HKy4udjhG6xvquVzu+Pi43Y7++An2s7tSpVJZXoGeuOjNvfjii2fPnoUHQYMNCaOjo2CzGrp8iW1RGHWgR9eC6TE4Cz6JOb/bqs4vXvwdgyG6/24dgwF8/wP3PvX7/9n98subnn/+6bvvFNx/D7wlmvaHmGn3ng/iOFnEYDDodDqNRqPCnFKplMsEClm3QqFQYk6lUhkVJ42ChyyyT4wGD3TBGzhgdyAPc93d3VrcaTQacMo/HkH8bIsPUUG1qNd6X1vat7RH2yPQoRMJUoO0R9uTIkv5RfMvoAqNRrNv377s7Oxjx47l5eWVl5cH2KKghDJl2cOdD6fKUsMl4RsHNsJ4BEFCFj6XN/e65uvkBuqnFcv7lt/YfGOLGv2SMWThZAu9ha8o4X4r3QctS6/mkI+TnUVyJ06c6B8SHYjKiGc2F3XKPX6P6XcRc3TBAltioofjZHt7xx95hAxvILRMKFWviuy5Zx3KzPbl6Vh8fccg0is28WWWQaVVorUrDMNa0+iQwpTXOBSR193M8TOPRTagubnl4kX0iDIEcT7vOp2Oze4tKipmC03h1WOx9WNLE01nL+qa+/TNffqWfkP7gKFryLg9tpY3SG2KZMn/+c50U5Y5t1n33inDhQZZ36BsQKQA+/2VavQsWb3RbMKWL/+zWrA5x96MT44bjIiSuvOFIph6WVHT9OgbS5cerV0T3rYlnr0rhb8rhb8lnr3mbGvYkZq//XtpTr7n73hcaBlVqqdrsNgBTrKnTJWBkcNisQwODpWWXWQWF3d19dQ1sTgBb4agCN+0aRN4R//qq6/y8vLGx8e/+eabkIVzudydO3fu3r37P0PRN998k5qa2tvbm5mZ2d3dLZVKIyIi/nOi5po1a4KyPLxMm9AyGts8GssaTmkbvsCZyCX5C5yJ873jOezx7J6xrO7RtHZ7bL05pmk4ljUCfVTjcHiZ19o+e+bM/z3/AvT/mSbZvm3bjKefmfH0M7t37W5sbKyvr6+uri4vLy8pKVm/bh249ccHHgRZEuLjPdUhGkemZatWrGxsbIyKjNqxbfuObdvP55wn8T00uBejZQs+/uRf//xXsLQMXe92oM5HaykpvXghN6+pqbm8psZva5HLFW1tHVzMJSUlTZ8+/YYbbrjep7vhhhumT5+elJTE5XKZTGZbm4ffiaf0p95wI8cbjcY1a9YsW7bsiy++WLt27cyZM9977z1ygrVr1z7//PNr1679/PPPQTKNxj9LoOwQINMyjUbT09NTV1dbXFrK5XImJiasVqtUKu3u7m5qaqqtra2rbywo9PX52PPPP3/mzBlIy9ANZMPDDocDzLdZLBawRYFcX5P4+imY7/S7gnb64Yfjf3WD5eabbAyGjcGQP3jfq7+/Y+fLL4MfX9rw3HP/vvv38ml/AHctt9x8/v4/nAnsx5f0ej1gY0qlUiaTSSQSkUgkFAqHSE4kEonFYqP0G4v0U500XK1W6/DvGMhV4x5G5930ep1O19/fL5fL+/r6xGKxQqGQY04qlcrlcgXmlEqlWq0GFE2v11/6uWUIgrzR+8Z+4X6KVXXquptbbiZHGgyG48ePNzY2HjhwIDMzs6CgwP2bYnJ6Sni/cP+X/V9SIuFlaMLFBvEjnY9AWvZM9zODenRKQWqQvtr7KqBlYHC9FMuhkR4DoVnuUZR7ZFDC/XYjXmkZT59Rg/740pEjR97F3DvvvAOJGZPJPJdTEnmhJq9VVM43ePwY0zctG1m+3H72LPzxpbgaS1yNZX2mFfz4kqWpaeyZZ2DZA6FlQ1L13uSW4k7D3LP60g51frMilyWv7NE29xvYYpNAYWnp08YyOdEF3V19XpeDoEZKIDo6DuzKNRqNBtxxONyiomIEQS52I5svjGzLHfkybXhOhCWjydQjQhkhT2ouaBSezfFzjkx1r2lvob2Np96coVkcrW/nkZcvzYjJarGhn1x1ikfXpIZ2tj9RmrVbDvx71bHNcT37MgaO5smO5kn3pQ9siu2etfrkouXfEOlcQwQtw4ZO6iErronRK8CcQK8NB1rwGj01NTU6OqpQKKqqqjkcrsPhaGhu7unxcyY4WQVF+NatWwUCwcWLF3Nzczdu3KhWq7dt25aent7Z2RWC8IaGBqFQuHfvXplMlpOTs2rVqvHxcUDLZDLZ2bNnFQrF0qXLgrI8tV6f1Daa2uVI6RzN6h4u5I+RfQF/rIA3ls8by+c6zveMJLdZUzpGUjpHUzod0MewRlLrvR75cvrkqedm/BP60tLSrZu3PPX3J5/6+5Pbtm4FbKywsDA3Nzc7O3vVypXg1gP33Q+yxMXGkeElh8m0bOXyFWTudS7hXCC0LCI8or6ujizTPUypUMrEKmwt3T09DoejtqExkNYilysKC5l1mEtKSvrggw9effW1kpKKqqra+npWU1Nrc3N7c3N7U1NrfT2rqqq2pKTi1Vdf++CDD5KSkkCuggKm30VM9wOHKKUzGo07duxYsmTJK6+88v7778+ePfsf//gHhbJIpdLp06e/+eabc+fOfemllxYuXLh06VK/46iP2TKdTsfl8lIyMiQSydTUlMPhUCgUFRUVU9jnmUKhMNPfjwo8++yzFFoGVjDHx8fHxsasViu6z4zEoQEnGx0dNRqNSqWyr69fJvMw604GR8blnpg2rfjx/7X8938rHpy25K47t/7f/8GzMIwGw9f/+teKu3+veOB+y69+Vfy3R05MmyYL4M0NcjK5XC6RSIRC4eDgYH9/P5/P5/F4gKbz+fy+vj6JsMaiOqIW7pFKpf95qFUqlVar9UaegOWAk2m1WkD7wO808Pl8iUQiFotFmBNjTiKRyGQyMDMHyJk32kceof32rvmKfJaa+vPnQr0wWhJNxhZBEKPRGBsby+Fw9uzZk5CQkJ2dHQjXB0J6db3TOqa93vv6CdEJrdHD22Bowv/W9TdIyw4IDyiMCqDujd43IC27RMspILhfhma5uxyPMYEL91vp3mhZOd+Q3difU9Gs0Rs1Or1aqzOZLWfPngXMjMlkZpXWp1dzvH2GWT1g8UHLRjZssB86BIpWzzOdvGjZfN62Itl68qIlpwX/qfKysrFXXgFpAqFlgxLV7nONrQJDPVdX0a0pblcVtSlL2lUV3ZrE8oFdCay4om7ekLMleETVWySb3VtQUAR+EU6pNUXXDncJzYjJxOf3MZklegPy+knDp7GWhfH2OZG2x3aab1puPHXRPKCwCFVWica2/kyFSKbyJhzE13Cth0pG8jus7QLk4whkW5ZBqkSXL40mixk9EWNk1DH2zmmLIGg+SVWr1+uffPGd5SdKD50XRVzURVzUHcoRrTpZ/ui/3tDpvI77LrQskP00ow4H3AtMXuMAA4PVauVyeZmZWUqVqrG5ubOzg2qmz2uK8KGhodzc3KampsnJSZlMxmazGxoat2/fMSQUhiCcw+VmZGS0traOjY3V19fn5uZOTEwIhUKDwWA2m7u6urhc3rFjx4OyvKANiWNhtKxjNLnNltRm9eBbrcmtluQ2W7IbJ0vpdITXjxQQezyo6Jw8fnz6U09Dz2Qyv9mw4YnH/vbEY39bv24dYGPp6enJyckJCQlhn30Obt137x+mP/X09q3bYqNjqBLx60unZVs2bfZPywJoLampaTKZvK6pMcDWotPpz5/PS0lJT0lJj4iIfPvtt1esWNXXNyASSWQypUqlUau1arVWpdLIZEqRSNLXN7B8+cq33347IiIS5Dp/Ps+dG1H6U7/PApvNfvfddz/++GM+nz979uxnn312zZo1OLrE/8jIyGeeeWbmzJkcDmflypUffPABk8kkbnsKWa3WepJraGhowlxjY2N1bV1OXoFKpQIvQhaLZWBgID8/f2JiQiQSJXrfSgj1TJ8xwxcts9mG8Z3+4+PjgJM5HI7JSfQHKjo7O5tb/LyJAkWAmeX/70N777pzC4mTgbtGg2Hdc88dvPv3Ff96JkBOBn7/WK1Wg3kysVgMORk4Zqyzs7Orq4vNZvO5TTpZskKYNjQkkEgkcrkc/ZFUjca9xiEmYC5Hp9NptVqgAsyKSaXSwcHBoaGhAcwNDQ2BqTggFs6Z6XToDyIYsdN3yTKDbVHkvH7DGRkZbDZ769at4eHhqampcrmfhRsoUG/UlyvLF/AXvMt9F0ZSAsEKJ9MysigKLQO3ghVOFug3/KML91vp3mhZZR9S2CE7V9p2NLFg9+nkLUeiNx88OyCUhIeHz5o1i8lk5la1nm8a8PgNJtj+742WDe/aNbxjBwW67GbL/kLqeRbW3FzH228HeJzsgES1I66+Y9DYxNfX9GorujWlHapTuey1Z2tSStkiGXWXCMUAH5fJyWkajRacu17cPbItb3TLhZHV6cOrUqyLYpAPI23vnbW9dtT65B7L3euQW1Ya/++QSaS2yXR2hd6uNg4XNg4mFvknHiKVubTHBp7a3Fbk5e+MSXVmE3YixsioI6VpZH++DxuDuNXSyX74xfd2JXNOFipPFCr2pPAeem52bXO7DxEELQtwPw2FOcH5D7CCaTKZ2ts7SsrK69F5sh4fij3e+sGER0ZGms1m8vJQaJa3DFjiW0aiWfaQfVTTSMsA9fGA4ERFRPzj8Segz8zMXLtmDeBeX3+1GrCxmJiYiIiI06dPL/j4k0f/+sijf33knrvu/sfjTyz6ZEF0ZCQURQlcCi2LDI9Y+/WalctXNPj8+UX08fZOy8bHxwHmF3JzqxsaQmgtCIIwmcz169dnZ+fo9Qar1TYygu6RAm8LY2NjIyOjVqtNrzdkZWWvX7/eNx8i96eBPAsxMTFvvfVWSkpKfn7+Sy+99NRTT8lkHt6t9Hr9Sy+99PLLLx88eLC1tfWtt96C3wRQasTbpdVqJW/Ogzu9JiYmjEYjn88vLCzkcLnJKV6/uiVLfuqpp1auXNmMuRbMtba2trW1tbe3azQam80GX7rg02EymSYmJqqqqwI/SBZBEBmXe/C5JyPnfgjnychmGA2G2LlzTz38cCDzZCAjebZMKpWKRKJB/HfEwYQZn88T9NUM9WUODTQPDQ2JxWKZTKZUKoOdLQPMDFu6lEulUjBhJsacRCKRSqVgtkylUgU+W+a3Ra0bWHdOSt0J2qHpeK33NTJu5HBhYWFFRcW6deuOHj0aFxc3NOTn0CYEQdhathFB12X4Ov60jmlkaZRwUMLJtKxT06kzOj9z9kjLEAQJSjjFML+XP65wv92IN1pWJTCXcXX5bZKMWm5SWWdcEetU+sVvI1KHxLKioiKFQplY1JDfJva4q8wHLbMfOTKydq07aBfTW9P35LrH21JSRj/6KJDZsgGxcltsXY8IaRMYyjtVx7K7Vh4ry6niaLT+fjnSXSspRi5X7Nt3MDk5LSUlPTk5LTEp7Vhy3VcJivlR5tmnUTb23EHLnLOm3bmmaRtNd65B/rBWveZMzabwis2RlZsjq7ZGV22Prlp78iJJZEBBrR45XGR88zjSIRw22cae3W9UUz/WD0iOx0S7Dxx/fsnmfRkD+9IFryzftXkHdbsCJZcLLaPc83jpY6CdmJgwmUydXd0VtQ0cjodf2vIokBx51QnnD0qya3jJZeyQfVYNlz/odS+kXq9f8NHHj//vo8DHxcVlYS4tLS0+Ph6wsePHjx8+fPjQoUPzPpz71z//5a9//stdd94J0p88TvyeAxlnBEHycnPJJ2I0NjbGxsTs27tv3959F8772Vu2ZdPmhLj4i6Wl8Ot9inB46bdCOzq7CkrLQ2stCILExsYeOnSIz+ePjY1PeXFjY+M8Hv/QoUOxsb7OSqD0p7AI3gLR0dHvvPPOkiVLVqxY8cILLxR639HFZrOnT5/+xRdfLF++fM6cORs2bPAm02O8D1pmMpn6+/tzCwoLinztJyOLffTRR1999dW33357/vz5ixcvDgsLW7Zs2QrMNTQ0QFoGX7cmJycRBCkrLxscDPgbJLK+yxo2GAxwQgt84oBvLxsUDvULh/gioUAsFsN1RjBPBo6j9GsI3FsGljIBOVMqlWDmDP4FPE+tRn/J3ds8GdAVVIsKcG8ZpRSVlZWxsbFff/31gQMHAjm5Y9/Qvr93//3zvs8f63rshOgERRrlMkDhy/uW3952+5K+JT1a9D38xuYb+3ToNulNA5vua79vLm9uo9rDx3EBCqeYFODljyjcb6V7o2XVA5Yqgbmiz1jG1V3kaIt7VBdYg7EFjUcSLjCrm8MzihNL25ndSo+7yrzRsqnrrnN88IGlqQl4c7fzzFJzW9sUgzHFYNjw43tM/f0w2fD27ZN33DGybp1vtPtFyq3RNXW9qsMZbevOlhc38H2nD/wuvpcM/Q8noY0IMqQwiRSIRoceJxteYXpwk+lPm5CKLvWQVDUoUQ2IlagXoX9lwW7Ox40bkiPLEpB/7TflBvebW3h+7/+ffuGN9/cm/3/2zgVei6Lu4yOgKBa94RVLXwtMK/OCIeAlUVGzNzMzRY+lZHjKG96yvCSRmpckj5YRvOLrwVsqoniQk4oCB8MUFUWuh4PCUa6i8IiaepCzb7uzOzszOzuzu88+z7P7PL/9nA/MzM71t7Pz/+7MPLt1f5zU7/DQBy2W2scy4+4Hmub555+nj9r0X/rATf998cUXn/vn7KZ/PNW61PyyOFYD3pG7zNetWzdt2rQHkx4PPfTQtGnT9G8cnTp1ar8DDjzogAMHfLv/+eef/6tLL7vk4ksuGjHiwvMvOO/cc8/95S/Z34kn/GD/fb+1/77f2v3LX+63/wEDvt3/D9dfz8srue+/7z5GZtJmMskrbfm/4LzzT/nxj5VflpSKMF7QyVP/kay3bNiwYd26dXPmzLnpppsKhYKlPTZu3HjTTTfNmTNn3bp1YXuM+PE0yr2wdu3a733ve5deeukJJ5xwWzj+UkEmT5783e9+9+KLLz7qqKMWL3ZfGiRpFebdtGlTS0sLW9WczR0ts2ZNaX6ypWVWWNpg+IYNG57yjqe9Y5pzvPTSS+xFsvSnAPYnTTdteumll9auNezVCBZUuhBpH9ha51jjHNTNmCnsWmvqRrcY073/dFlzfeCgNMbbDGWGsXrUoa8f2nNOzyuWXXHXW/bDw7Q1065YdsX3FnyPvSBDWUShUPjXv/71+9//Pvpnvpa+u/SZNc9QcgrLk4VHyXzRu4vo37oN9rrV4ncXv7fR3jSz5N0lNHztRnXniZI5q0lcR6UyN150DZbxryKb0bbpmSUbml5+6/5n5/3f1BfunfYq3ezPx5Hc0iLmR//7vxYhnT16sL/NQ4ZQGf/9xz9uPuaYT664osP7idLHV17JonX26GER8qnpw8TL2tec/6cnR945Y+bLCc193GvK4v/vzA0/usN+pa1m/w+LnBHH8hVv7fClvXb80tdWtIfOwrCqClhm3E/DksFRTgWosVm/fr1+nWLjxo005nPPPUcdRrM0c8bMqU9MfWLKE0/+48mnnnwq7K95anPT402TH5t8wQUXTH3C/k7z8uXL2XNMOaVgZb377rtr1qx56623nn322QkTJjzwwAP33nvvhAkTGhsb/885GhsbJ0yYcO+99z7wwAMTJkx49tln33rrrTVr1rD3trOsqEMaT6PcC+++++68efNWrIj0Jp6VK1e+9tpregSXqlRmL5sfoohD/42+nbzMteWL28gdfHgqbi7veD/LitWjblx+48mLTj590ek3vWk/Zjy66tHTF50+dPHQny7+qbEVyb7xZcyWRkDmSqHCZDFe9IhYxibPnpy/buprq5+cvy7sB5gMziQsU1abBr6/bNln3/72lj32+GDaNE0046nFb0bd0WjMKm6EO6a9/7dnIr3WNW7OpYu/tO2NpcvMOw0KhYKPZcbdD6WrLnKGAhVXgB9PcS9U/HJUQQXQo6rgIsZtgvGiR8cyylsz2jbRP4ZfYY7oWBa3UYhfZgUELCtz2SgOCmRHAWk8zU7FUJOcKoAeldMLV0y1jRf9thf+Xbq/YmqOtNlRAFiWnWuBmlRSAeN4WsnKoewcKoAelcOLVmyVcdGLVRDppUVMCAIFalYBjKc1e+lL1HD0qBIJm+VscdGzfHXyUjfi/SoL/0MBKAAFoAAUgAJQAApUUgEsYuYFoFHPWlGgFUctKVAr3RrthAJQIJoCmC2rJBSjbChAFeDv1tbWVgtHbSgQ5R2wfN+AGwpAgapXwMaypTigABSonAJPPfUUP9AAy6yaOYBlfM+HGwpAAfu9ZcCyypljlAwFbAWAZVatHsAymGEoAAUkBYBlIAMoUGEFkmHZub/85Tk/H/7ci6+uWLl++cr1K1atb1/17ltr3l259r0177y3bv2GOXNfO+fnw6/8zRUWjqwqACyTDBK8UAAKAMsqbJJRPBRIhmX1w8+pH37Ogtblb72zif69/c6mt9d/sGr9B6ve+2Dthg+WtL1ZP/ycC84738KRkgLr7/zLksP3Wzxgb83fksP3W3/nXyIWCCwr4IACUEBUAFgGKoACoQr0P3iA9BcatYgTybDs7GE/O3vYzxa3Le/stNw/yz62bOnc/NmWTzo+e33R0rOH/eyX9b9wgvFPCgosOXy/DWP/uPGuWzV/G8bdvOTw/SIWBiwr4IACUEBUIGNYNu2qAw64aloRFg5JoUCKCkhM1v/gAREzv3P8+HPOqV+4cBGNv3DhwnPqf/H3v/9dmTwZlp310zPP+umZry9e9ta6Av1rX1toX1tYsWbjm6s3vLH6vZfnLT7rp2ee8/PhFo6UFFg8YO+Nd936TsMwzd/Gu25dPGDviAUCywo4oAAUEBUQsWzaVQcQQobeyYzHnUMJUXKSkZ9oVsQ9uCxZ3iqHMVtVIoRBgRIpIHGY5NUUeumll/U/eMDwc85ZuHDRwoULzz775/0PHnD5r3+tTJIMy844ve6M0+temrdkzYYP7L/37L/V736wcv2mt995v31d4fmXF5xxet3Phg2zwo62hkGDGtrCzrLw5np6G9c3W1bEJCxtOR3F182UA49l7931Kx7OmBdYVsABBaBAEQoEsOyAoUPZhJUNSQcwn9KihAbygOUgWiQy41OFZo0TUKDkCijnyaJj2ZIlSy6+5JL+Bw/4+fDhw4ad3f/gAZde9qslS5Yo650My047dehppw597uUFc5et8f/aVr+ydPXLratfal01/YVXTzt16Fk/PdMKO0wU4qRrricOu9HILAlzhGVe/vDiq2TKgWHZe3dd3vnJv/899ylKZv+e+1TnJ/9+767L32kYBiwr4IACUKAIBYJYdtWd3kLinUPJ0KtcDzf55cyeUX5y/r1qqGpKTAIs5vUzYpxmT8nRY+gfuLLV03RKu4ZAKJCyAkVi2dKlS5csWTLiootoPhdfclkYkyV+QcYpPzr5lB+d/MCjzY892fLYky2P/sP9m/SPlkeaZ06cOqPxocdP+dHJPzm9zgo7TBRip2trGETsaTL3YEmYwztT+f+Lr5IpB4Zl7zQM+2jOE5Zl/XvuUx+9NJU6KKIBywo4oAAUKEIBBZZNW2rz2J0ceAmbvZyTS9lZtuZ551CBoxiHueaSJrMJjOKYjWe2y/ufRvOzZdCWsrlFdlAgigLSxBijtChpaRy2dknnzNg+s2AOyWbLTjrxh1H+Tjt1qMUfDnk02MuS9c0+hXjrlHYoH9sPJwf+8MBBDW1uEhvW6GHPpIk+utDpFsFn5kKen86y7PzddVQ7EzEzf5auvt4pzqmxndxbTnXDuRBnTVaqj1iHwEm/jfXj7VVdp+ZeKWJaHssYmfFMhtmyAg4oAAWKU0CJZTaXuXvMGF35s1zObjPGT2znGYtJzY7k5VGPRWDwxyyVWwqYjCkCR2UUCGJZrHowJrv0sl9ddPHFbJ+ZMpNkWPaD//l+lL9TfnSyxR8OlbjsxTGWSGNcAoZu1CF57YjN9YzlWBwZ72iGgZj+bBzLlyuaRvdwzUc4uqzKwmkVfMpUlcJytVO5bW2ur2+WJgN5cbzFW5bUsiwZy5x5Mg/LfobZsgIOKAAFilZAjWX+HBbDLzYVxkIOuGoaz168e6kzC8aIjXn5OHSajA/xot3pTqQpTRgCoUA5FCgGy5YsWXL2z4ez/WRsn9k59b9QVj0Zln3v2OPoX0tLy0viMXv2aq6rjQAAIABJREFU7IO//e399/3WkYd/56QTfmDxB88/jKLcCSs3ngMn9oOZO3lFz0qRWT4stp1CmoSzM2TnB119lTfF5sV0CqQR/CqwBLQGfEHKmtiZOAz1jPMLBj45rY/bLPofnRvzKJRlTk/yXt7t5cBjGVu7ZKuZ7zTYZIZFzAIOKAAFilAgBMuY9aDYxMGTTVMMyLhwd1lTSuh62dolczDwo3TmJfMylFZEvdP4HwqUSQG2askcsQq+469/5ff4L1my5JJLL2tsbFRmkgzLjh58JP2bMWPGUUcMPuqIwc87x8yZM59++ulDBw7qf9C3Dxk46HvHfdfiD542qJsP4WNSNzsrRZbC+YTsFB9IAc2HL+6cQ0ruGRuqvEj6EoVSRCzzMuDKkJwenAmZiL8zlU45GTAsw5b/Ag4oAAVKo0A0LFvqLmsSQtxfagZwTYFl9JHY/pebN3OXKbn3cPghxN/y7xTIJVOaMwRCgWpQIBmWHT7oEPo3ffr0/v0O6t/voKeffvqJJ5549NFHH3zwwf79DjrgW/v179fvmCOPsviDpw3XbaOQN33ER3XcLD518F43kY04QnIWR84sENOOQNccvSVDLq1LaCxEcjCvN1nm7XtTlcKa2NZQ774ShKZnJ8TGhkAkw7J3GoaxN2LQtUvmxWxZAQcUgAJFKCBiWTXYOLQBCuRMgWRYduiAgQf3O+jgfgc1NTUduN/+B+5/wIMPPnjPPfeMHz9+zJgx++/7rW/uvc/+++77nUMOtfiDpxnmtuHEPQTA4umEYYw3F0VnnGwfl9ye6mLZ8uVStxTT2S/mlujRFM3WXsCsr7dfq8Zykxx8VhQL+Qhec9ypNzsyLYdl703KcfnQLf/ui9xYblwreCyjNBb8F1hWwAEFoEARCgDLcmbCUd3qUyAZls2cPqPffvsfsO+3JkyY8MADDzQ2No4ZM+a22277o3N8Y+99vtan7ze+tvchBw/YvHmzVX2HCptK3Ur740vjbtZ8eWnjXbfi40tF2CMkhQJQoAAsqz4rjxblTIFkWGZZ1swZM2bNmjVnzpyFCxcucI753jFjxozJkyc//vjjLS0tnZ2dVvUdlcCy9ePviPSp8rv+GlFvfHwJRhgKQAFJARvLcEABKFBZBfjbsrW11cJRGwoAy/ieDzcUgAKFQoFABSgABTKlALDMqpkDWJapWw+VgQJZUABYloWrgDpAAV8BYJlVMwewzO/3cEEBKOAoUBSWteKAAlCgOAWCAxGwzKqZA1gW7P8IgQI1rkCxWGbhgAJQIKkCSqsMLEsqZ/7SFYf0SA0FoEAVKuBiWeKW5W8gRI2hQGYUAJZl5lKgIlAACkCBTCjgY1kh/oHH+kxcQ1QitwposOzaG2/DHxSAAlAACtSaAsCy3Jp0VDz/CuixzOpoV/717t1bGS4FRolWzjhWR3sVFxelaVAACkABKGBUAFiWf9uOFuRWgWRYJuEXvFAACkABKFA1CgDLcmvSUfH8KwAsq5qRFA2BAlAACqSiALAs/7YdLcitAsCyVEYxZAIFoAAUqBoFgGW5NemoeP4VAJZVzUiKhkABKAAFUlEAWJZ/244W5FYBYFkqoxgygQJQAApUjQLAstyadFQ8/woAy6pmJEVDoAAUgAKpKAAsy79tRwtyqwCwLJVRDJlAASgABapGgdJi2VU4oICoQJCgJlXvEWysFAIsq5qRFA2BAlAACqSigB7L5t7QnwybWCgUbAchpP8NcwvcYXzL/1VXXSXZIXhrWQFlf5g0aVJ7NR6TJk0yXmtgWSqjGDKBAlAAClSNAnosmziMUpn7v+ctuAewzGh3EYFXAFjGq2FZFrCsakZSNAQKQAEokIoCkbBs4jA6Tzb3hv7CfBmwTLKy8OoVAJZJ+gDLUhnFkAkUgAJQoGoU0GNZoTBxmL14yebMBCorAMskKwuvXgFgmaRPMizL4OcXM1gl44fn6CAepeZpxSlzlcpcXBSVylylMhcHBaBAKgqYsKygO4BlkpWFV68AsEzSJxmWVc1DIRoCBaAAFIACkgJ6LJM2k829ob/zA4CCe1QMy9a3/PWvLeslEwdv5hUoN5a1jOzXb2RLe2UObPmXxhp4oQAUgAJQwKhAXCwTVjFjYNn6lr/+zj1SACojli16xCvtd797ZFFWcMVY7axUtFT1KDmWNdY5a+7OP3WN7cCyjnbjEIAIUAAKQAEokB0FwrDMfSOGb+SoS5gsi763bNEjv2MwtuiR4jlJyzcOAfplpFFeSpiirXZKZWQ6m5JiWcvIfoTUNba7R2NdXSOwDFgGBaAAFIACuVIgDMsKUY7Is2WLHgnOWfnzZy6x+QGU4RyIabGnvShj+TNgj8y2FzGdU/akmI9glmVZIezj5+5Et2M98ogzg/fIIvecfYIL93NWpA2U7sdxmuNXntVQiCF47GrXxFFKLFMhGAtzkM15snAXNf0A4oQ4MUfac20+2LUXd2ARMztPn6gJFIACUCAvCuixjL1OtmAf3nsyHI/9T2Qss1yk8gGKA7UgR9GTDrl4KWyP53bgidEYPxNHqYyLaLmHXT5N7mZk/+fwk33Gc/y1ZT0Ltyyn0o8s8v7z87bjeGW4pQeao4jDEaN91m1NhibzPLFK938JsczmrABRuVjWWMdOMVBr9w56Uppq804W8z+wLC+DIOoJBaAAFMiOAnosC275T7q3zHIOSmePLLInpfzNX960FB9ICcmdR+OAhubDkxzvDpss4+NQJGIhkoN57YIc5lrC/bxASsuK42tOZ8f4fJibOVxM9TmTNqvq/y0tlgV391MI42bGvE1n7fa2M7ZC329kSxDX2os9gGXZGeZQEygABaBAXhTQY5k4Wyb6Ys2WccDhTCz5gOKdscnGozB6lo/DuxkM0aTSKcpS0q80+TgSWrFT1MG8duZxsMyru9sePh/mZg43EqNU11/1/5UQy9ob6+hyZDt3MCyTiM1mMi8oLA6XTTInsCwvgyDqCQWgABTIjgJ6LKMrl2xWQZgqi4Fl61v+yiaGXDTxVxUtenDI4hIaF0KXLVkewv4xIZqdlzN15cd1Vgn94iiV+Tmw5NTBvB6VrXdmtmh2clofEP38g80RyqJrl+tbHnHf78GX5yat4v9KiWV0/stfx+S2/Nu/z/RPtDtTZRyV2YSG2bJcbYnNzgCKmkABKAAF0lXAiGUFzRF5b5lDSu6qpTetFAijc0e/+93v7L340iKmR1s0D7rl350RU4ENnze3p8xNbb8wg6WSHIqULug5iR08Y0mkfNwGOnvVlHHodjX7/Gz2Ag9PjiqGMb9pJcUyilvsGcIGMQZb0pJluz23Ro9+dXX2u81YzPbUDsyWpTtUITcoAAWgQC0oYMIy90UZzjxZEVv+fcuccRePUxmvag6rV2osa8/SASyrhQEUbYQCUAAKpKuAHsvcb5NPHEaXL2vgU+XAslLSHrBMUhcfX0p3OENuUAAKQIG8K6DHMveXmDWEZZLZhDdVBYBlkpzJsCyVr+HSkStKVmnFKfN3o8tcXBSVylylMhcHBaAAFEhFAT2W2a8qGzax4GJZLSxiSmYT3lQVAJZJcibDsrw/C6L+UAAKQAEoEKaAAcsKBXdzmbM/Wvz0UrTXyV6FAwpwCkhcYlnWpEmT2qvxwN6ysEEH4VAACkABKBCmgBHLCprD+EtMCwcUMCkwqXoPU9MtzJaFDUwIhwJQAArUpgJhWOatXvrvG+Bc3qwZsMxodxEBCmgUAJbV5rCLVkMBKAAFwhQIw7KCc0gfX5IDgWUai4tTUMCoALAsbGBCOBSAAlCgNhXQY1lBfwDLjHYXEaCARgFgWW0Ou2g1FIACUCBMASOWTRzmr17G/viSxiDhFBSAAsCysIEJ4VAACkCB2lRAj2Xix8lFX5RvYsLuQgEooFEAWFabwy5aDQWgABQIU0CPZdLesthv+dcYJJyCAlAAWBY2MCEcCkABKFCbCuixTJwfE31RZsuq99UHaBkUiKSAHj2BZbU57KLVUAAKQIEwBfRYVijY7/lnh/dijIJ7GLf8V+ubQttxQIEIChjfKAssCxuYEA4FoAAUqE0FjFhW0BzAsgimGVFqV4ESYVkqn12j412UrNKKU+ZPNJa5uCgqlblKZS4OCkABKJCKAnosk/aWyYQGLKtd4kDLIyhQIiyrzSdItBoKQAEoUAsK6LHM/iKmvHLJsRmwLIJpRpTaVQBYVgtjKNoIBaAAFEhRAT2W8RvL6A4zAdKAZbVLHGh5BAWAZSkOVcgKCkABKFALCuixrKA/yoplLSP79RvZEsEWIgoUyIgCwLJaGEPRRigABaBAigqEY5n9OgzFDFmBO4rCsriYpYnPTjFHRswyqlHbCgDLUhyqkBUUgAJQoBYUCMMy7h1l4fv+i8KyuAZbg1yaU3FLQXwoEE2BKVOmBCNKgcCyWhhD0UYoAAWgQIoKhGEZz2K8u8AfcbGsZWQ/dwKu38gWylL2v3V1TnBdo3u+rrG9nSctP6a9iOlnQuiiph/Q74IL3IVOP8zOjOY2ss4t3Ani8sHaaJAvEKJVYOHChaeeeuqdd97Jx7rzzjtPPfXUhQsXskBgWYpDFbKCAlAACtSCAmXEMhuVKBG1N9Y5DEbhjNJVYx1hDgZt1L6JWMZsXntjnZsfYzjXYefls1ddI0UwVrZdjlQZP1O4oEAkBSQyCzJZe3s7sKwWxlC0EQpAASiQogIaLHPnlsT/ivklpk1LHi9582EyUQXCvbkud3aNelmd2HwZ72B5upE9BKTWlkM3vzKRDDEiQQFBAUZmSiYDlqU4TiErKAAFoECNKBCGZYUoR9xFTMemeXBG8YghlORgXgnL7Fkub9GRxZEczKvDMmpfvcpQH/6FAjEVoGQmrV2yPDBbViPDKJoJBaAAFEhLgTJiWcvIOvcFFw433e+88IIhlOTgFhldEqMRWDS6yYxNktFFS/esahHTYzm6z6xFqgxevMFQAo6YCix0DmUiYFla4xTygQJQAArUiAJlxDJ7L5h72IwkYRbjLc9h05hz2D8J4HabsVzccMce0kD9ln8XvTh0c/PH29CUTIHAohUoEZal8tk1OsBFySqtOGX+RGOZi4uiUpmrVObioAAUgAKpKFBOLCvayiEDKJArBUqEZTXyyIhmQgEoAAVqUAFgWa7sPCqbKwWAZTU4pKLJUAAKQIFiFACW5crOo7K5UgBYVszYhLRQAApAgRpUAFiWKzuPyuZKAWBZDQ6paDIUgAJQoBgFSo5lk3BAgRpWwNIera2thcBB3ztz7Y23FXNjIy0UgAJQAArkUYHSYpnWJOEkFKh1BYBleRw0UWcoAAWgQOkUAJbVOhmg/RVUAFhWuqENOUMBKAAF8qgAsKyCRhlF17oCwLI8DpqoMxSAAlCgdAr4WNaa6Kh1u4r2Q4EiFACWlW5oQ85QAApAgTwq4GNZIf5h/CZmEQYLSaFA9SsALMvjoIk6QwEoAAVKp0BpsezaG2/DHxSoZQX0aAksK93QhpyhABSAAnlUoORYpjdLOAsFqlgB+yUX2iMZlqXy2TU6WkXJKq04Zf5EY5mLi6JSmatU5uKgABSAAqkoACzTmk2chAJFKFAiLMvj8x/qDAWgABSAAlEUAJYVYXWRFApoFQCWRRmDEAcKQAEoAAWYAsAyrV3FSShQhALAMjbQwAEFoAAUgAJRFACWFWF1kRQKaBUAlhnHoE8/XP7xpjfxl1MFjNe3xiN0ftqe0yuLam/+9/JK9V5gmdau4iQUKEIBYJl+XHtq6vPbbnsdIaPwl1MFrv3d4/pLXMtnOz9tv+ySiTm9sqj2HrvfsuatJRXpwMCyIqwukkIBrQLAMv2gtuOON2H0z7sC8155TX+Va/bsP2e+lPeLW+P1/953x1ek9wLLtHYVJ6FAEQoAy/SD2he+8AdCRm2//fUNo5vxlyMFRt88dYcdbqQ2+9BDxny86U39ha7NszOmvUglGnrKhBxdXFR1+NkP0AvXtevvn3nyhfL3XmBZEVYXSaGAVgFgmX5Eo1h29ZWP6aPhbAYVmPTwLDaVctyxd4LMgteIYdm/nns5eBYhWVZgj91vod17u+2uKz+ZAcu0dhUnoUARCgDL9CMvsEyvT5bPTnnsnwzLCBkFMgteLGBZUJO8hHzzG7cRMqpLF3vba/nJLJdYNm7cwsGDJ2f274QTmltbNxZhzcuUFDKWWmhgmX4UBpbp9cnyWYZlhx/2N8pnIDPpegHLJEFy5KVYdtSR47be+vflJzM9lk0cRoZNLLBj7g39eW/B+Klyo1lKZhcHD55MyJhsYtmee95LyJijj368s7MzWevKlgoyllpqY/9P9vGlHI1u+qoCy/T6ZPksw7KXX3zle8ePp2T24x81ZrnOZa4bsKzMgqdYHMWys356X9Nj/2Rk9vrcMv26JS6W9b9hboEdFcSywYMnl9qmJst/xoyVhIwhZMzYsQuS5VC2VJRry1ZcrIJyJKOmXcAy/UAJLNPrk+WzDMvmv/rax5ve3H776ymZFdYvy3K1y1k3YFk51U63LIZlVkc76+pX/ubRdEsJyy0My+be0J8oDmGyrJKzZRnHsj597uvZc/yKFZs0Nrvip7KPZbmQUXMdS4RlqXwNl44IUbJKK07wy9lKLCtdccpBMK3iouQTVKCkVSppccxWzX/VnkIY+9enKZatX92qbBQLjCJUWnFKqgBrEXNI1Q7DMikaS8470opTWQX4FvHutFoXJZ9kCvBYZnW09+hhP3Vsv/1JfCuU7lSqFIZlhSgHZsuCJplO8zQ2Lu7Zc/yQIU1ZXsrMPpblQsZgH2AhJcIy5XCQx0AlluWxITVYZwnL7h7/TEQsqx2twrCsdhTIb0slLNtlF/sNi5ddMrE8LTJh2cRh4pyZMF0GLGMGmDkols2YsXLs2AUZX8rMPpblQkZ26YMOYJl+FAOW6fXJ8llgmfHqAMuMEmU2QpaxbOIwImwmK4gHsCxoiRmWdXZ2DhnSlOWlzFxgWfZlDPYBFgIs0w+7wDK9Plk+CywzXh1gmVGizEbIOJYJ02MilWFvGbO/voNhmWVZK1ZsyvJSZi6wLPsy+tc+4AKW6YddYJlenyyfBZYZrw6wzChRZiNkGcsK8isxCsKB2bKAIbZ4LLMs67e/fZGQMc8/vzYYs+IhecGyjMuouY7AMv2wCyzT65Pls8Ay49UBlhklymyELGOZvLOMCK8xw2yZwiJLWCZ5FQkqF5QjLMuyjJoLCCzTD7uhWLaoaRCx368d+jd8lj5nnC21AsAyo8I1gWVN9/A3aX1Tu1GWXETIMpYV9Admy4ImWQIIyRuMX8EQYFmpxQeW6Yfg5FjmENug0fP0+dfA2Vn1HLyWUxBgmbF3abGsYhfOWO14ESqAZeWQLttY5r6/zNn4H/gBQHVj2ZYtW5YsWTJz5szZs2e/+eabEU24xGGSN2Im5YkGLCu1zsAy/RBfJJYRMqqcIKJvS4XOlsNEKZsGLFPKwgcCy3g10nOXo89nGcvm3tDfBrKJw+jvMV1vwTsyjmWPPfZYD+7o1avX7rvvfthhh1144YXTp0/XmOR33nlnxIgRO++8M/9ykJ133rm+vv7111/XJLQseW8ZsEwvV9hZSTfJG5Yqa+HAMv1YXDyWEXJPc0eVrJvotQo5Ww4TpSwaWKaUhQ+sCSyrwN1Xjj6fZSxzv4mZUyybOHEiz1WSe+DAgW+88UbQkP/rX//acccdaeQvfelLRx999JFHHrnLLrvQkC5durz00kvBVCxEAgjJy6JlwYHZslJfBWAZb6WC7qhYxu0kaxt9O7+XhZBRVbOdJahPhJBymChlNYBlSln4QGAZr0Z67nL0+SxjWYFymYtleVvEpFjWpUuXj52jUCi88cYbkyZNOuWUU7p06UII2XnnnV9++WXeNi9duvTzn/88IWSPPfaYMmUKe0f/li1bpk6d2r+//UWq5557jk8iuSUOk7xS5Mp6KZbNnz9/nPaYO3fu2rVrWZS77rpr0qRJr7zyChNHakVLS8u4ceOmTJkihc+bN49m8s477/CnaAVWrVrFB0q6SV4+ZpbdwDL9WJwAy6yO9ubhwk8B/HXM0B8K3N6wKDCjJuyJoVNu8xoG0py9GbhYGQqR3RKFqnJwaXUIpiWULIU8xboFdJBolQxsauNnMrRZuZcpiiZensAyfd+2OtrDsEzoFdzWQPcK0gsX5VoorintJKoOL0RW9U/1xLPQUd0a8j1ZqKexXLkP2xrGqVgk6bwuarxAmgiZxrKC/YoMNs0kv8Ms44uYDMuClnv27Nl0AqxPnz4ffvghi3DIIYcQQnbdddf29nYWyBybN2/+zW9+U2VY1tDQwC6w0nHdddfNnj07eOrggw9evnw5E4c59tlnH0LI5z//+Y8//pgFWpZ1yy230EwuuugiPvz22/8z/0GeffZZPlDiMMnLx8yyu0RYlspn1+iQFCWrtOIEP06nxDK7OGGkHkV4M9DRLk2YeVimsh+CzfNgi47agjm5p1ny2nHiZdh7px9yvx69vWG08As1ZnF36t1baVq8Vtj46AiuLX34rN4h+fhw5lj3iFm59kkSQfD+TFosToxlaXWnKPl4YgagXLTcUbJKECcMy3r1oHQS8i+9cL1+5l9Kou6fPYTuHczN7fBuzYV7KqR/CnPP7CklmPMoQjwCEzrJ7T136s2xjqEPuzHjVEx57/hCSY8i3lVOcO2UWIZvYuqsbcTVNw2WWZb18ssvd+vWjRDym9/8hhY2c+ZMyg0PPPCArnjtOQkgJK82ablPUhnXrVv3Enf07t27Z8+eXMBLq1evplj2k5/8pLW1deHChc8+++zpp59OCNl///2lObN58+YRQnbbbTdCyKOPPso3iWJZr169tt1225UrV7JTwLKCeNCnHRvpvGGlWh1KLLMbK4zUMpZJQ7M31aS1AdSA8aO2YE4kw0PtWcwMpTobTKZU4ihxk5y56EGj50k6+MZJaGykrNwOZtbE55vEWFatnTnYrjAsi3ThzNfCfGWFGdOI/dO7RwyVDMEyblraXD33USROxQy18iofvBZxQ5RYlpFvYrp7yzyrIb9cNr+zZZQJfv7znxNCdthhh88++8yyrPPPP59OlW3evJlGSPCvxGGSN0GGpUuipNs999yzV69eUqEUyy644AI+vF+/foSQefPm8YFXX301IeTxxx8nhAwdOpQ/RbHshhtuIIScd9557BSwrCAewDINlklTZf5TO53cEufVrA7pid97xO9otyKavegZRrQu4bjm8aW4SstZGsEmueGC8eOn3KgdUiWx0UodbtYEWOYrYLT0YVjmJDRcuMr1T+ceETuz0K/cTuLdSkKf8QLDOpgyXCxLfrrw7xeWuUm6NJ5m84Vl/W+Y69uQvGPZk08+SafH6A6zAw88kBBy2mmnMWJI4JA4TPImyLB0SYrEMjphJi3p7rXXXl/72tcsyzrooIM+97nPffTRR6z+FMuee+65Y489tnv37myZGFhWEA9gmYxl/tAcmGSSsSlgNcVBn6GPZPYEw6Mf1sMyFMP9hVcpnFsnkhDTqxtvdZgpou0KnuJDgq8L4c8as5JRVa8JZsvKiWX6ayHUROxvXqfSzEBLjy7Ob2gE2Ar+qmZew0CvOwkxvUBhAwALDOnDYoX9G0d+pmLV4Ht1sM8HRgD97RxyNptYxm8p47YVibvL8o5lq1ev5lct6Q8wr732WkYSCRwSh0neBBmWLkmRWHbAAQd06dJl7Vr/u1Jz584lhFx55ZWWZd14442EkIcffpjVn2HZCy+8QAipr6+np4BlBfEAlkXGMnG7mDvCCqO29PDtWynBnCjzYeN7tAwF68KbItHscbNfUjNd0ytULIChHKE6bRHqJhvveFlJWKbXpB1YJsCQyrqnN1umvxZCHwjt8KH9U7ruDv0IkblOGHwKEvqY1+2FQC4513tpPe0+LJTl5UD1FPPxbl6hvXKfV10I45UKRsgmlomGIsSXdyzbvHnzVltt9Z+fZI4ZM8ayLLrV7M9//rNVxCFxmOQtIuP0kxaDZWPGjCGEnHHGGXy1rrjiCkLIK6+8YllWW1sbIeSUU05hERiW/Wdj3/e///2tt96avqQXWFYQD2CZOFKHDeuyrZImnyT75JsBxYgvZ0WH6XgZhlsX9YphYAsdsCxoHXMdUmosS6t/SrcbpR+h08o4xcGTQE5euBAYdv/a4QYsE+4pzJYxOyF/FVOYLss7ln3wwQd0tuzOO+/8z08Ft99+e0LILbfcwkgigUPiMMmbIMPSJYmLZXvsscexxx572GGH7b777v/ZVXbSSSfxa5SWZX31q1/9yle+wiq8//779+jRg/3QlceyuXPnbrXVVmeffbZlWcCygngAyyQ7EQAsb/Tnnoy1VsQ3DN4DtzRDoMCy2BkKJkSooZAVP1smrPV4yzGxTJoyByZLvKzMmvCQhNkyXg2lu6RYJnQqGZtUHT68f0q3m3ePiLO8chFeDxf6mDLQr0zgRgaWsSl5wUGoRWhtbRVNA/UF3lQmRso7li1dupRi2ZNPPmlZFqWNX/3qV1YRh8RhkreIjNNPGhfLdt1110MOOeQb3/gGIeSoo46SKvTSSy/R+bOF3vGLX/yCEPL3v/+dxuSxzLKsk08+uVu3bm1tbcCygngAyyQ7wW03EQYvzhYK6xrc7wCkJRL2wG1EkPgZhps9wYLGwzLPzjHSkh1CPeUFHaXJlHPgJBXiK1CVExyLmJxuIZKWEsuE6x6pw4f3T+l287DMa6DQKzjGoguawlmvuyoDQ1QSS/dyoJGFOrObV2i73OfDSokZnuVFTOmXmKL1KBTyjmVjx44lhHTt2vW9996zLOt//ud//vMCrcMPP5xiRLJ/JQ6TvMnyLFGquFhGf4nZ0dFx2GGHEUJuvvlmvmKXX345twnRd5500kk0moRl8+fP79Kly5lnngksK4gHsEwcqeUXZPDoZpxnAAAgAElEQVRw4LrVw7djV8JOCZYjgCBhqQIrj74NE5II1iUeluknwFzrwvZc602U/iy1uywrI6p6dtqpA2bLFP1QtP0lxDKhszFe0XZ4IYnQP6Xbze7STfeonoWE7uRGEO4jlq0QM4ScvI4Xq2K2wlEyF/qq8UoFI2QZy+yXyQrLlir7QY2u8l/j6zSVqYyBSp4IptK/t+yzzz6jr3g4/vjjadqbb76ZUtqKFSuCuUUMkThM8kbMpDzRlDJGeUHG2rVrv/zlL3ft2vWJJ56gVe3s7Nxzzz132223u8Wjb9++22233aZNm9jrZPlfbp5++uldu3Y977zz8DrZAncAyyQ7obIQ4rArjOzeaqBjIwUk4n4FKf4S04BlvF0JzVCoA7NPdj2FJMbZMik+kanU21FEi5BWmuSGCEUbsgKWiZ1KZKyg5TaGaLHMcOHK2T+l283FMmfV0n/qCOMhNZaJfV7f8cJvHEXF7GqYpCv6wlkd7VnGMnlnGSECpOV6tuzKK68khHTr1o1943LNmjXdu3cnhNTV1YWB0Zo1a/hXoQajSRwmeYPxKxiSGMssy3rhhRe6d+/+hS98YdGiRdRLCLnwwgul5vz2t78lhNx3331KLGttbe3WrRvVHG/5L3gHsEwajs1YJj5AB7ewsBDfzAjmRKYZ6YmcJQ86/AzDrYvARhGwLFrpLvkJmfMbgNyChKmFYP2dEA8iDZoI1ILZsuKwLAAu7NrRC2e4FlEuq73gGKV/SrebnUQonVu4ZJVM43Wy7tpr+I2jqJiDXKY+L3RU42VSRsgylnmGIuT/nGLZ22+/XVdXR5fZ6NscLO+47LLLaPjvf/976f31lmU9/fTTu+++Oz/f46Xz/5c4TPL68TLgKgbLLMsaP348IWSvvfbasGHDJZdcQgiZOXOm1KxXX32VEPKDH/xAiWWWZQ0bNowKDiwreAewTBqOI2BZFEMiWinB8ASxLH6G4dZFsCKRsCw4JRA0jR5LhSGpX5A0uxCelVETbh4CWKY053ygdrZMXozziTkSlqXZP6XbLQKWsb4nVYMLV0xrhXS88BtHUTG3B4ZQqd/niyWzjGMZP2HWn3+XbCEne8u22mqrkSNHXnPNNZdffvnZZ589cODArl27UhT45S9/uWXLFp4kPv300yOOOIKeHTBgwNixY2fNmjVjxow77rhj4MCBNBxYxhT75S9/SQgZMmTIbrvttssuu9CPJbCz1PHVr361e/fuhUJB2ltGz77xxhtbb701FjEL3GHEsiifeKvs1wB548S7pZorP75kxxFGankVL7xp8mC9Tc9vSVn5kweREETO0F7NFOvGMpS/icl9HF3Asm1+yH1BXMifLZVyKqmJqr6JfjfTtz1CEXRKwzFR8bIK14TLxy00MZYFs+J7CHWnFSe8q/jSlS5OGJbxrQu9cNI3MTkgZnL17n1EvT99ZUOPsn+6xQn9VuSnRU3bcPmwLu0tlws4xc661RD6jPRNTCpyaB92cwipmF1t4RQ38+eoESYd04c5eMFZoOSQ4iixLCPfxLRfKusvW4q+vGAZZSn+36222urQQw/9xz/+QclA+veTTz4599xz6TvM+FSEkK233vq000575513pCS8V5oek7x8zIq7lbNlra2tdF2Sr95HH300f/781atX84GWZXV0dMyfP//VV1+dM2eO8rPllmW1t7fPnz//o48+Wr9+PXVImSxbtmz+/PnsPRr0rKSb5JVyyKzXuLdS+QtoI5ZJA0p+vUosy29zaqrmibGsdlQKw7LaUSC/LVViWWa/idmfnzDL+CLm4sWLr/OO66+//pZbbhkzZswTTzyxatUqoyFva2u76aabTjrppEMOOWTw4MF1dXV/+9vf+Dfah+UgAYTkDUtVkXAlllWkJsFCJd0kbzB+NkOAZfpxGVim1yfLZ4FlxqsDLDNKlNkIWcYycX5M9GV/tqwiploCCMlbkSqFFQosC1MmrXBgmX7YBZbp9cnyWWCZ8eoAy4wSZTZClrGsUCjwe8v89cyCc2R8tiwt4xorH4nDJG+srEodGVhWaoWBZfphF1im1yfLZ4FlxqsDLDNKlNkIGceyguYAlgXtusRhkjcYv4IhwLJSiw8s0w+7wDK9Plk+CywzXh1gmVGizEbIKJbZK5bCRjJn3kycLwOWBe26xGGSNxi/giHAslKLDyzTD7vAMr0+WT4LLDNeHWCZUaLMRsgmls29ob8IZQW6oClwGbAsaNclDpO8wfgVDAGWlVp8YJl+2AWW6fXJ8llgmfHqAMuMEmU2QjaxTPk1TJnVgGVBuy5xmOQNxq9gCLCs1OIDy/TDLrBMr0+WzwLLjFcHWGaUKLMRsollMoEV7ENmNWBZ0K5LHCZ5g/ErGAIsK7X4wDL9sAss0+uT5bPAMuPVAZYZJcpshGxiGf0JJr9kaf8kU1rXBJYF7brEYZI3GL+CIcCyUosPLNMPu8AyvT5ZPgssM14dYJlRosxGyCqWFQoFe9u/f/CMVnAOYFnQrkscJnmD8SsYAiwrtfjAMv2wCyzT65Pls8Ay49UBlhklymyEDGNZwXAAy4J2XeIwyRuMX8EQYFmpxQeW6YddYJlenyyfBZYZr04VYpn4BcwG7sOvRjXyFQFYFts4Dh48mZAxlCqy9u+ee95LyJimpuW0VRnHMsgYu/PFSVAiLJO+qhs23kWJVs44wW9CK7EsrSoFi1MKlVZxUfIpc5VKWlxiLIsiVFpxSqpAsDtJ1Q7DMilaMB+/2gIGyd/qjpKPn5XqY+es6ChZ2XGE+ojfO3fyj5KPuUpCKXKrWZ3N+XhNjlIrKY4SyzLyqfKC/qjUbNmll84mZMzXvnZ/1phs8ODJRxzxWPfu44YMaers7LQsK8tYBhnjIFaSuCXCMn5gyrVbiWW5blHtVD4xltWORGFYFkOByIASI08PVpIkEeqjwLJoec6qJ6OI9zdo9Dw5lVCKDsvkhMU0TUyrxLKMfKpcT2WFSmHZRx9t7tPnvr597//oo81JrGWJ04wdu4CQMWPHLsg4lkHGEncEC1imHzeBZXp9snwWWGa8OsCyEImAZe0hyrjhhJJXa2srdcT6t1JYZllWS8uqLl3+NmLEc6W2rAny7+zsHDKkqWfP8StWbMrybBlkTHBxYyUBlulHH2CZXp8snwWWGa9OClgmTuEYSyx5BGEeq2SzZRloNWbLYlk6P/KIEc916fK3lpZVflBmXCtWbOrZc/yQIU3Tp68kZMyMGSszUzW5IpBRViQ9P7BMbyeAZXp9snwWWGa8OsCyEIlMs2XAsoJz5G62zLKsXKzBnXba0xnHMsiYHobJOQHLQsZld67ehGXC8O1uRhk+i+bZPNzfnkLIPc3cUN42+na2c4V48Z1U8xoGcqmEU06VFjUN8ra8eDkIOQvNMUYWphZoPkKLFLtquFYIZWUvHFhmvEARsEzoD1IPt/MXuhA3OyX0PTdcuCOEvi2UUt/EraAJ+Yi7uJSnItWHu8UIV2enDwuVlO+1UWRgU5um1ewuEOvm6CYXZKsnRFOpJI4b/AXFbJlszKL7s7+USciYjGNZLpYycyFjsN8Cy/iRLugOxzKRn+Th2xlhwyxER7s49HNcJQzTohHqEEyXx2SegRGMXLsVMbJQw3vqBY70cqZ2iNmb/DiAZcH+LIVosSxCD9cAitCTb28YfY/cY4mLOOK94PY6/3lAyEe8I5SnhC7NSEh779g3r38PKuvjV96MZfqy/ILsayE0IUQlIrbauwGBZUFzFiOErsHdccf8GTNWZu2vsXEJ5Ynp07O7iEm1howx+lzkqMAyyVBJ3jAsM4zd7iO4MED7libATP70gGBU+BFcyMo3EhwOavIPxncjC8V5HMblSRNyOXPTGJ55kBTLjhdYZrwWGiyL1sMjzpaFdq1gz/RCvM4vgIsIKMpTQpeOjmXeNJj8yBSouQHLzPcpj4AilgXKYnei6tEIWBbZyqki0jU4Sj/Z/Hfw4MnLlr2vqnuGwiBjKS4GsExvutRYJtoDgVpcq0DtgTjfwCa0BMthj8UsB2FxkxuLBRtpCo8RWawJq4ZsLbgS9XJl6iywzHg5QrEsag8vHZZ5BCbWxH+AkaeavPhClxaxjN2A7hOFeHsKq5kCXfn3BXsUUZcizYJ7VZLnFEf5+xbE1nlIGuQz1hD/uajCWNZa3KE3ZkazpE8e8Sz9wWPWpspYfZYvzzqTUZ0hY8T+Fj2asf8r93TSHzjbadk4VaUONZYJgzI3+PrDvTuMKjFLwCb6QOxyj2AnOGPAGwlpgA6eCoawoTxwSmiINz/htEKouWCxWG5ZdwDLjLdnKJYJHUPXw6PtLdOBCCMtsct5hYrgwiLbTVOeEmou3SyBHqvMwe7//J3iPzX5eqpLEVL57OXcUOJd791rYgW4JMJQQFTrmJXHsuhmJm5Mo1mKmyHiQ4EcKWDs/8AyQkZdfeVj/ogcsAf+M678OC5ZDmok/AG3fjjbcENP8cM6Z1EEGxB8kvZDbKOVPLJnKihcivkI5pBGyPy/wDKh06quVyiWSbjAVtOCPVzoJ1ynFXLgwjv8/m/fOPxErJDEgyExUOiHylNh9XGbz99i/o1Db2EucyEa94DkgZ2yFGV9mOzmJLxK8o3M1c2tA7AsR3YWVYUCMRQAlulNl3q2zLABhR9eBSNkj63+2H1PM/dQLp4SzZUwoMu2xIdC+kidPLKIZX497RKDVkGvWxbOAsuMVyEUy6L3cKG/cT1f6D9cuJRzubBMmorj7xrm5jp5IiwLk4KSmSCId0MJgYJK3EChvgGBZTHsHKJCgRwpUCIskz7fFmYeokQrZ5zgN+yUWOZUSeAtNrJ7jtt77tSbtlpYvBg+yzcPtkGa13MbD7P4U4Rb9Olo793rZ162XmQ2eyE6bLsi2AZd/EBkF8tcwQWD4VkR79E/rYsSFFzZVZIVlxjLkhUXrHmUfEqqgLFKYVjm1DxaDxf6GwcWQv/hwlVY5gmlgiEhH7EfBk7Z+ajqI9yD4i3D31k8lvXgokWdLVMV7TWNfx7jMEtogqBSEMv8rJzbUIll5fsmpvFN/cVYQaNZKiZzpIUCGVfA2P+xiKlYxPToxDZ7wljMYRBb7uEjDLyn3nstGR3rfUojwvspOAshFSGO3XxNqJsvzrgnTIgszpYJp0RzGCw0kyGJsSxIM9UaEoZlQnvFnuBzDO3hwlmuc4YDhwBJ/GwZN3ns/w5GyEfsh8pTivoItEf4m0KZg92ZhSRRsSw0N2fZUVExidU49QI7JYQBwbndlFhWvm9iAssybtpRvfwqACwTLFAAL5SzZTaKMerykwhDORdBDHefwr0hWBisGdWJhGQ0EnYd5jUMpHkKxSksCh9ZKF0oVLCd3Fud9HJl6iywzHg5QrEseg8XupDXq2Wq4MJVs2VePVVdV2Qdfi+a2EU9YgvWR8xB4JvQU6qa+Hd62JOSkIobAWwsE2vr3WtCBQSVgrNlnkrYW5Zfe4uaQ4EICgDLpMFO8oZimUNXwhAfDk/iiEzZyxuXxVTuVESA+eQcxAjelJs7rMeILNgwVqV2L0MPE8XiJIky6wWWGS+NDssi9nChC3FgEQ4cQv+MOVvmz9Vxi4w00L0Zg/URauL9ksBhLKEmwgZKaQHXvzVcSYOl6DMU4nNbFIS6cerJXOtBJ4eGmC2LYN8QBQrkUAFgmd506bEs3EgII6xMOeLWMck2hOyvFx/EAzbJqQkrNHJkyVoYsnUf0/WKZecssMx4LYxYZu7hQhdiPVC3PCd0eCOWSb/cVHdR+/khFMuUTz6qfPinLKGSfGRa4bBWRyqLgzxgmdJoGs2SMhUCoUB1KGDs/9hbpthbJgzK3pSSP3Zzxok+3QqDL2dCnLMBaAskdx+RpSd4fbnRIhsaIlfVaOYzFQFYZrwcSbGM66JCF+LChT7PhUvLeWYskwjP7/b1o4Xvw4ZjmbTm6OcgQSePZdL2Mj+mAcvkfWl+Qnd84JhMnhITVMIiZnVYWLQCCsRWAFimN13q2TI1TmkgRoIk3fjL755R1U3KyrUxokVh01qmyIJNFV7YYZsTwWSyPHPjAJap+o9w+UKxLHoPF7oQ17FTxDK7MuIEMF1VF4rQzJbRJos50E9rKHNwn4LsVIo5MzOWOcWJOTtwxonDihCiiRGEU17rWMKOdixixrZ2SAAFcqEAsExvujRYpk+Yj7OCTRWf4zkDkI+2BCoMLDNeOD2WGZMjQgUVAJblwsKiklAgtgLAMv3ACizT65Pls8Ay49UBlhklymwEYFlsa2e1NQwa1NAWP12kFCXNPFINajVS1SkPLNMPu8AyvT5ZPgssM14dYJlRosxGAJbFp5BY9jtWZMvSMR/Lijni1z3tFG0Ng4h0JEfWWO0yRjZGkLTQxGenmENKm0kvsEw/7ALL9Ppk+SywzHh1gGVGiTIbAVgW36KW1DZrMtecit+IlFOUv26pl6jJUHMqZR3TzA5Yph92gWV6fbJ8FlhmvDrAMqNEmY2QWSyzp2Hqm+n0kT0dk2AOxmiW4tlAfmLIrU1zvTdT5FTVzc+POKihjVp0+9/6emdiqb7ZPW8n4e29H9NeIfUzcZvuBwy6+ip3FdUP86Qa1NDg1YmvUryWJojNGuI4nDrUj/dn0hy9/FO2arR6fguYVv419y67IqGQjtVXCKVVsv+tauVZ4wMOY/9P9oIM6fNtYUNblGjljBP8QKESy9KqUrA4pVBpFRclnzJXqaTFJcayKEKlFaekCgS7k1TtMCyTogXzSbHaKWaVVrXLXKVkxSmxLAvfxGyup4bb/d/zBmyPJsBoljRpA6dsAnNBh9p7B5wU6GOjgRvcXO8wGAUOSld2Ng6jNNfb/7tZOaX5GCFuXGNNZ5Fdh18lt0yHSljZLs4FWlKSAL5uTChWEm1CsHpKrSzWYA9bgwmVq73K3OxAT3DmqCblmcgBh7H/J8My5Tiex0AlluWxITVY58RYVjtahWFZ7SiQ35YqsSwL38R0bTOlF88+ByyPNsBolrSpxZMMOxgQ8CFCXDqF5gEbjcYiSw7mDWbrsIg7GUcn51hk6mBed3rJQ0BaGf6sUL3SeFhxzOHWyptOVJKQTWBs4sy7yHzD6VkpT0kNv0EhuUnxaW7BPFkIX4EoaUlFlfebL7uM/R9YpnidbOBdDPkd3Ku45sAy48UFlhklymyEzGKZ5ZpsNmdGDaRsenR+o1nSJZbOMZsd5Ccppuv1EEGCAJaPFC5ly+Z4WHjQwbKipyoLB6wyvIPN14U1Vq8VE5blGRSBxfEdNaa833DZZez/wDJCRv3m8kczOzqjYmEKAMvClGHhDMuen/UyC4QjFwp84xu3ETLqrJ/eR2u7yy43ETIqC7Nlso1J4DeapTh5etN2dNeXzYg2OnlzYlxObQ317iKkQxPPOG/TYGAhObg8XBKjEVg0vzjqcgp0z9r8QSvgZsOlEnatcbUrlZMVHXSwJrBTjK6UWjk8LggbTMhIlG+PMjeWVnJUjfK8AqLb2P+BZYSM2m676+6bMP2xR2bhL0cK/PAH/0c/fTP/1desjva7xz9DvetXt+bC7pahkgzLDu5/x6MT0b1zo8Ckh2fRzvzTM+7NGpZxG4xsY9PWMEiw1KIBUvuMZkmdLCyUzsIQYu8gZ2tb3hodVzkvHt1ERmlAYgLGJRRZnEzcbL2YLBe/OG8CUb/l332hmpdPWGtSDmfFMYdXW3vfPlWMO+VRI2ulM7HGItjM5B3q1U+7+jQxN4uqyo3Pk101x8EKkarHcsmH8uEX0tj/axzLtt/+ejr84d/8KjD2r08Dy5SQN/OZF/N7WVFzQkbtvvstn3643Opoz85sWRDLOPsbbor4M0azxEeGGwpUmQLG/l/jWHbP3dO32ir028YwDLlQYNttr2tueh6zZUEy2/zv5SedeHcuLiIqGabAD77/f59+uDwLWMZmMbz5Evo/Nx8V0XwazVLEfBANCuRRAWP/r3Esszra299YePKPXNP1rX1vf2XO3LbF8/GXCwXubZxO5zu33fa6Sy6aSA0bFjF5Ptv87+XPz3rpq1/9ExXn5z+7f+kidO8cKLBw3ryjj/pfetV+8P3/23ln7C3LowVGnaFAQAFgGW+iwtxbPlnxs7PupyPgtw+6Y8O6trCYCM+aAtOffpGS2dZbXwssC7s6a95ass/eDVSfyy6Z2Plpe1hMhGdHgU8+WP7d48bTq9a9+3WZ2fLP9vi4s2axp8uMZilgyBAABapHAWP/x2wZHYV5MiNk1I3XT/nbHU/hLxcKXDJiYvdtXCYjZBRmy5RgwZPZrrvenIsri0r+5bYn6ZsyKJxdctFE5cVNPZC0traGmEH/l48hEczBRrNkzgIxoEBuFTD2f2AZG9EkMqPjIP7NnQLvrV3KrikcvAJr3lry9X3cObPcXVZUmJBRv/7VJP6Cls6tx7LY02OSATWaJSk+vFCgmhQw9n9gGT+0bflkxYXnP9Stmz/1AmOQLwXorzL5awo3r8Dat1sPPWRMvq4paksVOKjfX8r2yKHBskSvxBCNqtEsidHhgwJVpYCx/yfDsigfp0v2JTjehDB3lOKixIlYpV13/fIHG5bp/3bddQ99BHo2SrRyxvlgw7IqLm7XXfdgfUbjiNJV0ooTsculVVyUfKyO9uruA1m7MdO66To+WhHl+kaJY+yWGiyTd5Z5b06NYTiNZilGXogKBfKmgLH/J8Myjc3DKSgABaAAFMi1AhosS8EGGs1SCmUgCyiQVQWM/R9YluvRE5WHAlAACqSugBbL3PeXOW+RTfQDAKNZyqo9Rb2gQAoKGPs/sCz1EQ0ZQgEoAAVyrYAGy9yP5jTXi1/MiWOtjGYpTmaICwVypoCx/wPLcj16ovJQAApAgdQV0GCZ+/ElYFnOWADVzYwCwLLUByxkCAWgABSobgU0WGZ/iLq+2XKxDIuYmTH2qEheFACWVffoidZBASgABVJXQIdllv2KDPZZzCTvMDOapbzYV9QTCiRQwNj/sYipGdGah7PBhzrqmjvsr9bQ8EGjW8S0jfV2rH4Ni8Qv2ywaaY9hwxu5yC0NAwkZOLLNyY0LFxPiLBQoiQJO95O6tuR1Omfb6H5SsKJ7+zVEr66e+1ePZQkskZDEaJaE2PBAgepSwNj/gWVqKqIsFTBKhDhk1lRnnxFIq92igYTUNwmjM7VtQiCNCSzzLbqgmPqKIHJqChSDZXbHDzyQOJcPvTq1C1T520GLZfKby2JPmBnNUnVZYbQGCggKGPs/sEwFAZ7dksjJNjwOllFoE8/6UwsirjlTa+4UmjD9JiZXVaPyozNqVQMK0FledyaYby/t0jyEeZ1ciIxezYtWHW4NliXaTSZYJctolsTo8EGBqlLA2P+BZYph1J0qE2yPGI1ym7BeaRungXX18uokjelmBQMmygjuzIICMbDM6nCfWPjZX/Tq6uvVeiyLPT0mGVWjWZLiwwsFqkkBY/8HlimGVNVkmBSNmiLOONm2bdDoFmc6gcM1mpU4f2ZFyF8qDl4oUDIFYmGZu7GS6/keWaJX18giZlvDoCK5zGiWqskGoy1QQFLA2P+BZSprRw2VvEtMiEl30jDecmySbauccN9oOV5+GcjOBAasigyY0Cty2a5YWEYjcw8erMno1UyK/Dv0s2XSntvYkGY0S5IZgxcKVJMCxv6fDMtS+RoutWdRskorjvEDvaxK3h4aOv4oVjN779TT/n2ltz+MmySz7RbjsJ16bqP48ZpowNJqXZR8oitgpI0MFpfBKpVZ8EQKqLGsd+/e9C5gnZn9Bpn92EUoTuzVfP8RooUgSznjlPmilLm4KEoaq6TBshTso9EsJStj3LiFgwdPzuzfCSc0t7ZuTNa0MqeCkiUV3Nj/k2EZP+ZWrZvOh/EPhh6EOU0ObBpzzzrhvJv+SoC3RuEGrGrF5JsPd7YUUGOZ1dEuPpx4d4JwF3grmJgDztY15a5LoorpsYz/KSb9BFM8K2Y0S/Gy82IPHjyZkDHZxLI997yXkDFHH/14Z2enV9/s/g8lS3ptjP0fWBaBhKjdkmfOuO1lDop5C5qOMaMTbE5CL9wvCFiWyFT4AiJ5mgrEwDJ/dT5YAfTqoCa5DdFgmf0uWX/ZUvRFNGZGsxQxHykaBTIpMCPeGTNWEjKGkDFjxy7ISJU01YCSGnGKP2Xs/8CyyMY+8Bs0tm/MMUi+xWLby1gEaXSGAZMEgbeSChiwzF3EdCePVbvKaOXRqyt5EYudHpOGQQ2Wud/E9IyT++Vyzxvpf6NZipRLIFL2YaJPn/t69hy/YsWmQN2zFQAlS3o9jP0fWCaNRxqvvNWG2SHbYnHmyglX/CqTjdosIQuBAwpUTIFoWMbWNLGIWbErlTJ7acY6DZaJ82OiL6IxM5qliPlI0bIPE42Ni3v2HD9kSFPGlzKhpNS10vUa+z+wTDE2NdX5U1/cEMytWtLx0d1eVm9/o4n/WYC7punE58O9URVYxqmq0B9ny6pAVCxjLy1jW/6Fa4deXdar5g0mpSlUg2WWZX+snB3+emZ002U0S9Gz4mNmHyZmzFg5duyC7C9lQkm+X6XuNvZ/YJlgWugY567XCETlbX8WAimo2SOUuIEsLNwtCwasNLZEcSlRkFmB6FjWbnXQyP5vjX3N0avNUpeWpfxrUXRN9FhWrJ0ymqVkBeQCJjo7O4cMacr4UiaUTNYDI6Yy9n9gmWIsc7GMPRD6DnkWzYvJv0TAzjAk3Mc1P0uVhSt6VFU0CnlCAbUCsbCM9W1/1R69uvpuNy2W2QuX7MBsWSRbTLf8z5ix0rKsFSs2ZXwpMxdYlgsllZ0DWJZ4xPSmx9j4I8yTudnSGYLA58ndF8byG84ciwgDlvhyIGHJFIiJZWyTmde90atLdmkqNrumwTJxN1miL2QazZLSmBkD8wITlmX99rcvEjLm+efXGhtVkQhQsqSyG/s/Zsuqb0hFi9MwzAIAACAASURBVKAAFIACxSigwTL8EjOJyeZnyyzLkrxJcixlmhxhWcaVVF4lYFkxYxPSQgEoAAVqUAENllnN9fwrZCVKU5ohOdBoluQE0fyAiWg6mWNBSbNGRcQw9n/MltXgmIsmQwEoAAU0CmiwjP8ZJtvhQQj3ilmjwTKaJWMOygilhonOzs6lS5e2tLQ899xzbW1tsV5yIU3qSF5lcyoYGFfJzs7OxYsXT58+febMmQsXLuzo6Chd5SXpJG/pyk0xZ2P/T4ZlqXx2jQ4KUbJKK47xS3DpVqnMxUVRqcxVKnNxUAAKQIFUFNBgWQrmyWiWkpURFyYsy/rDH/7QwzmGDh2qKbRQKFxxxRW77bYbz6G9evU688wz58yZo0nITkn0IHlZtIw4oiv52Wef3XzzzbvuuiuvzLbbbnvsscfee++9rDl9+/alOvfo0WP77bffaaedDjzwwPPOO++1115jcSI6JOkkb8RMKhvN2P+TYZnmMQunoAAUgAJQINcK6LBM+CGmbY1j/xjTaJaSWc3oMMHy/+Y3v0l5Yrvtttu0Sf3y/fnz53/5y1+m0Xbeeecjjzzy6KOP/tKXvsRA5KmnnmIZhjkkepC8YakqFR5RyU8//fT444+nOnzxi18cMGDAwIEDd9xxRxrSpUsXVn8mIBONxbn++utZtCgOSTrJGyWHiscx9n9gWa5HT1QeCkABKJC6AhosS7KZTDKERrMkxY/ojQgTLLcFCxYQQnr06LHDDjsQQu6//352ijlWr1690047EUJ23nnnhx566LPPPqOnOjs7p0+ffsQRRxBCHnvsMRY/zCHRg+QNS1Wp8IhKXnvttYSQrbfe+s9//vOnn35Ka7tly5ZZs2Z997vfDWLZn/70p48//viDDz5YsWLFP/7xD6oeIeSBBx6I3lJJOskbPZ8KxjT2f2BZ6iMaMoQCUCAVBehLauSXBarfvlaxd0mk0tKsZaLBMmnLfxLrZjRLSTK1rIgwwTIfOXIkIeSkk04655xzCCEnnngiO8UcJ554IiHkC1/4wqJFi1ggc3R2dt54442PP/44CwlzSPQgecNSVSo8opJ0yvCiiy5S1nPChAksnM6W3X777SzEsqzNmzcPGDCAELLffvvx4Xq3JJ3k1afNyFlj/weWaQbEwAuZ/FeX0VPyW2RLYjDcT6RLs7+C1/lMYeBFa0T4UqdcNyfbsO8bypFh86pJgag9SnNrlOeUhGVlvOmq6XInaYsOy6pmEXOfffYhhNx3331PPfUUIWTbbbd9//33ecu9cOHCrbbaihDy5z//mQ9P4JboQfImyLCkSaJg2YcffkiN0N13322sjBLLLMsaN24czeTDDz80ZkIjSNJJ3oiZVDYasCyh/fDeEyvQj+1xyayMFiKqEVVhmV1jNTvS7xAAy2oRQKP2qIT3TnqSAssqdQk0WFYli5ivv/46IaR79+7vv/9+R0dHr169CCH33HMPb7BHjRpFCPnc5z73wQcf8OEJ3BI9SN4EGZY0SRQs++yzz7p160YIufjii42VCcOyyZMnUxO7evVqYyY0giSd5I2YSWWjAcsSjWue3ZKoxUYZf8IsUc5JnlzFgmK8k90DNaHOwhSg1MD0DKpY5+JbjRxKp0Boj6r4RZSwrOL1qZ0KaLCsShYxr776akLI97//fWqhhw0bxntp4DHHHEMIOfroo4u34hI9SN7i8083hyhYZtmrxoMJIdttt92DDz6of11IGJb96U9/otv7Nm/eHLEJknSSN2ImlY0GLEsykrpTZQLNJMmnJJQTakSpDRPnxly+5HfnAMsycylLR1qxcg7tURUXClhWqUugwbLge8ty+UvMvfbaixDCFuCeeOIJQsg222yzceNGZrPpKueFF17IQhI7JHqQvImzLVHCiFg2e/bsbbbZhk539enT59xzz33ooYfWr18frJUSywqFwle+8hVCyI9//ONgkrAQSTrJG5YqU+HAsiTjGsUy7UySZDAc1rE/3kzDnY7qUR23HsrjUZKK2ZwXakRVWNZOIUxRboQ2Jq1hLCZA5IorwPcoyvH+Z8jdPsD1FlVXVyyUczeCfTcoemCEhxbpLpO8rCYWXZF37rpkBaGrSwposCwFA2c0S8nKiAgTlmW9+uqr9CeEGzZsoGV9+umnX/jCF3hQsyxrl112IYSMHDkyWX34VBI9SF4+Zhbc0ZWcPn06BVwKZ4SQLl26fOc735F+BsFjWUdHx+rVqx955BH6dpIePXosWLAgeqsl6SRv9HwqGNPY/7HlXxqPHC81VDpborQQgwayvuk4Bo5s4wwGPVe02eCNqGDRaZXE2TIaOWBlO9rdj6lr0VOljFAiIlSFAmKPoj12eCPfNL63U9AXO7rt4zqee/tIcbgIUXsRX67lfSKd3UEUy+SbLikC8u2FW49l/IQZ/yGmqJbOaJaiZiTGiw4TV1xxBSHkuOOO4zP4yU9+Qgg5/vjjWeB///d/E0KuuOIKFpLYIdGD5E2cbYkSRlfSsqzOzs6WlpbLLrusf//+Xbt2Zbc9P8tIsYydYo4ddthh2rRpsVohSSd5Y2VVqcjG/g8sUw7B1B54nceb9+Ke7yWD4dkqBkDe7jTOXLl5MoPHzaJ5BYn/s5hcubFmy9xaKfPh5j+UCiCwZhQQsUwxHUs7s3sXBLp6uzdZJUQQIYwrIk63l+4yyevVxH98km8x4caJyoI1c911gmiwzP4hpr9sKfoi2jmjWYqYjxQtOkz06dOHEDJ06NAJ3EFfk7H11lu/9957NOcDDzyQEDJs2DCpoAReiR4kb4IMS5okupJSNTZu3Hj33XdTnP0P47744os0AsWyLl26dOvWrXv37rvsssthhx123XXXMamlfDReSTrJq0mYnVPG/g8sCx2FAxNdhJtbUlkIxmT2eEcjCMZJIqE49omrJGfhRKvj2iQR7fg6c5lgtkxnkwShRJGr8ZTcoyjusEkpl7o8uHfOCl3d6uDWymmv9iL7cjl3k51nnG4v3WWSV1ET6Rar/mtXqm6swTLpl5htDYNiT5gZzVIyCxoRJl5++WVpkJS848ePpxU466yzCCFf//rXk9WHTyXRg+TlY2bBHVHJsKq++eab3bt3J4SMGDGCxuEXMcNSRQyXpJO8ETOpbDRj/0+GZal8do0O2VGySitO0k80UrtF7113SmCnnvZOR2a6FBbCsUPb9NzJt0whNiNm62QjyvKnVeJHGFY9FsdXIKQy6V4UvzitgYypQKgpipJPmatU5uISKRDoUbRv9OhFO4PUt3kvK85/CAk+zHA9UnhKEbsEy4rvqxKHmW+6jsYehIQ+inAlKovji07xwqWYVVrVNlZJg2Xi/Jjoi2jtjGYpYj5StIgwcfnllxNC+vTpMzxw7LvvvoSQY489luZ811130d77yiuvSGXF9Ur0IHnj5lbq+BGV1FTj29/+NiHk9NNPp3GAZbxWxv6fDMuk8as2vMKvGiWDwdsqVw3HPgl2SEtCkTUMGFHP2PimsYOtK8mzGn4p6VQmlJD8grzqISSrCgR7FL/x3znLzRMrujo3N0w7IUdiglO4HSJ0DOkuk7yqmsi1zarmWb9xNFhmWRa/t8xfz+QNj95tNEv65GFno8BEZ2fnnnvuSQi54447gvk89NBDhJBu3brRnxNu2rSJ/g7gmGOOCXsBxIYNG954441gVlKIxGGSV4pccW8UJdeuXbtixYqwqtLt/JdddhmNACzjhTL2f2BZ9IGb5x6zhTBiGQUjwWyJnuBKkG3JgkbUHeL56rFV1NCZA2BZBCyI3jfyHFPRo/y+5HRjftpVBUPukr0dLdjtJZ3jdHvpLpO8qpoAy9IBPj2W8SYmidtolpJkGu3jSy+++CL9teCqVauCpXzwwQfbbbcdIWTcuHH07E033URH5REjRrAPYrKEs2fP3muvvWrzm5ivvPLKjjvueP/992/ZsoUJQh1TpkyhorW0tNAQYBkvkbH/A8sUBrWpjrdDLIJjBtyFS7OFCNoniYTi2CdWh+hYZnV4PztQ4p1UGcl2wltDCiiwzO1mA0c2DPe/bEE7oQqGuNk1Y7+K0+2lu0zyqmoCLCslltkrluJGMnveLP58mdEs8TYsujvKHM+ll15KCDn00EPDsv3hD3/Iv0J2y5Yt9LOY9NONf/nLX2bOnNnS0jJu3LjBgwfTTzPVLJZR9tp7771Hjhw5ZcqU559/vqmp6bzzzqMvM/vhD3/IRAaWMSksyzL2f2AZRzzeiOYQlfRCf2oSWKDZQhixLKHhVxpRu+a0SuI6EY3Mv7zAa6PRfCasnpc/kudGAXWPog8h9sArYj3/cMKBGtvR5T0MyN/DsEtRPu0obkBPOukuk7zAMo10RZ5SzpYpd/dLvwDgrU+o22iWQlNqTxixrLOzc/fddyeE3HrrrWE53XvvvYSQrl27rlu3jsbZvHnzr3/9a7qHnYII+7dr164nnnhie3t7WG4sXFq1lLwsWkYcRiUty1qzZs3xxx/PvxGDyUJ/5cp/5hJYxl9ZY/8HlinGLxfL+F7mupldMVuITGCZYpOZb2659okwB7SqKQXUWOa99kLenqjsP4Tw0dyHAa5/ybeP4qbzUIw/Jd1lkhdYxmuVrluJZUoCU7Iab4MUbqNZUqSJEGSEiQ0bNlznHJovML7//vs0zuLFi/ky29vbb7311h//+MeHHnrod77znVNPPfX2229/++23+Tgat8RhkleTsCKnjEqyWr399tsNDQ1nnHHGkUceefDBBx9zzDEXXXTRP//5TxaBOm6//fbrrrtuzpw5UngCrySd5E2QYfmTGPs/sCxsOKM2gDMtwtvLzBYiI1jmzaIxw6k0q8CysG5QA+EhWEZ3MXKb/akULgyNrvNvjUAcNnfrxxG4LSr1SneZ5AWWla5zKrFMSWBKVjNYOqNZMqQPOR0dJkIyKGGwRA+St4QFJ8oaSiaSLWoiY/8HlpVuaEPOUCC/ClAGCvK6CoaiYlZ+1ai1miuxjP4Ek99KZm8tEzebRbJMRrMUKZdAJMBEQJKEAVAyoXDRkhn7P7Cs1gZctBcKRFCAbhETZohpKmBZBPVyz6khWGZZlr3t3z94RotmkuxYRrMUPSs+JmCCV6MYN5QsRj1jWmP/B5bVwiCLNkKBeArQ7ZXiZn+aA7AsnpKqPXPZzyEcy4w2J0IEo1mKkIciCmBCIUqiICiZSLaoiYz9H1iW/SESNYQC5VWAe+FFgCqAZeW9FpWZeAOWRTWxEeNJm8kkb8RMyhYNWFZSqYFltTCGoo1QAApAgRQVAJalbJclDpO8KRdWdHbAsqIl1GUALEtxqEJWUAAKQIFaUABYpjOrCc5JHCZ5E2RY0iTAspLKWyIsi/LFXOPXcOnoFiWrtOKUuUqlLk56X0AUlUpdpaDFilKrcsaBAlAAChgVAJalbJclDpO8KRdWdHbAsqIl1GVQIiwLWt8qCmGvKfd/byS7VC9qKr8CEpY5m35UL/QPbA8qf1VRYjYVoH2G696Kn15WvOZCJVW/Qqh4DauvAsAynVlNcE7iMMmbIMOSJgGWlVReYFn8ERNYVpldxvGvFOpZhAKh36Z0yUyC/mRXp+hMVDdjNh6KkgmSl1TAspTtssRhkjflworODlhWtIS6DIBlRY+DYe9AL8IipjR9VbTNq3wTir46aEIyBTzckRDHfi9GlrCMvqfDq5L7AfX439ZEN4urQF6xjJAxFCmy9u+ee95LyJimpuXUXGcfy6CkDqyKOwcsizseBeIDy5IZfqTKsALuVJluyTIV6C8yE7p8yT5Ea9+b4S9UC9y5GdY/pQez0jU5l1h26aWzCRnzta/dnzUmGzx48hFHPNa9+7ghQ5o6Ozsty8o4lkHJ4rjLkBpYVvTIJWEZnWbgP8zsjP7UzjlzD44tsSNQm0Q37gQ/YsOfJYkmACSbJ3lZNbxvTtsVESxc5m1D0dcOhjlEAa67KkUWtnO5W8/qmju8OTZ/MxoDO/++8Dp23bXD/Xiei8UPqZjQJ6VbjyZRBkbJDXFiKJBLLPvoo819+tzXt+/9H3202WAYK3F67NgFhIwZO3ZB9rEMSpa0gwDLlFYnTmDADKie13kkUpk02ypxZEbz9EyV9z8XIdIAyhfKPg7NwIti2aCBXu7e/yxCHBEi1QcZ5kcBtweGdQZVH65rVm9Ho6TlYhnX31LCMmmZ1UXDwHORwHPorsUqkEsssyyrpWVVly5/GzHiuZKa1WSZd3Z2DhnS1LPn+BUrNmV8tgxKJrvEEVMBy4q2lAEs6wiGUJvkzgR4Jo2zHOIWGRpBhDAvT7Xl85CKEML9Ei0CltkJmel1pzG4HIoWp9jRHxWolAJuZ3B7ljyJ9fysxx66YG++89j1XDSyfnSLUGGnYzs9mU2kcd2+w50wZj2QZsJ/U5Hr2Z6T9U/1lJ4/LSfUBFiWqgJ5xTLLskaMeK5Ll7+1tKyKaCPLGW3Fik09e44fMqRp+vSVhIyZMWNlOUuPWxaUjKtYxPjAsqLHbg+YuFGPcpVvbMT5M+esYJysjnY/CTU2zPawbJ1M6seNjGq0AjZPojRFNdR2DmhVqwq4TwseDxFCvKmp0Tdfc8UJX5axjPbVYCq7M6tpSeqTwLKih6My9dUcY1kuFuBOO+3p7GMZlIyIWXGjAcuKHgcVWGaJaCUBkOSlFaD2yZ5XCFo1ziyKU2iGIViyeZJXVQ2nLZ7pLVoZQ/WQf34UoJ2cdkR75kyNZWFdNxaWsecQo0P9FKHmv/xInY+7xsayYg69oTKaJX1y49nsL2USMib7WJaLpcy8KMl3WmP/x6fKTQO6CsuEuQGZdVQ85K7mDBrdQuGJIzHBCSwzXY58WLV8tqLlom/avXHg2df86KT/Oe5bX6Tu0Tdf8/ysx9jLKdgbNOw2+s8nalqSHhViyiLfWU5ydUExc0YvMihACs6hNA/0lObf1tZWS3sYzZI2daSTdAHujjvmz5ixMmt/jY1LKExMn57pRUwqNJSM1OHiRDL2f+V9R28rO63xibb6IyixzMcsOvvlL2i665XyIqZvn5wph1D8onZOQDXRw61++nk6V0HyquhQaecMAzT6QO0oQPeT/fcJ59tYtp+HZX+8ZnbLY+o3UyTAshg9XHnrKQPRh1NWIPdYRhfgKP1k89/BgycvW/Z+HGtembhQMnXdS4RlUT5iaPzsGrV2UbJKK06iKqnNQO/eveqdvTgN9lsAhB3TPA95Nece8alZ4lYSvTjOwBrDaMn7qXfquQ2/GYivhgcWTlu26dlmgmmhSiGRo8RJJLjawEQpLkqcMlepzMVFVaBXD/5Bwuse/g7I0TdfI3UnCv3S40TvnXraWyFNi5g9evVmRbgTbOKzhuDjHjycPuz/ZsVuHV1I5eL4OTsdNaoCvbkqFdHDM1hcKlXKPZZZlkV/8Ji1qTJWn+XLc8BklEigZLpkViIsk4bCqvaqsYzt4rctimgkJFvix3RRjCKaDHN0kUhpLMPklabHJG8olnFEGJYzwqtcAXeXmPA4QfsPfcYYffM1o8/uJ/Rt94GBS8K2moVjmZGiDDrL9aQ3ow9qhuQhvIVURgWqAcvSNaXIDQqkpQCwzDgAmSKEYplrcoi8XkmxTJgAsD18NNe6BOLEszcSh0leYJnpyqqn5WoiFSOqQBekDwY2lv36WPFHwSfUB96BN2h4nX62LDA3xlFdJGZizzBcRfFcEUm6oro3sCwtE4x8oICsALCsaCsbjmX0BWYBI+Hy0Og635IE4rC3v/pxBG6LNKRKHCZ5gWVFX/pIVyG/pdAOw/VAn5men/WYvZ9MWFK3z3KPHM5jBo2gmS1jPwtwi/GLiK4bV6g8Mx09E8SMpQCwTDal8EOBtBQAlsUajGJFplZN2m3jLVnyc2NVbt1jiYbIUAAKZF8BYFlaJhj5QAFZAWBZyUZAuryiePpXTVOBzKAAFIACuVEAWCabUvihQFoKAMtKhWV0d4642Z+WBSwrleal31KDmkMBKGB1tAPL0jLByAcKyAoAy0ozyHIvvAiwArCsNJrnZqYBzYcCeVcAWCabUvihQFoKAMvyPj6i/lAACkCBMisALEvLBCMfKCArACwr83CG4qAAFIACeVdAj2Vzb+hPhk0sFAq2gxDS/4a5Be7IwseXZEsIPxTIjALAsryPj6g/FIACUKDMCuixbOIwSmXu/5634B7AsswAACqSRQWAZWUezlAcFIACUCDvCkTCsonD6DzZ3Bv6C/NlwLIssgDqlBkFSoRlqXx2jY5cUbJKK070DxQG3rQpvaa/PUqVohdnHMSjFKePY2wRX4fevXdqGEiI6i24LJq+uFjRomSVVpwyX5QyFxdFJb5Kwpta7eUo/4UvUbKKEocvjvWKoEORlfAyW+6tt1wlI+UT+FFO8ioFslJUOxCnzMWlUiU9lhUKE4c5F8RZyfTorOAd1YllbQ2DBjW0Zca0oyKhCmT+SpUIy4KjYZWFqCDGGYdUb8TIRdvDWhR8Ha7dHPr6Dy2W5aLVqGSoAibooR0m1kdaQ8tSkYo5sqmG5hySlYtUNfGCjLjGWxOfnWKOUGQo44m2Bvb1tArzZJGyxE0eN34ZrwktCliWbOymNklAFu8zgpU0VEUYjGCLPFDzJ0i8TxR4MxPAsiIET9bxypXK+9akdIntTu72h6xgmVTDqr0i2Xr/i2m2jN/rj9myLHJAcz1hMNZcX99cdvbgCiyzPmUujmtoRCewLJmdC0KM/xXLfE6YqVrk2mYeNIVVLVjEaoUAdyJKIHLpTgGWSYLUlFePZe5msonD6JayCu8tU80KNdd7z5Y8kPgxBzW0UeNt/1tf70wr1Te75+0kvGn3Y9qLmH4mLvf4AYOuvspd6PTDnPKdHBq8OvFVimjI40drrifh5XCtJsSN51eZtsuvs6uHp6hDe1wOgm4WLxDlQj9j2y/6qM6OMkJthVhOTZzrFe9KxRetTCmAZckGUxXEeEt7LpZ58w1eZ2XTDFaH/7JZmo93SpOEfgTa/pKml4Tb6MOt5vAIFatpyhZRCFPkSUsEllU3loVfX4HO3R5OGU7sw2IOTiqpDxNhyjmWnqZOqCrOA800bplY91eVRdZjGfsFZiawzLelLorYNl0w8jQGF2xPHzFjTynEBjkHI+g0Ez3LEjKM8wuzLEY+LLLrsPOiFXDLdCjDrRI/jcXnlrbbJVOFEJScKDM5rZDUou3i68zXzT/rycXr5ovCoS3TJ3hWWYqrml1qOleKr38G3MCyZMOlEmKEQG7c98HMXQBysWzQQHbGsRa6JC6WcUmctANHtnmLpywvBUVFsHZC5d34jc7jm+qr6iaLmExVpMqMAvTSk7C+pMYydQf2+48qld1tE5KZqRNSLCvdLZOZi1WB9U09ltk7/odNLLizZRVfxHRMuzs+KvnJtcQUVDxOoazAiEFyMC+d/uGzlYpjEZhDSks8BKTV4M+WARG4RrOK+7N6dgU8TmSn7VvWm01kNQw7y5pDHXw0+5I4avNxmB2jZ9kpVpBbJS9tUFWWhJXoEaY7x8kiCHlmyAMsSza2BiGGhhDiGaFFI+tHtwiZO/zkWCA2o+BFphikS0KxjP+9J8vEt2puHdgqqtpMcv2exexwJ+F4A+kaUS6O3xyTRfRjRiBCRM6gAl5/pr3Fm2TiriaNwHGb1yG5DuN2IW/OzMMyrtu7DxVe/nF6rBWM7BVE9QwU59WQA0H5luEamMGLkp0qGbCMvUjW6T7O7zEL/lHWX2LaHOCZ5aCdVthij1OkyMyWS+ESFgSLYxGYg2VFQyqLZbYCbFrPk4OvIcWyZ7QyBlvNcpAczOsVZf/PApmDnQ2GsFN2xRw4o3FYTMnBvKwgPsTPLUMuYFmykU40Wj7o8Fhj5xyYyiK20aLmgTNOvDFQJ/EXMVmFaR2EEiVaCtotv6aOi7Og6haJdo4V7VrEsLN8c+DOrwLBrshdcdphfCyT+p7baqGrO5wkd3sKT24+cXqsAsvsTu3nHyzOfMvk92KVt+ZGLCtojnJjGUdlDqHZEOHNiXHGuK2h3n3BhWO3n3FeeMFMuOTg8nCZhEZg0fiVQBbZPWvzBK2Ae4ZL5TMKV7X0nW0Ng5gEfOm0JD4ksGgrtDcQXz7LsnIdftv9RjF9HNJi9bIjsOR+bDswhSvFZ5gxN7DMR40445oKYrwnfppP0KRRJNJgmS6JAsso8+mwrLgW+RY3mI/aBldgMSXZ5UOqmAq4a5pOF3b7uYxlTu8VeqPTbfhoQU5iP5QJJoxZw3arw6uk97ChKC5YSfTk4N0dISQMy7zVSzrY+f8KE2ZlxTK6Ocqpib13nyKazQHuwUEAnX2xw+1YFAgYFgQcLA83Wy8Cy8UvzquDvzjIEkureGEgkj43+DVw98zxRfAnPYKV2+W1l6YLPcui8Q5PfDaPSZO7svNnWSq+eu48WbFXipsmZPOFzCGUV2YPsCz+6G/Dh+KxWxjLPAvhvU3ALoUagFAs0ycpE5a51tEFRH/iQVYJxky43DXCo+4iIOV1nrc0dwR/pyg4yXwrxdGWdkvvplMUByxLqd+GYVkhylFmLCuzTa2G4tQwVA0ty0UbgGUycEQbtnhjo8iBYo331O5G0GOZIUkiLHOtFHv4CDi4Gkotot7Q9/gDy6L1E0XfyHNCvpNQtz+lGiQep6V8NAUneViWZBFToSR9tnHn8xTFBSuJnqyQ0YzCeiyTP4JZEA9gWdbhAFhW0SsELEtmOHn7FMxBfVaLZaYk5cYybwMccTbDBYZpGLNExizYVTIa0lTn8xbXUgd03J9n8rxlt0LdJYx7y4QIIdvFuMcJ7kFCIZ1YB2CZQiLuahZzVo9lhbk39BeWLYFlFTXzKDxfCpQIy1L57BodNaJklVac6B+nU1MUG/IWjdzGNiXcbjM6GUYo5fimyK85tSjKJD16ea/XF1cVuUd/Nx/RLEnDrl8WqyfnYC3iornrqsF9gwnMuwAAIABJREFUP7136mnvzeA2gEtlRVQyYjSuSgFA9JqQVpwyV6nMxUVRya5Srx4OCnEd2JvWYr3ajeNzkrvEyXO8m43XT3iqox2GhpBterZ51zHYkWhIoOZ2cWLPbKSVZoHFYFmgOEXHSytORvtA795h18IyfXzJ/SImh9MCpGG2LF+UgNqWWYESYZnmfq6OUwxiQprjmShuYBo0vM5GGduM+VjGJdcnSTRbZjJ1XOkhu+VcmvRx0LWjXLuSv3cqTvX4qsJdcgXYU4R4oe2fozd5gOI+SLAYdc1yCD1l6Dz8byfjtEtxv9jleQhofJJxy9I+ycSpjydLbfRqw2xZQXsAy8ps5lFcvhQAliUbeU1YZo/RHME4lokagFAs0yepEJb5cySuceUaxeyxNGlRW/YpWf/JRSrayf3LzE/lUvgQOIxOrYm0xEGSd0f0axhd5+cpRogpi1gW9zYymk8xs2Uxa1Jzfd6AZe4nMf3rjNmyfIEBaltJBYBlGH+hABQojwIKTqqNuaXyyFvOUvRYRrf8exvMvP8L3oHZskrafJSdeQWAZeUcy1AWFKhlBYBlVXP1o2BZYeIwOklW4U+VZ94Ko4JQQFAAWFY1AyUaAgUyrgCwLOMXKHr19Fjmcpg3TSa/LwOzZYIRhgcKiAoAy6KPRIgJBaBAMQoAy4pRL1Np9VhWYIfzm8z+N8xlAbYDWGbhgALhCgDLMjXYoTJQAApAgewrEBXLCqoDWBZukXEGCljAsuyPgKghFIACUCBTCuixTF61lNisGCz7+ONP1q5dt3r1GvxJCqxdu+7jjz8B1FSBAsCyTA12+aoM1qTydb1QWyiQlgJ6LCvhW/7BZBKN8d61a9dVAZSgCcCyYsYph0v8d/OwF6AXk2eaaYXXSsWrp9w0/2Xu/iuagGVpXiy8KgIK5EcBPZaV8C3/PIXAHVQATFMFCgDLElpWE/HQV3H6r0RPNOAWm4mpkuq2h6byX9dOEwLL1AImutbICgrkSAE9lhX0RzGLmEEQQQivQBVACZoALEs0FHqvF5feUW5/ssb9jGCxROWY9mIzoYAlVdIADe53MPmP2HhfiyLSd3KAZYk6jz/diORQIKcKmLBMeM2/8Ir/In+JySMI3EEFwDRVoECJsCzKR3zz+IFeOoa6H+r2CEw5sO7U0/5YuXG2TC8UxbIevXTfDHarpPyusIhl+rJoPu7aZeiSJf2mZzvNSo9lUYrLcR9QCi4iLxSAAtWqgB7LbCjzWWziMCK+IgOzZUGcSiukCqAETSgRlilJpXoCRdwJtsuFG343l81w3hybH+5OrXnTUfYqIUUxQuquHe7H81wsfrQZF1M9AzWnU2XyYqUbjebGwaiPZdyXrXkSZRG8RhE2m2i5udkt45MEqhStpSIPIRMoAAVKqoAey6RfYqb5lv+08KVa8wHTVIECwLJEg5e70hfGE2os40DEwyyGKZTY+g0ayM5UAssMGOdiJWs1pS6uzm7lDREGjmzjMI6mYUkSXQ6gGxSAAmVVQI9lBZHLRF9xr5OtVpxKq11VACVoArAsGQdw0z8MrYRhkUYQaGPRyPrRLUJxDp0MsgPZRJowU6XMZBAjN6WDX38MgqB+nxmlJT4HcRaK4iZrFKNPFuLK4uXgRWCNYs0kTqttxaQkgj5i6TgFBaBARhRQYlnwB5hsiPKXNLG3LC0CU+YDpqkCBYBlyYe5wJQPv01eQVQUMoKpbIhxZ8saFpnZrigss4dJBklCWbYOJiyjjWJERWfLhDqL823BCFIOdqFikuSXAwwHBaBAuRRQYlkh4lGpvWV/HPvqIac8ldm/Y8589p8vvqmEreiB5YGSceMWDh48ObN/J5zQ3Nq6sTxSlKIUYFkaHOD9etGGnvBfYgaBjD5LxsKyooZdr57ebJbcdhOW0dkvNjcWpC6rwynCm5NTRHCKYGAHLJMvQVHXN8DZyA0KlEaBMCyj65XBabNMzJYdcspTpO/D2cSy3Q97nPR9+LChT69atTo6hAVjloISgnkOHjyZkDHZxLI997yXkDFHH/14Z2dnsOa5CAGWpWcXha1XgdkyD4k8bvOJpHxY5k1N8XXgR23DxJXQQKujXUFdwDJeT7ihQJUqEIZlhShHpWbLKJAFUSYLIY9MXUz6Pkz6Pnzz2LnF1Kc82EGBrDxlxS1lxoyVhIwhZMzYsQvips1IfGBZeljmbpOiU0EyliknoigGxcIymoRt2Qg6wmbCXPNA6TDsF530bMgqp1u0nxZYlmLnQVZQIEcKxMKyrGz5zz6W7XlE0+f3f3TO3OWJyaw8YJF9LOvT576ePcevWLGpPIKkWwqwLMlQ2FTHFvL45A6muK97kLBMsaeKbasqJ5YZ5sPoBJj7cjK+ad7cmHAKWCZJBC8UqBEFgGUpfyudzpbddtdrn9//0cOLWMpMlw/Ccss+ljU2Lu7Zc/yQIU15XMoEliUZRt1dYv68kf+LQrY+KE2PBaaa3P31hIKOesu/cQ++tvJ2nsIuLrrCSKRAaUOSt9jq7Q9zinCXL6WfCwDLtPpLwsILBapHAWBZSbDskamLbx47t5ilzDCQSjc8+1g2Y8bKsWMX5HQpE1iWxLK6WBZcQeTejCqvNp5Q77+TzE04aHid/bPK8Nky/p2rThoBBE01Zywl1lPgLZWdkGvOksuLm8Ay0yVQyVulm40gRU0pEIZlwc3+dPjIypb/Q055KvH6YEkT0tmyR6YuXrVq9eFDn068lJkufoXllgss6+zsHDKkKY9LmcCyxIMpXZdkzMJ+g+lnKPCNTVR0ldNJ4iAOjaDBMrbQ6RYTC8vavfdu+HUUJ8900MBV1Umu2rIGLPOvNWALCtSSAmFYVohyYMt/kPAYlq1evWbO3OWJlzLDQCrd8FxgmWVZK1ZsyuNSZomwrFq/BEfNcJTWRYmDL0JCASgABfKoALCsVIuYlNguvvZfpO/DU6a1BgFOH5IufoXllhcssyzrt799kZAxzz+/NqwtGQwvEZZhFgEKQAEoAAWqVQFgWWmxjJ8803OYdLY8kJEjLKPvy5gxY2V5lEmlFGBZtY6baBcUgAJQoEQKAMuAZZNTQZDUM5E4TPKmXlwpMgSWlWjYQrZQAApAgWpVoEqwrLXtzcaJT4y8dfxvbvrbH+6Y8GDT00uWviHNP5XHK02PSd7odSgFJQTz5GfLCoXCPO94/fXXly5dunr16s8++yyYioasW7duinNs3Bjv+0gLFiyYMmXKk08+GZYzDZc4TPLq02bkLLCsWsdNtAsKQAEoUCIFco9lK1eu/u2f/vfz+3+P9D2S/+u295Ajz7j4ny++Gp2EUokpcZjkjV5EecCCx7KJEyf6PyrzXNtuu23//v1vuOGG9957T6rS1KlTaax//etf0im9d8SIEYSQ//qv/9JHkzhM8urTZuQssKxEwxayhQJQAApUqwK5x7KfXno9pbGvDK6ru/i686659eTzrtllwI9o4Nj7HotOQqnElDhM8kYvojxgocSyAw44YP/9999nn3123HFHD8/IF7/4xebmZr5Wzc3N3ZzjhRde4MON7osvvrhbt2477LCDPqbEYZJXnzYjZ4Fl1TpuVrxdqtdn6F7JUfEKowJQAApEVCDfWPbwlGcofl35x7Fvv72KQc+qVavvenDKnkecDizTA0oQy7p06cInWbVq1a233rrrrrsSQrp16/b3v/+dP1tSt8RhkrekRaeVObAs4jCkjCa/3Iu94j8LbzAS3prGHl6I9H41oQmql5NFargqIbBMKR0CoUAVKJBvLDvjkmtJ3yO/ftxZDMh4x9Jlb74493U+pEj3q/MXzXrhlTfebNfkI02PSV5NQulUWmSgz8eIZTT52rVrBwwYQAjp2bPnihUr9HlalrV58+Zly5YtWbLk008/NUYOiyBxmOQNS5WpcGBZwiHSBD3SNzETllIM3plqGHzZrM1upf0GAGbLoAAUqAYFfCxrTXToraDGLEkUEsvLPlU+5KeXkr5HHj50hD75MWde9vXjzvrrPY/w0e5+eMrXjzvr57+5mQ984ZV5Xz/urG8cN2zZmytWr15z4AnDv37cWU/OeP4vjRP7HnUGnZnbbt/jhl/xx+Ur3uITMrfEYZKXRTM69MKmdTYillmWtXr16i9+8Yv2bEBdHS397bff3s85CoUCq88nn3xyzTXX7LDDDnQCoUePHueee+7JJ5+83377PfjggzTagw8+uN9++7F8WFrJIXGY5JUiZ9Or6f+0wq2trYXAQd/SbKcthhtynNb7rpEEMfZHmdwX8WcFy6Qa8prLX/Z0v4ap/Aq7d6GL/GJmNRgkTwq0BQrUrgIulgVMQ6SAir/lf+iFo0jfI//rwO/rf3dJo/34/Gt4GDrxF1eTvkd+br/vrWh/m4XfMeER0vfIb353GA3Zbt/jqJcC2ef3/3/2zgY+iuL+/5MQwoMQBEWkVAwQUxFFKz6BDyQQFBV8RijF/ixgfKilAlYR0H8RfKBVIwgYW1Ao+FwFqaY+IBGftRTFooiABCUBKiAiII83f3Znd25udu9ytw93s3ufvHzRmdmZ78y8Q2fezO7dXpT3izKWvuz6cbyVmJA8TMqKNROnaVp+kteyQ2dg48aNI4Q0atRo586dlNK1a9cy9+KfBti7d29paSkrbNu2bZcuXVq0aMGyhJDp06ezOU2fPp0QcsYZZySeouRhUjZxW0WuQsuc7LLGQVSiVyGpr2Xs9mWMhEmvVxcdTk8bdzzj3rJk7/c09ircxHTyV8vCHEFAQEECwdayWc/8k0lSt0vLX3nz3XiiM+Xx50hRaWHPQbzC+m++LTjlYtZ27gv/4uVDb7+fFJVed4dxhMa0LLe41//des/Hy/5bV7dx9dp1190xmTV8/uU3eUOekDxMyvJq9SbSIxYpadlHH33EHOutt96y1bLx48cTQpo1a7ZggfFdaAcPHly0aFG7du2gZba/UJyW2ayJTMviH0QZ+sJ9X0swhzOP2dil2AjcY8S3bSb/Fkt5nPUMkp17SWZpW8iPBNhV+YXlRr8WVeXTocKb3UUL5BWE+ZrjMaJpmMQm8hwhMSAAApkgEGwtq62tu2jobUySSFHp0WddccWN4x+a+fTST1eI3vOf5Z+zOstXfMnKn1n4Oikq/WX/4aSodPAtE3nlUy+57pDAzX7+ZVbCtGzqE8/zCnV1G2tr67r0vZYUlQ64+S6xnKUlD5Oy1vrxSmx3cc8LU9KyLVu2sP3uiSeesGrZDz/80Lx5c0LIzJkzpXGeccYZ0DKJCcs607KwvxGyVbn+9yyeMdhrmaAa7G+p/md+xRfi8ZJwxUzmF7SuV0dsgFu0LLaO7lixXmg+bRYdUky/QsDYUGz8hnFyJq2aEkJO7X6WOQ3zf3kFpmX5+eYF9r9n3bVa0DhW1rRV25iR2O1DdkPiQmkkkqmT5hcUprk7EAABTwgEW8vq6jZ+8+2GsX95rG33K7mckaLS3OJefX/7x7feX8qlp0PJYFJUOuuZf7KS3952HykqfeXNdw876cLWZ1y2YUNdXd3GmvXf5nfu0+AXvfktUaZlL/6rmsdhiT/eN4MUlXYoGSyV19VtlDxMylrrxyux3cU9L0xJyw4ePMjW8WnTplm1bMGCBYSQ5s2bWx/zh5bF+8U507J6N9GgVxAOePhJWIwEWG5imudkwh1Aw95MNzJlTjiOkh7/shc7QWuE4NRa2exIgy84lvC7YIMUBiAKUHK3OGOtSxsbLzGgmYO0zNdERAg/I5SaCEONoY1yEACBdBIIvJYxrdmwoW7+q2/ddv+j5wy8udEJ5zNFa37yRe98tIxVGDJqIikqvfHOB1i23dlXsXua/YaPIUWlC159q65u48uL3iFFpSf3G8ZVKZ6WPTL7eVJU2uiE83lNnpA8TMryavUm4m3k3panpGXff/8926NsT8smTpyofdTsrLOsI4SWWZmwEmhZ3MXOcqgjfoxR1rIkNIidHvHDM9YvcxfDbKymJSiZljSNR2trX9lUriTGI0+8Pi1jU+ZGZTOd2E6tFaQI0VmIQimaItIgAAKZIBASLRMt58uv1o6+Z1pucS9SVHpJ+Vh26dG5L5Ci0tMuu76ubuPrSz7gisae8b9hvKZrEx95gpezVvG07KkFr5Gi0pzjetXWasds4n+Sh0lZsWbidLyN3NvylLRs+fLlbJ96++23radlt956KyHkggsusI4QWmZlwkqgZbKd2CyC7KEr9lfPeDpK1jLdabiy8JhiNaum0H3rbUzFZgDJHB2Zg2TqFmtI5ng8Py0zLdAYc8ydU5v5WinZjzOZ+aIOCICAXwRCqGVMdy7TP2jZ/OSLWHb5ii9zjuuV37lPzfpvR98z7dCDZS+9tqSubuOXX61teHzZsecNrKvbePkN40lRqfgJgHhaNvv5l9mnOK1qJXmYlLXWj1cSbyP3tjwlLbv//vsJIU2aNNm9e7dVy9jnNM855xzrCKFlViasBFpmKku9C5xxD46dbIm+lcCuROuy0RQvtYyfnzFxjDEkc44JtaweQ4qZPt233m46MZ3aVICWOXTuev9yogIIeEkgtFp299THSVFp3i/K+IHWL/pcQ4pKF76+5KSLfsufJ6ur21gy+A+HvvzszXc+Kuw5KO8XZV+t+ZqrUjwtu/PBmaSotOvFQ3lNnpA8TMryavUm4m3k3pYnr2U7duxgH6i89tpr2RikL8iorKwkhBx11FGRSEQaJLRMAsKz0DJTWepf1ETHkrSMfRrR8WmZk5uYNhs8OzATtMz8ljVzjmIF63zZVekAzKzGpE0IaGNd+6BlJi6b3w4ugUBgCARby/7y2FPiO5dE17nxzgcOHX11Ko0+lc8e8x96+/05x/UaMir66cv7H51HikpZ+amXXCcGiadl3S4tJ0WlN935oFiZpSUPk7LW+vFK+M7tayJJLdu9e3e/fv3Y+8U3bNjAhiRp2YoVK9h9pjfffFMc84EDB7p06YJPYopMeBpaZiqLsGIuHMwfYxev6iJiPOEua5n9UVPM6ZSdx8RUiPO4GPtLrf8pPltm3fhjxyCO1phFfU+PsSYxT7CZvVgv2U0HWib8LTLRiX+FkAaBQBAItpZ1LP3V6Zdfz25Hin7zavX7zU++iBSV3nb/o7ycfclZfuc+pKh03ouv8vJP/7syt1i7v0mKSm/+fxW8vK5uI9MysTJ/BK3h8X3e+9j4PIHYRPIwKSvWTJzmO7eviXq1bM+ePS+++OKJJ55ICMnJyZk7dy4fj6RllNKzzz6bEHLMMce89tpre/fu3bp163PPPXfaaaexnQ1fJ8vR8QS0zGaVZPoinAzx25Tm95OtN76sK+pJxj0+0WkMlTGfZ2dZUfikCjYjibu1a93FHs6xsy6hUJ6FUUEcgKVHo4744QbzazW0r8MQP68ALbPQg5OBQEgIBF7L2Icuf9HnmuFj/nzXQzPv+HNlv+FjGh6vfRd/5wv+j71DiQnQF6vW5OqfA2h+8kXrv9kgWtFpl13P4jz90utiOdOyvF+UlV0z6vd/evjWe6efO3AEq3m7IHxiE8nDpKxYM3Ga79y+JqxalpOTc/755/fp0+fcc8894YQTGjduzKSqadOm7AOYfDxWLVuxYkWrVq2E4wUtefjhh7du3frQ/c0ZM2awtviWf84QWmazuRpCI/090rJRpzFu6vE6g6vkEnYpqjKGhPEWRiJawWYkCbVMjiS/8tI0RbGe6Yhx+7KfhexkeLYsLsC4v7KQbNiYeDYQCLaWPfbkgrOv/l3OcdqHLsX/co7r1f+6MV+sWiOpz4kX/pYUlV5qeW8Se1as4fFlosbx07LisiFiFw2PLxMP4aQuJA+TslLlBFm+c/uasGqZuImwdPv27UeOHFlbWyuNxKpllNKvvvrqyiuvbNasGSHkiCOO+L//+7+amhp2YDZ79mwWAVrGSULL4i2y7Dal8LfR/IZ6vu/GGAy7GmtCsQ5kHC89MDgaM7ZCvJHEKY/tS/gyMLF+jAtGz/bqUYSYVtIXc5jTN6Zjflmu3iluYtYDVvzVIA0CyhIItpYxrflo2WePzH5+1KRHrrtj8k13PjjxkSfe/vA/tsaz+N2Pn/3n6+w1SmKFlavWPPvP1xe+rn02U/yPP1v25jsfTZjyxOh7pk2unPef5Z+LdaS05GFSVqqcIMt3bl8TopZt3rz5DfNn0aJF77zzzrJly7Zs2RJvALt372bV9+3bZ60jfqlsYWHhoZdgVlVVsWrffvvtG2+88fHHH1tbiSXSSzClrFhT2TTeianOwmfnMdjFQQAEQEA5AmHQsgRy4/IS17Lk40geJmWTj5Me1RC1zKce6+rq8vLycnNzN2/enFIXkodJ2ZRCZaoytAxapg4BjAQEQCAQBKBlMcdjkjZBy1ISmmXLlj3++OOifm3cuLGsrIwQcvHFF6cUilIqeZiUTTVaRupDy9RZBHFaps7vAiMBARBIQABaBi1b4JWyzJ8/n31gs2PHjmefffbJJ5+cl5d36KsxWrduvXbt2lR7kTxMyqYaLSP1fdIyT96GyxaFZEJ5VSfN742WuounZV7NLpk40pDircvJhEqmTpq7U3BIIAACQSQALYOWeaZlH3zwQefOnXNycvhT1U2bNh00aNDXX3/twIokD5OyDgKmv4lPWhZvO0c5CIAACIBA0AlAyxJp2fIVX37635XSt2lINzqlrPQwmZSVKifIpsch/Hi2bMeOHV999dXHH3/85Zdfig/+pzojycOkbKrRMlIfWhb09RHjBwEQAIE0E4CWJdKyBNoU75LkYVI2XitreXo0wg8t82rkkodJWa968TUOtCzNyxm6AwEQAIGgE4CWQcs8u4npreJIHiZlve3Lp2jQMmfro+VLy2y+TzVxZP1JMuE7982v+0rcyqerbDD8zn7s6wGMD+fH1En6G858GjDCggAIZJAAtAxaBi3zycootMzZ0manZbrVJO0rqWoZ6zH6FgHvNC7Gt7iaxUxE/mZarZarr7pV7nuYnP01QCsQyE4C0DJoGbQMWqbWRs4kKeZUyXwjkx/mxN+56UfwquGxh3bWiTh5e6Zav6/s3DsxaxDwiQC0DFoGLYOWqbXN22jZvvXGEVrMOZNnw/bvtMy6cEsneSwbY4RM1PyZqXU8KAEBEFCKQFC1jBQ912PAawr+d8w5L5Gi5+b8YwV7il/9R/4JmcEe/Fftz8LCuYTMWLhwHZMmPFum1MLh62BstYzKshJ77y/2rp+kWbr66G8lNw+rxBef291n1F6yaYigeecx5vTOxV3O2NnpL7Ik0hs/bQs9c1Bff3cIDgIg4JJAILXs+nHvkaLnOpYuVFDLul/1an7n588d+HptbV1d3UbFtWzUqPcImVFc/KRqTlZSsqBnz/mNGj1WVrYwEolYv/TfrwMuT+Pi2TJny1OsuBg6ElMY855y05uILl66MLHK/AiKaVn3s3hNI8Eq2GlZ/3JLZSLEdzYv1op1Z44t5v3iZlhmnNHpmOUwMxAAgfATCKSWrf26trDnwsKe/1z7da31qyUyXjK5chkpem5y5TL1tWzXrv2dOs0rKnpy1679ngqJN8EqK1cQMqOycgW0LKs25hgDEzTLFCPznEy4zWeolXlmZqdlmoqZMmSehJkRpPqUaZ8ZTYe/pOIs05PspVBwPjOszW9NiixljUM4aFn4t16bvxsujmARLUwEAqlldXUbX/zXl7nFzw27/d2MS5h1ALW1decOfL35yS9+vGyd4qdllNIlS2pzcx8dMeIdb0zK0yiRSKSsbGFBwcyamh24iRmmdSfxXJgkCZpjJI3biEmojKRZ7LSs4gths48NItW33DAVGu5bb0ibdXy8JK6WGULJ7dDO/9bTfdCyWODwFRDIJgJB1bK6uo3Dbn83t/i5F//1pVWMMl7y8bJ1zU9+8dyBrz//8kpS9Nw/XlmZ6pA81Zt6go0Y8U5u7qNLltTWUy8Tl2tqdhQUzCwrW7h48QZCZlRXb8jEKBz26dNNTAVfPujtkOy0THj6Sn8+zPqkl6hWLN20VVvmfzZats+4e9i6rVZHbKs3YU93Gd+XlszskqnDjvRiRh5rh2y0bdu2rtBuoZqHc3YbUjLdBfFtgCYB4xfHsrZ/ggAIhJVAgLUsELcyL72+Wn0tC8StzEGDXoeW2e5P4StkkhSjL4KaxLsqlkualUDLVuuRpfoaUiZM/ACMxH7PhTCeJPnbOJkWBM+W4WAMBEAghkCAtSwQtzJJ0XPqa1kgbmUSMgNalqQBBL2aKFg2c0n6tIzfK3SiZVHxMh9l44+mWYxNkDc9abmJGcfJTC3DJzGjtGP2J5vfPmqCQNgJBFvL+K3Me6b95x+vrFTtv4dnfcq07PmXlb6JyW7RsVuZ06b9t7p6g2r/zZ79JdOyxYtxEzP8+1Y9WmZ34096Hks6/XKnZTpw8es5UtSy+E6mRWZXuUFqIiL2FfYdCOIFAiAgEQi8lrFbmcx+1Pyzx4DX3v/3OpWfLWNaxm5lMvtR88+SkgVr1vzg8DmvTDTz6dky6f/D4cvWo2XGE/GECIdSTG74O4tS1TLZhBYO5qEY3vqGFM+VjZO2eDdkteBMwqIHZsZjbTGiBjkDARDIGgKB17K6uo3sA4+qHZXx8Xy0LGUnq6vbmAmLoOwDj6odlfHxrFsXJCejFO/EjCcr9ZTX70D251XRZ+RT1jI5YJF8X1LLCx87SHaH4B8dsMbjo43eJI1Wivlujnpwhc/LMSMQyGYCYdCyVA+iAlE/I1qGTr0lgNMyZ2tr/VqmWVGszcR6TMpaJj/jP7jKOMQyTSk2ftLzSkbLNOsyTvtYb8IpYNIdQd1AAARCQgBa5vE7Mb1yPm/9ANEyQgBaBqsAARAAARBIiQC0DFqWEWPJik6hZSktRqgMAiAAAiAALYOWZYUhZWSS0DKssCAAAiAAAikRgJZByzJiLFnRKbQspcUIlUEABEAABKA7CxqkAAAgAElEQVRl0LKsMKSMTBJahhUWBEAABEAgJQLQMmhZRowlKzr1ScvC+iY4tnIlM7tk6uCNkCAAAiAQRALQMmhZVhhSRibpk5al9A8vVAYBEAABEAgQAWgZtCwjxpIVnULLArQUYqggAAIgoAIBaBm0LCsMKSOThJapsMZhDCAAAiAQIALQMmhZRowlKzqFlgVoKcRQQQAEQEAFAtCy7NCy1RXdu1esduNC7iOIvXsbTYysUhpapsIahzGAAAiAQIAIKKNl703oZr59jpAh8+p8tqX3JnTrNuE9v3txEd9ju2AaFE+GeDlPWLtPcIlSmvhqStF4KJ6wNg9ICbQsQEshhgoCIAACKhBQScu4J80bQnjahdkkej1ldmpZvTaTwIQSXKo3rLVCgmgJLlnjqF0CLVNhjcMYQAAEQCBABJTUsronh+gHZsIJWrcJ722s011qwhDCjtPsrg4Zop+5DZn3Pjt8GzJPP3WLVtXj1BlXCSHdJryvhTUO6mx64W4XU4tbnVbKzvben9BNT8TUs+tda2uMU5+J/bmgN76xuqI7P4PsXrGaG499ebSU1TWb6rc/eVtzZHJtI355ud5leZVxvbwq9iyNxTGjRYMQdpM1WtB93Fjjxmu0TAvGTuYqyo3R6UXmmBT7X2hZgJZCDBUEQAAEVCCgopZpYiOdls0bQoY8yfzJMC3xFC16VfeqeUM03XpvY51x6mZIniZYok4ZXViu6l4l9xLVr43zhgyZJ4jjkCFD9MpPDtECWqJZS4zp6TamDdX+jq0XglFVTohhLTEyFK881p/4CKrKtSimSBnFmioZsavKdQczVE63K60HMyHqoClVUUGUeuEVoonoaI0+dUvjfRs6x+OolICWqbDGYQwgAAIgECACKmmZeTgTdTLdkIzibhPe41LFnCzeVV6NJcRqWizzTItpmfUqby6an2ZXZlu9fJ5mYbqivTehG1NGUxz5PLS+6on/pH6/1ubAzAO7EEVK1LJ45VET0juPnlHpiiW20q5rtsStz5A2XkdK8CzvgpdIvfAKPMFrshJiKiADJF71AJnHIaBlAVoKMVQQAAEQUIGASlomnZBpQqMfevFTLlGYElzl1biWSZF5QDHBJYw35yXRRFTONBmbx07I9NuX2hmacBrHm1ijxZRkQsuqyqMnTExruNyICV5JqhOjLqacSXXEOAlOyzQnY/cuhYO6xG2hZfvWq7BwYAwgAAIgAAJ+EFBby0ydMhxMFBohLV/ll4yE5lLxb0parvLmXK10exsy4X39ObP39c9wagY2pFs37dG0uo3vTdDuZGq3TfVDtdi+EsaP/+GGGPlxmIn6l+E/hvFEy21OuditSe5Gui9p7iSUaMNZXVFufOGGfmGR/gUcvI6U0LqP3k2NRuPVeC/8SIyflunHcqyxEUZoJd9adQjKr2Y+nZbhjZAgAAIgAAJhJaCwltVt1J680n+0R+QtNzHjXuVeJSaMSPpTZ7pvseaxj/zrV3krUcuMm5haFKZiuoGZh3miXWmSaP5Y75OyWZjX4z1YVle30RtTYIdZhHQvL9cen+dCY5ZrAxHLzXuT3StW8ypyW2Nk/Lp+3sUi8/iWhGZU+o8UjUcxyvXgrDDxI//Gd7Dxjrzh5XEUn7TMj3+fISYIgAAIgIAKBJTRshgHsnnWin8iMvAJe+2Tp+yxIMQLxx7nj3cV5e4IQMtUWOMwBhAAARAIEIGMadmmTZsDL1jOVDIJLdu0abM7H6inNT+jij6zX08LXHZCAFoWoKUQQwUBEAABFQhkTMt++mlP9ppZQp/btGnzTz/tcWIBaKMYAWiZCmscxgACIAACASKQMS1TbAPFcEDAewLQsgAthRgqCIAACKhAAFrm/WaMiCDACEDLVFjjMAYQAAEQCBABaBkUAgT8IgAtC9BSiKGCAAiAgAoEoGV+bcmICwLQMhXWOIwBBEAABAJEAFoGeQABvwhAywK0FGKoIAACIKACAWiZX1sy4oIAtEyFNQ5jAAEQAIEAEYCWQR5AwC8C0LIALYUYKgiAAAioQABa5teWjLggAC1TYY3DGEAABEAgQASgZZAHEPCLgE9aFtYX9LJ1M5nZJVOH7lufTLV01knzkNLcXTIk0zykNHcHAiDgCQFomV9bMuKCgE9aFqB/9mGoIAACIAACKRGAlkEeQMAvAtCylBYjVAYBEAABEICW+bUlIy4IQMuwwoIACIAACKREAFoGeQABvwhAy1JajFAZBEAABEAAWubXloy4IAAtwwoLAiAAAiCQEgFoGeQBBPwiAC1LaTFCZRAAARAAAWiZX1sy4oIAtAwrLAiAAAiAQEoEoGWQBxDwiwC0LKXFCJVBAARAAAQCqWWfP/bYgpISZf+r6t//+1Wr/NrqPY372GO0pETd//r3pwEBaf9bgZZhhQUBEAABEEiJQCC1bEFJyQxC1NSyuYWFMwh5qXfvSCRiv1erVFpSQglRVMsKC7Wx9e5NgwDS/pcKLUtpMUJlEAABEACBoGrZgpIS+50w06UbqqtnEDKDkBWVlZkeS/39s6Oy+utlokZ1taZlhNAggLQHBC3DCgsCIAACIJASAWiZ/YbquJRp2bxOnWYWFOyoqXEcJz0N1deyTp1oQQFVHqT9r8snLfPktWtsmUgmlFd10vyCwjR3lwylNA8pzd2BAAiAgCcEoGX2G6rjUqZlK2fPnllQsLCsTPFbmepr2ezZmpaVlQXyVqZPWpbSP7xQGQRAAARAIEAEoGWOBcy+IdOyDdXVKyor1b+Vqb6WVVdrNzEDeisTWhagpRBDBQEQAAEVCEDL7O3KcSnXskgksrCsTPFbmYHQskhEOy0L4q1MaJkKaxzGAAIgAAIBIgAtcyxg9g25llFKd9TUKH4rMxBaRqn2bFkQb2VCywK0FGKoIAACIKACAWiZvV05LhW1jFL60fjxMwjZ9P77jgP62jAoWkYpHT9eu5WpKkj73xK0TIU1DmMAARAAgQARgJbZb6iOSyUtk7KOw/rUMEBaxr4vo7raJxK+hIWWBWgpxFBBAARAQAUC0DKP92PJw6Ssx525Dgctc40wUQBomQprHMYAAiAAAgEiAC1LtK06uCZ5mJR1ENDXJtAyX/FCywK0FGKoIAACIKACAWiZx/uy5GFS1uPOXIeDlrlGmCgAtEyFNQ5jAAEQAIEAEYCWJdpWHVyTPEzKOgjoaxNoma94oWUBWgoxVBAAARBQgQC0zON9WfIwKetxZ67DQctcI0wUAFqmwhqHMYAACIBAgAgEWMv69+/f1+7nhx9+YFvltm3bxo0b16VLlyZNmhQUFJx55plTpkzZu3cv30irq6v79u27YMECXsISCxcu7Nu376JFiyilu3bt4p1cfPHFgwcPvu222z799FOpCc9KHiZleTVFEkzLpk6d2kP/WblypTiwGTNm9OjRoyaJF1J+8cUXHTt2vPrqq8XmLtPSRy+lrMvg6Wnuk5Z58to1tkglE8qrOml+RWOau0uGUpqHlObuQAAEQMATAgHWssaNG+fn53e0/Gzbto1SunLlyp///OeEkG7dut14443XXXddp06dWPa7775ju/KTTz5JCJkyZYq0ST/yyCOEkDlz5lBKf/jhB0JI8+bNTznllJNOOqlNmzaEkAYNGlRWVkqtWFbyMClr2ySDhUzLRo0aRfSfQYMGiYMZM2YMIURyNbECT//3v/896qij+vXrx0vcJyQPk7Lu46chgk9aFqB/9mGoIAACIAACKREItpZ17drVdnPds2fPCSeckJub+9e//pVXOHDgwK233koI4faQvJadf/75PM7ixYsLCgry8/M3bdrEC3lC8jApy6spkhC17PTTT8/NzV2xYgUfW/Jaxpt4mJA8TMp62JF/oaBlKS1GqAwCIAACIBBOLZs1axYhpLy8XNpxI5HIOeecQwj58MMPKaXOtIxSWl5eTgh56aWXpPiUUsnDpKy1fmZLRC175ZVXGjRocNVVV/EhWbXsyy+/HD9+/JAhQ26++eaqqipec8+ePbNmzXrrrbd4yZtvvjl69Ojhw4f/6U9/evXVVw8cOMAvLV++fMyYMb/+9a9vvvnmN954g5dLCcnDpKxUWc0stAwrLAiAAAiAQEoEwqllffv2JYTYPgHGVOzWW291o2U33XQTIeT111+32oDkYVLWWj+zJaKWrV279pprrsnJyeHcJC2bNWtWXl5efn7+CSec0LJlS0LI1VdfzXxr69athJDBgwez6dx4442EkBYtWhx//PGHHXYYIeT2229nl+67777c3Nyjjz76nHPOadu2LSHktttus4UgeZiUtW2iWiG0LKXFCJVBAARAAASCrWXt27d/Ovbn1VdfpZQeddRRzZo1i0Qi1n163bp1hJBevXo51rL9+/d37ty5adOm/Bk1sRfJw6SsWFOFtKRla9asadiw4aWXXsrGJmrZZ5991rBhw1NPPXXjxo2U0n379jE3feCBByilopZ99NFHhJABAwawT1fs3bt33rx5Dz30EKX0lVdeIYRcf/317NKePXuuvPJKQshHH31kpSF5mJS11lewBFqGFRYEQAAEQCAlAsHWMvaguvjnKaecEolEGjRo0KlTJ9t9es+ePYSQk046KSUtO++887799tu1a9e+9dZbAwYMIIT8+c9/to0veZiUtW2SwUJJyyilw4YNy8nJWbp0KaVU1DJ2APa+8KrwvXv3tmnT5thjj5W0bM6cOYSQ6dOnW+fVs2fPY445Zt++ffzSypUrCSFjxozhJTwheZiU5dVUTkDLUlqMUBkEQAAEQCDYWtaxY8fq2J9///vfyWjZiSeemJKWieb3s5/9bO7cufFsQPIwKRuvVabKrVpWU1OTn59/8cUXS1r2y1/+8rDDDpMOIC+++OJDz/DV1dWJp2WffPIJIeRnP/vZY489tm7dOj61ffv25efnn3TSSVOEnwcffJAQ8qtf/YpX4wnJw6Qsr6ZyAlqGFRYEQAAEQCAlAsHWsnifxExwE7OmpoYQUlpaSil96qmnCCEPP/ywtLVPnTqVEPL3v/+df0HGiSee+MQTT8yYMeOwww5r2bLlV199JTXhWcnDpCyvpkjCqmWUUnZ38sMPPxRPy4455pj27dtLwz70RD8h5LPPPhO1jFL6pz/9qWHDhsxl27VrN27cuL17927evJkQcthhh7W3/Fg/nEEplTxMykojUTMLLUtpMUJlEAABEACBcGrZhRdeSAhZvny5dbdmKjZ69GhK6YIFCwghd999t1Tt7rvvPnSj84UXXuBaxr8g4+mnn87JyencuTP/0lqpreRhUlaqnPGsrZbV1tY2adLkggsuELXsuOOOa9asmTTgq6++mhCyevVqScsopbW1tX/729+uvfbaI444ghDyu9/97vvvvz/kcFdccYUUJF5W8jApG6+VUuXQMqywIAACIAACKREIp5axL8gYNmyYtElHIpEePXrwL8hYvnw5IeSaa66RqjHb+OSTT6xaRillX3528cUXHzx4UGoY6C/IWLt2LZ/OLbfcQgg599xz+dfJXnLJJYSQ2tpaXodS+stf/rJx48b79u2zahmvtnXr1hYtWnTo0IFS+rOf/eyYY46x5cbr84TkYVKWV1M5AS1LaTFCZRAAARAAgXBq2U8//XT88cfn5OQ88sgjfNvev3//H/7wB/HrZA8ePFhYWNikSZNly5bxap9++mmjRo3at2/PvvqBfcs/Py2jlB44cKCsrCzeg+rS8ZiU5b0okrA9LaOUbt68mX2xBdeyuXPnEkLYKSMb/OLFi3NyctgLl0Qte+2118RzygMHDhx11FFdunThRjtx4kRx+l9++eUrr7wilrC05GFS1lpfwRJoGVZYEAABEACBlAiEU8sopV988QV7+VLXrl1vvPHG4cOHd+jQgRBy2mmnbdmyhW/h//rXv/Lz8xs3bjxw4MBbb711wIABjRs3btiw4csvv8zqWLWMUrply5bCwsKcnJwnn3ySh2IJycOkrFQ549l4WkYpvf3229nDYezlSwcPHiwtLSWEXHnllVOnTh09enSzZs2OOOKIr7/+WvokZkVFRYMGDS688MJJkyZNnjyZHbk9+uijlNIdO3Z07dqVncPdeeedY8eOveCCC/Ly8iZMmGBFIXmYlLXWV7AEWpbSYoTKIAACIAACAday/v3733jjjQk2423bto0dO7ZLly5NmzYtKCg444wzHnrooT179khN/v3vf19++eVHHXVUXl7ekUceeemll4pfo8VeVT527Fip1bJly/r27Xv55Zdv3bpVvCR5mJQVa6qQZlr20EMPnXbaaRs2bBCHtGXLlrPOOuu0007jn6bcuXPnLbfc0qpVK0JIfn5+//79V61axZr88MMPp5122rhx4yil69evHzlyJNPWnJycLl26PPHEEzzyjh07xo0bV1xc3ED/KS4uHjly5Jo1a3gFnpA8TMryaionfNIyT96Gy9a+ZEJ5VSfNb85Oc3fJUErzkNLcHQiAAAh4QiDAWqbmfix5mJRVbcxMy1Id1Q8//CC+TCle8wP6T7yrkUgk8UNmkodJ2XhhlSr3Scvwr0kQAAEQAIGwEoCWebyPSx4mZT3uzHU4Z1rmutukAkgeJmWTCpHpStCysK6bmBcIgAAI+EQAWubx1i15mJT1uDPX4aBlrhEmCgAt82nZQlgQAAEQCCsBaFmibdXBNcnDpKyDgL42gZb5ihdaFtZ1E/MCARAAAZ8IQMs83pclD5OyHnfmOhy0zDXCRAGgZT4tWwgLAiAAAmElAC1LtK06uCZ5mJR1ENDXJtAyX/FCy8K6bmJeIAACIOATAWiZx/uy5GFS1uPOXIeDlrlGmCgAtMynZQthQQAEQCCsBKBlibZVB9ckD5OyDgL62gRa5iteaFlY103MCwRAAAR8IgAt83hfljxMynrcmetw0DLXCBMFgJb5tGwhLAiAAAiElQC0LNG26uCa5GFS1kFAX5tAy3zFCy0L67qJeYEACICATwSgZR7vy5KHSVmPO3MdDlrmGmGiANAyn5YthAUBEACBsBIIqpbNIGRBSYmC/80tLJxByLqFC9l2rb6WEUKZnKn2Z2EhJYSaICm+5Z+vQZ68do1FSyaUV3XS/IrGNHeXDKU0DynN3YEACICAJwQCqWXvjRo1g5Ani4sV1LL5PXs+1qjRwrKySCRCKVVcy0aN0tSnuFhFM+vZkzZqRMvKqA4SWraeaxkSIAACIAACYSUQSC3bv2vXvE6dniwq2r9rV6J7SBm6tqKycgYhKyor1deyXbtop060qIgqCZJWVmrWqIOElkHLQAAEQAAEwk8gkFpGKa1dsuTR3Nx3RozIkHol6jYSiSwsK5tZULCjpkbx0zJK6ZIlNDeXKglSOycrK6MFBbSmBloW/sUorP/2xbxAAARAIHkCQdUySuk7I0Y8mptbu2RJIkXK0LUdNTUzCwoWlpVtWLx4BiEbqqszNJCkuh0xQjMzJUFqQlZQoMnZ4sXayZnaIGXaeOQ/+ZUINUEABEAABOi+9QHWskDcynx90CD1tSwQtzIHDYKW4cAMBEAABEAg5AQCrGWBuJU5gxD1tSwQtzIJgZaFfDHCP5RBAARAAASCrWX8VuZ/p03bUF2t2n9fzp5taNnixfL9LfXy7FbmtGnajULV/ps9W3MyQrRbmQH6wU1MrLAgAAIgAAIpEQi8lrFbmcx+1PxzQUnJD2vWqC8T7FYmsx81/ywpoUEAGf1VQ8tSWoxQGQRAAARAIPBaRillH3hU7aiMj+eHdeuiG7XaKfaBR9WOyvh4ggPS+DVDy7DCggAIgAAIpEQgDFqmtupgdNlLAFqW0mKEyiAAAiAAAtCy7JUGzNxvAtAyrLAgAAIgAAIpEYCW+b01I372EvBJyzx57RpbJpIJ5VWdNL+iMc3dJUMpzUNKc3cgAAIg4AkBaFn2SgNm7jcBn7QspX94oTIIgAAIgECACEDL/N6aET97CUDLArQUYqggAAIgoAIBaFn2SgNm7jcBaJkKaxzGAAIgAAIBIgAt83trRvzsJQAtC9BSiKGCAAiAgAoEoGXZKw2Yud8EoGUqrHEYAwiAAAgEiAC0zO+tGfGzlwC0LEBLIYYKAiAAAioQgJZlrzRg5n4TgJapsMZhDCAAAiAQIALQMr+3ZsTPXgLQsgAthRgqCIAACKhAAFrmSBpWV3TvXrHaUVM0ollDD1qmwhqHMYAACIBAgAgoo2WrK7oT8ae8KlV/cbPZp9o2QX1+iSdSnYiH9XWqUYGMN6R45UmOJNXmCerzSzyR5BiUrAYtC9BSiKGCAAiAgAoEVNKyqD4ouceKg0ogDQkuiRHSk9YGU17OT/YUGVuCYSS4lB5invYCLVNhjcMYQAAEQCBABNTWsugRmn54Ju7ZLK3/WVFOCCmv4lejrXTRE+sIm25MrWi08nL91E4Pp53eaR3zyNRMmyXRIIRJZbSg+7ixhg5Fy6Kz0MdsxhdG5XGSjbOqXJ+GOXg2C+NoMjqk1fp1o9gyG+mWbXRO3StWh5We61+GT1rmyWvX2CKVTCiv6qT5FY1p7i4ZSmkeUpq7AwEQAAFPCKikZYYRsP8pr6JV5cyKmC6UV9nrkVnHvModxLQQ3SB0+xC2Wa3QKKsqN5VOK9R9ROvZTHDtYK2jChIrKrxb09iE8USlSEuJ46kqN3ROGJqXSXMwxuiMbBywEhONv4nNjGOMTarJroaPnuvfhE9aFqB/9mGoIAACIAACKRFQScvYCQ3fC0UVYB4glcQTJknvxFY8uO583OgMheI1pQTPWk7LmGPJJ0z8qMk6QvFUj0eLjsrrFB85S4h/sq5iwGq6FsNEIhkdnaWmOFPbTnl3Uk3ehQiNk+GhjBM+U6DFaNFRKZeClqW0GKEyCIAACIBAGLUsgd7JG7epF5KvcBuQyiVd4OdDvNya4KEyIhZC76srupdX6B8gFQp1rYx1HS6sYjWZG8uHnZ79rFMohZZhhQUBEAABEEiJgMJaZnsT07ytZhiRqA5GWnMF896bvoOKdfiWurqi3LgJqV9eFOsrvAlLsCMlM5h225GXmwoYNTRe2QgSHY9xhQcXHY4PzNuE2BfzLW3AcYYkMVkdrSYPSqoZVnrytFPOQ8tSWoxQGQRAAARAQGUtEx9BN0RLMxv9x/h8oagdPM0rEf0JMV4es6tqzmGEqlhdz01MYSBSvzyK+HlHVpj4kX/jO8/sxxYzUFcZKT5/lC2KSAdrVOOzMR94i1YznrUzBxNbkzXnfVkSPEzA6Jmzdfy/0DKssCAAAiAAAikRUEbLHG99aAgCqhKAlqW0GKEyCIAACIAAtEzVLR3jCj4BaBlWWBAAARAAgZQIQMuCv/ljBqoSgJaltBihMgiAAAiAALRM1S0d4wo+AWgZVlgQAAEQAIGUCEDLgr/5YwaqEoCWpbQYoTIIgAAIgAC0TNUtHeMKPgFoGVZYEAABEACBlAhAy4K/+WMGqhKAlqW0GKEyCIAACIAAtEzVLR3jCj4Bn7TMk7fhsrUvmVBe1Unzm7PT3F0ylNI8pDR3BwIgAAKeEICWBX/zxwxUJeCTluFfkyAAAiAAAmElAC1TdUvHuIJPAFoW1nUT8wIBEAABnwhAy4K/+WMGqhKAlvm0bCEsCIAACISVALRM1S0d4wo+AWhZWNdNzAsEQAAEfCIALQv+5o8ZqEoAWubTsoWwIAACIBBWAtAyVbd0jCv4BKBlYV03MS8QAAEQ8IkAtCz4mz9moCoBaJlPyxbCggAIgEBYCUDLVN3SMa7gE4CWhXXdxLxAAARAwCcC0LLgb/6YgaoEoGU+LVsICwIgAAJhJQAtU3VLx7iCTwBaFtZ1E/MCARAAAZ8IQMuCv/ljBqoSgJb5tGwhLAiAAAiElQC0TNUtHeMKPgGftMyT166xFS2ZUF7VSfMrGtPcXTKU0jykNHcHAiAAAp4QCKSWPfYYLSlR97/+/emqVcFwCpD09ffkk5aF9d+ImBcIgAAIgEAgtaykhBKiqJYVFmpj692bRiK+7vjeBAdJbzjGiQItwwoLAiAAAiCQEoGgallJSZydMNPF1dWalhFCKyszPZQk+meHjklUzECVYJG0BQQtS2kxQmUQAAEQAAFome1+6ryQyUSnTrSggNbUOI+Tnpbqa1lQSNr+vqBlWGFBAARAAARSIgAts91PnRcyLZs9W9OysjLVb2Wqr2VBIWn7NwZaltJihMogAAIgAALQMtv91Hkh07Lqau0mpvq3MtXXsqCQtP0bAy3DCgsCIAACIJASAWiZ7X7qvJBrWSSinZYpfiszEFoWCJK2f2OgZSktRqgMAiAAAiAALbPdT50Xci2jVHu2TPFbmYHQskCQtP0bAy3DCgsCIAACIJASAWiZ7X7qvFDUMkrp+PHarcz333ce0NeWQdEy9Una/pqgZSktRqgMAiAAAiAALbPdT50XSlomZZ3H9adlgLRMcZK2vx9oGVZYEAABEACBlAhAy2z3U+eFkj1IWedx/WkJLfOHqxEVWpbSYoTKIAACIAAC0DKP92XJw6Ssx525Dgctc40wUQCftMyT166xtS+ZUF7VSfMrGtPcXTKU0jykNHcHAiAAAp4QCI+WzZ8/v2nCnw0bNlBKu3btmqDW73//+8GDByeoIF568sknrXuy5GFS1lo/syXQMl/5+6Rl+NckCIAACIBAWAmER8uef/55kvDn22+/pZQWFxcnqHXDDTdcddVVCSqIl+bMmWPd1CUPk7LW+pktgZb5yh9aFtZ1E/MCARAAAZ8IhE3LcnNza+P8HDhwgGvZHXfcYVtr+/bt27Ztky516dKFEDJy5EipfPfu3dZNXfIwKWutn9kSaJmv/KFlPi1bCAsCIAACYSUQQi1LvNGy07L77rsvcTXx6imnnEIIueuuu8TCeGnJw6RsvFaZKpe0rH///n31n379+g0cOHDMmDFVVVX79+8Xhzd69OhTTz31448/FnoFSNUAACAASURBVAut6erq6k8//dRannyJhE7KJh8ngzWhZWFdNzEvEAABEPCJALSs/l07e7SscePGTZo0OeWUU0488cSjjz6a3bEtLi7+5JNPOKbBgwc3a9bsrbfe4iW2ifz8/L59+9peSrJQ8jApm2SQzFaDlvm0bCEsCIAACISVALSs/o07q7Ssa9eunMiGDRvuuOOOBg0aNG/efPny5bw8mQS0jFIKLQvruol5gQAIgIBPBKBl9TtG1moZQ8M+S3Hqqaey7NKlS+fOnbtjxw6W3bZt2/Tp02+++eYxY8bMmjXru+++27lz59y5c/Py8rp27TpX/1m4cCGr/P3330+ZMmX48OG/+93vnnnmGfa0H7tk/VM6HpOy1voKlkDLfFq2EBYEQAAEwkogbFpGCMm3+znvvPPYts2eLWvQoIFdrfwlS5ZYd/cs1zJKad++fQkhH330EaX0lltuIYSsXr2aUvrFF18cffTROTk5HTp0aNu2LSGkYcOG69atEz+vSgg54YQTKKXLli1r06ZNTk5Ox44d27RpQwg566yzvv/+eytwViJ5mJSN10qpcmhZWNdNzAsEQAAEfCIQQi2TnIBle/TowTbsxF+QUV1dbd3XoWWPPfbYId+99957JS3r379/Xl4e0zVK6eeffz5gwIBIJPLjjz82bNiwrKzsR/1n165de/fu7dChQ6tWrVjlSCQyY8YMQsi1115rBc5KJA+TsvFaKVUOLfNp2UJYEAABEAgrgbBpWW5u7ma7n23btrENm2nZ+PHj7Wpt3rdvn3Vfh5a9+uqrhJDf//73kpYVFxe3adMmEolYoUnPlv3jH/8ghNx///1izd69ezds2HDr1q1iIU9LHiZleTWVE9CysK6bmBcIgAAI+EQghFqWeJ/GF2SIfKQvyGjcuLH4yD+vGU/L2Ffv/upXv3rzzTd37tzJ61NKJS279dZbCSHvvvuuWOfOO+8khLz++utiIU9LHiZleTWVE9Ayn5YthAUBEACBsBKAltW/reO07K9//Ssh5M9//rN0WlZTU9O1a1d2mzgvL69Xr14ffPABAypp2bXXXksIWbNmjYh7+vTphJCnnnpKLORpycOkLK+mcgJaFtZ1E/MCARAAAZ8IQMvq39ahZZdccgkh5LPPPpO0jFIaiUTee++9e+65p7S0NCcnp1mzZps2bbKelt10002EkP/85z8i7vvuu48QMn/+fLGQpyUPk7K8msoJn7TMk7fhsgUlmVBe1Unzm7PT3F0ylNI8pDR3BwIgAAKeEICW1b+tZ7mWvfTSSzk5OfyjrOInMSV2d9xxByHkxRdfpJQ2atSoT58+vMLUqVMJIfPmzeMllFJ2hLZq1SqxkKclD5OyvJrKCZ+0zKd/oiEsCIAACIBAxglAy+rf1rNWyzZt2nT33Xc3bNiwZcuWX331FSMlatmkSZN+/PFHTnDixImEkEWLFlFK27ZtW1hYyL+ZrLa2Nj8/v1u3bj/99BOrv2bNmmbNmp1yyim8uZSQPEzKSpXVzELLMr7AYQAgAAIgECwC0LL6N/Ss0jL28qUuXbq0bds2JyeHENKlS5fPP/+cYxK17Mgjj2zZsuVvfvObO++885prrmnUqNFpp53G3qF53XXXEULOPPPMYcOGDRo0iFL6wAMPsGh33XXXyJEjjzzyyKZNm/Jn0Xh8npA8TMryaionoGXBWg0xWhAAARDIOAFoWf3bevZomfSq8j/+8Y9VVVUHDx4UGVVWVvbt27e2tpZS+tprrw0aNOjYY48tKCjo1KnTyJEjt2/fzirv3LnzlltuKSws7NixY3l5OSt86qmnTj/99CZNmrRo0aJ///7Lli0TI0tpycOkrFRZzSy0LOMLHAYAAiAAAsEiEB4tW7ly5cSJEydNmpR4h54xY8bEiRPfe++9xNXEq3/7298mTpxY78u5WRPJHqSsGFaFtPQFGSoMiY9BQidleTWVE9CyYK2GGC0IgAAIZJxAeLRMke1Zsgcpq8gg+TCgZRyFHwloWcYXOAwABEAABIJFAFrm8XYseZiU9bgz1+GgZa4RJgoALQvWaojRggAIgEDGCUDLEm2rDq5JHiZlHQT0tQm0zFe80LKML3AYAAiAAAgEiwC0zON9WfIwKetxZ67DQctcI0wUAFoWrNUQowUBEACBjBOAliXaVh1ckzxMyjoI6GsTaJmveKFlGV/gMAAQAAEQCBYBaJnH+7LkYVLW485ch4OWuUaYKAC0LFirIUYLAiAAAhknAC1LtK06uCZ5mJR1ENDXJtAyX/H6pGWevHaNLT3JhPKqTppf0Zjm7pKhlOYhpbk7EAABEPCEALTM431Z8jAp63FnrsNBy1wjTBTAJy3L+D/mMAAQAAEQAAGfCEDLEm2rDq5JHiZlHQT0tQm0zFe80DKfli2EBQEQAIGwEoCWebwvSx4mZT3uzHU4aJlrhIkCQMvCum5iXiAAAiDgE4GgahkhlCmFan8WFlJC6MKFxm6tvpaBZCKxcncNWubTsoWwIAACIBBWAoHUslGjNPUpLlbRzHr2pI0a0bIyGoloW7riWgaS7ryrntbQsrCum5gXCIAACPhEIJBatmsX7dSJFhXRXbvq2RczcrmyUrPGykqtc8W1DCR9/RsCLfNp2UJYEAABEAgrgUBqGaV0yRKam0tHjPB1V3UYPBLRTssKCmhNjepaBpIOf8fJNYOWhXXdxLxAAARAwCcCQdUySjUny83V/EzBn5oaTcvKyujixdrJWXW1gmOMDgkkoyw8TUHLfFq2EBYEQAAEwkogwFoWiBtwgwYFQMtA0lMZiwaDloV13cS8QAAEQMAnAgHWskDcgCMkAFoGklGT8jQFLfNp2UJYEAABEAgrgWBrGb+VOW2adqNQtf9mz9acjBDtVqb6P+xWJkh6+JuCloV13cS8QAAEQMAnAoHXMnYDjtmPmn+WlNA1azzc6/0KBZKek/VJyzx57RpbUJIJ5VWdNL+iMc3dJUMpzUNKc3cgAAIg4AmBwGsZpcYHHlU7KuPjWbfO8+3er4Dso6N85KolAkSS/YZ80jKf/omGsCAAAiAAAhknEAYt80tSEBcE3BGAlmV8gcMAQAAEQCBYBKBl7jZetAaB+ASgZcFaDTFaEAABEMg4AWhZ/E0VV0DAHQFoWcYXOAwABEAABIJFAFrmbuNFaxCITwBaFqzVEKMFARAAgYwTgJbF31RxBQTcEYCWZXyBwwBAAARAIFgEoGXuNl60BoH4BKBlwVoNMVoQAAEQyDgBaFn8TRVXQMAdAWhZxhc4DAAEQAAEgkUAWuZu40VrEIhPAFoWrNUQowUBEACBjBOAlsXfVHEFBNwRgJZlfIHDAEAABEAgWASgZe42XrQGgfgEoGXBWg0xWhAAARDIOAFoWfxNFVdAwB0Bn7TMk9eusaUnmVBe1UnzKxrT3F0ylNI8pDR3BwIgAAKeEICWudt4xdarK7p3r1gtliDtgECIMPqkZRn/xxwGAAIgAAIg4BMBZbRsdUV3Yvw4d5vM7uhJ9p5ktSSFRuBGCCmv0pvF6yJeubUvXpMnrHWSLEk1QoL6/BJPJDmGDFWDlvm0bCEsCIAACISVgCJaVlVOuIxVlRtykfpemtndOiO9i53qipYInlg5Md3kayaO4+Bqgq4TXHLQkf9NoGVhXTcxLxAAARDwiYA6WharE9oGXF5uHqBFD4HkA7WqcvOMrbwqenDUfdzY7t0rKrRrejFXPravC8F5q9juaTQW80W9oR5Q649Vtq2zWm9qRjN0M1qze8VqNgYqdMGH50AUzGhGU5Y1C2P6lTqMXtMHqzcxiIk1dZLandm49aNA+PCjdfl8tfjGLzSGuTlUrS1LmyXRIIayRwvY7zfVUfHhpS0BLfNp2UJYEAABEAgrAUW0jBp6ZeqMLgGmrWjXyqu0KuZlY+fW9mmzSN9qzR2dOYRxiReKGz/b6bXIei/iaZ20abNudSUwAlor8zpsyHykvNwcpnYSyMYjjN3F8aCpMtEx613G6yKKwmBq6FZ5VQwxDiqaSFhfAiJNLToYE7XIPDokcy5iCZsX58kvGYlURhVFlL4UtCys6ybmBQIgAAI+EVBFy4ytUttndQfjG7B2Qd/2F0UfPtMPyEy/ETdZ3oonomKh12Pl/Ko1waPpHqZ3pJsbrykGjFvH8AhTJ/ishDEYIhpjlbzzFBLiwLRmgpZZu+CVeYJNRzpTlObIT7zYsJh1SRFMhdar2M2X15cSPMs75SUSXl6BJ3hNViLNQryaAlAvq0LLfFq2EBYEQAAEwkpAMS3T9kRRLNgeaWpZzN5vHq6I2yjfiXmCb+GsGivnV60JXs24cWb2wmvygJo0mAOSwhpzMK3MGKEpK2IoqzmJ00kmHRPNbrRiF7wyT9gKDZ8jTySuL16Njjl2vryOlOBZqS8rXl6BJ6S20LJ968O6TmFeIAACIJAlBNTQstUV3fmxEdtrxR3XuEembfO8lr77s3ObqAjod+L0KmJzoZax1/Or1gQLxst1z9HsSyjReoktkcMybzDuj2ohyo3vzdBbLjKaxxQ6/l4NcWC6gWnzN0codxFFEYVplMXEYdMWSSasb2kb0685X+PbQ3hlc5D8RnQMRl6N/woMqk5HJfw1SVsSp2VZsoximiAAAiDgFQE1tIw92RS9Zci2YiMflTFt3zZ/2EGVUKJv18bRUPSRcH0H5rW0h85Fo+J7P0+YOzY76iGEyE34UY1+JMZGY1PHMCMWjgfTj9eMvmILzX5T/l8+N20osad3Bgzxgsmngn0ygQ1fFJ1o/2x8UZLRjiz1ZXqxU2NXeR1LggeWMPIoRrk+NBejik4tbSlomVfrFOKAAAiAQJYQUETLLBsl37wtV4JRID0FH4xBY5QeE4CWZckyimmCAAiAgFcEoGUe78QsnPRYmS99IKjyBKBlXq1TiAMCIAACWUJAVS1TfsfFAEGgXgLQsixZRjFNEAABEPCKALSs3r0VFUDAIQGftMyTt+GyFSSZUF7VSfObs9PcXTKU0jykNHcHAiAAAp4QgJY53HHRDATqJeCTlnn1bzLEAQEQAAEQUI0AtKzevRUVQMAhAWiZausdxgMCIAACihOAljnccdEMBOolAC1TfPnD8EAABEBANQLQsnr3VlQAAYcEoGWqrXcYDwiAAAgoTgBa5nDHRTMQqJcAtEzx5Q/DAwEQAAHVCEDL6t1bUQEEHBKAlqm23mE8IAACIKA4AWiZwx0XzUCgXgLQMsWXPwwPBEAABFQjAC2rd29FBRBwSABaptp6h/GAAAiAgOIEoGUOd1w0A4F6CUDLFF/+MDwQAAEQUI0AtKzevRUVQMAhAWiZausdxgMCIAACihOAljnccdEMBOolAC1TfPnD8EAABEBANQLQsnr3VlQAAYcEfNIyT167xlaiZEJ5VSfNr2hMc3fJUErzkNLcHQiAAAh4QgBa5nDHRTMQqJeAT1qm2r/tMB4QAAEQAAGvCEDL6t1bUQEEHBKAlnm1TiEOCIAACGQJAWiZwx0XzUCgXgLQsixZRjFNEAABEPCKALSs3r0VFUDAIQFomVfrFOKAAAiAQJYQCKSWPfYYLSlR97/+/emqVQ438jQ3A0lfgUPLsmQZxTRBAARAwCsCgdSykhJKiKJaVlioja13bxqJ+LrjexMcJL3hGCcKtMyrdQpxQAAEQCBLCARVy0pK4uyEmS6urta0jBBaWZnpoSTRPzt0TKJiBqoEi6QtIGhZliyjmCYIgAAIeEUAWma7nzovZDLRqRMtKKA1Nc7jpKel+loWFJK2vy9omVfrFOKAAAiAQJYQgJbZ7qfOC5mWzZ6taVlZmeq3MtXXsqCQtP0bAy3LkmUU0wQBEAABrwhAy2z3U+eFTMuqq7WbmOrfylRfy4JC0vZvDLTMq3UKcUAABEAgSwhAy2z3U+eFXMsiEe20TPFbmYHQskCQtP0bAy3LkmUU0wQBEAABrwhAy2z3U+eFXMso1Z4tU/xWZiC0LBAkbf/G+KRlnrx2ja0gyYTyqk6aX9GY5u6SoZTmIaW5OxAAARDwhAC0zHY/dV4oahmldPx47Vbm++87D+hry6BomfokbX9NPmmZV/8mQxwQAAEQAAHVCEDLbPdT54WSlklZ53H9aRkgLVOcpO3vB1qm2nqH8YAACICA4gSgZbb7qfNCyR6krPO4/rSElvnD1YgKLVN8+cPwQAAEQEA1AtAyj/dlycOkrMeduQ4HLXONMFEAaJlq6x3GAwIgAAKKE4CWJdpWHVyTPEzKOgjoa5MktWz+/PlNhZ8WLVq0b9/+/PPPnzp16q5du/gIS0tLhVo2yT59+vDK9SYkdFK23uYqVICWKb78YXggAAIgoBoBaJnH27dkD1LW485ch0tSy55//nkS56dDhw5ffPEFG0iPHj3i1DKKzzvvvOSHLKGTssnHyWBNaJlq6x3GAwIgAAKKE4CW2ezaCxcufPvtt20uJFEk2YOUTSJAWqukpGW5ubk/6T/ffffdihUrHnzwwRYtWhBCOnXqtHPnTkrpd999V2v389prr+Xl5RFC7r777uSnJ6GTssnHyWBNaJniyx+GBwIgAAKqEQiPllVVVV122WU///nPW7Rocdxxx/3617+uqqqKRCIOduWCgoISp+9Cl+xByjoYjK9NUtUyaTBLlixh52CPP/64dIln9+zZ07VrV0JIjx49Dhw4wMvrTUjopGy9zVWoAC1Tbb3DeEAABEBAcQJh0LIDBw4MGzaMENK8efMBAwaUl5f36dOnYcOGhJApU6Y42J6hZRI0dhMzNzdXKqeUdu7cmRBy3XXXWS+xkpEjRxJCCgoKvv7663h1bMslD5Oytk1UK4SWKb78YXggAAIgoBqBMGjZhAkTCCE9e/bcvHkz35jr6uquuuqqyZMn85LkE9AyiVUCLSspKSGEDBw4UGrCsm+88UZubi4h5O9//7tthQSFkodJ2QQN1bkELVNtvcN4QAAEQEBxAoHXsv/973+NGzdu06bNtm3brPvxhg0bWOE333xz7733Dh069JZbbnn11Velmv/73/8mT548bNiwsWPHLl26VNKySCTy0ksvjRgxYujQoffdd9/GjRul5mJWsgcpK9ZUIe3yJmYkEjnmmGMIIX/84x+t09m6dWu7du0IIYMGDbJerbdEQidl622uQgVomeLLH4YHAiAAAqoRCLyWPfroo4SQsWPHJtiGFy5c2LRp0wYNGhQXFx9++OGEkKuuumr//v2sydKlS4888kh2D5Td+iSE8GfLduzY0atXr5ycnC5dupx++umNGjVq1arVsmXL4nUn2YOUjdcqU+UutWzOnDns2bJ3333XOoUrr7ySEHLsscd+//331qv1lkjopGy9zVWoAC1Tbb3DeEAABEBAcQKB17KhQ4cSQt54441423BtbW3z5s2Li4vZs0379u1jTzvdf//9lNI9e/Z06NChefPmr7zyCqX04MGDb731VuPGjbmWDR06ND8//5///CeL//nnnx9xxBGnnnpqvO4ke5Cy8VplqtyBlkUikZ07d65YsWL8+PHMYi+77DLr+B9//HFCSIMGDZYsWWK9mkyJhE7KJhMh43V80jJP3obLFqZkQnlVJ81vzk5zd8lQSvOQ0twdCIAACHhCIPBa1r9//0PPNq1cuTLeHjxx4kRCCPeqQy+9PnDgQPv27du1a0cpfeqppwgh0iNo/CZmXV1dXl7eH/7wBzH46NGjCSHr168XC3lasgcpy6spkkhJy2y/k6xfv347duyQprN27drmzZvXe4optZKyEjopK1VWM+uTlin+Tz0MDwRAAARAwDGBwGtZv379EmvZRRddRAiRnjy76qqrCCEbNmy44YYbCCH8C1HZ7s61jD3q/utf//pB4eeKK64ghMQ7BJLsQcqqZg+palme/tO8efOOHTsOHDjw5Zdfts7owIED3bt3J4Scfvrp+/bts1ZIskRCJ2WTDJLZatAyxwsTGoIACIBAdhIIvJb99re/JYQsWrQo3gZ8xhln5OfnS1dvvvlmQsinn356+eWXE0Kkh5+4lk2bNo0Q0q5du2LLj+3TVJRSyR6krDSMjGdT0jLbL8iwToF9MLZZs2ZfffWV9WryJRI6KZt8nAzWhJZl56qKWYMACICAYwKB17Lp06cnvllWUlKSk5Oze/ducXu+5pprCCGrVq0aOHAgIeSbb74Rr3ItmzVrFiHkmWeeEa8mTkv2IGUTt03/Vc+17IMPPmBf6D9z5kyX05HQSVmXwdPTHFrmeGFCQxAAARDITgKB17K6urr8/PzWrVtv2bLFutfW1tbedNNNhJBPPvlEvHrGGWc0btx47969Y8aMIYRIX5nBteyjjz46dAN0xIgRYtvEackepGzitum/6q2W/fjjj0VFRYSQK664wv1cJHRS1n38NESAlmXnqopZgwAIgIBjAoHXMkopewb/nHPO2bRpE99rN2zYMHDgwMmTJ7/99tuEkAEDBvAXMb355ps5OTnsG1AXL15MCLn44osPHjxIKT30RVyzZs3Ky8tjn8Q8ePBg586dmzZt+v777/PI+/btmzp16vbt23mJmJDsQcqKNVVIe6tl7FOx7dq127p1q/vZSeikrPv4aYgALXO8MKEhCIAACGQngTBo2d69e9kj/M2aNbvsssuGDh3as2dPditt2rRplNLhw4cfev7snHPOmTBhwvXXX9+kSZOjjz6af5Syd+/ehJCuXbsOHjz4hBNOaNasGdcySunHH398+OGH5+XlXXLJJaNHjx4yZEibNm0IId99953tvi7Zg5S1bZLBQg+1bOXKleyjmj169Lg5zs/vf//75CcroZOyycfJYE1oWXauqpg1CIAACDgmEAYtY6dcL7zwQv/+/du1a3f44YcXFxcPGzaMf1jy4MGDDz30UJcuXRo1atS6detrrrmmpqaG79bbt28fPnx4y5YtmzVrdskll3z++edXXHHFbbfdxiusW7fupptuOv7441u2bNm+ffurrrrqueeeY6drvA5PSPYgZXk1RRIeatl//vMf22/QEAuT/NAAgyOhk7KKAEw8DGiZ44UJDUEABEAgOwmERMsS747pvCrZg5RN50iS6StJLVu5cuXEiRMnTZqUIObGjRsn1veTOIIUXEInZaXKamahZdm5qmLWIAACIOCYALTM4w1dsgcp63FnrsMlqWWu+3ESQEInZZ1ETHsbaJnjhQkNQQAEQCA7CUDLPN6rJXuQsh535joctMw1wkQBoGXZuapi1iAAAiDgmAC0LNG26uCa5GFS1kFAX5tAy3zF65OWefLaNbZkJBPKqzppfkVjmrtLhlKah5Tm7kAABEDAEwLQMo/3ZcnDpKzHnbkOBy1zjTBRAJ+0zPE/wtAQBEAABEBAcQLQskTbqoNrkodJWQcBfW0CLfMVL7RM8eUPwwMBEAAB1QhAyzzelyUPk7Ied+Y6HLTMNcJEAaBlqq13GA8IgAAIKE4AWpZoW3VwTfIwKesgoK9NoGW+4oWWKb78YXggAAIgoBoBaJnH+7LkYVLW485ch4OWuUaYKAC0TLX1DuMBARAAAcUJQMsSbasOrkkeJmUdBPS1CbTMV7zQMsWXPwwPBEAABFQjAC3zeF+WPEzKetyZ63DQMtcIEwWAlqm23mE8IAACIKA4gaBqGSGUKYVqfxYWUkLowoXGbq2+loFkIrFydw1apvjyh+GBAAiAgGoEAqllo0Zp6lNcrKKZ9exJGzWiZWU0EtG2dMW1DCTdeVc9raFlqq13GA8IgAAIKE4gkFq2axft1IkWFdFdu+rZFzNyubJSs8bKSq1zxbUMJH39GwItU3z5w/BAAARAQDUCgdQySumSJTQ3l44Y4euu6jB4JKKdlhUU0Joa1bUMJB3+jpNrBi1Tbb3DeEAABEBAcQJB1TJKNSfLzdX8TMGfmhpNy8rK6OLF2slZdbWCY4wOCSSjLDxN+aRlnrx2jS1MyYTyqk6aX9GY5u6SoZTmIaW5OxAAARDwhECAtSwQN+AGDQqAloGkpzIWDeaTlin+Tz0MDwRAAARAwDGBAGtZIG7AERIALQPJqEl5moKWOV6Y0BAEQAAEspNAsLWM38qcNk27Uajaf7Nna05GiHYrU/0fdisTJD38TUHLsnNVxaxBAARAwDGBwGsZuwHH7EfNP0tK6Jo1Hu71foUCSc/JQsscL0xoCAIgAALZSSDwWkap8YFH1Y7K+HjWrfN8u/crIPvoKB+5aokAkWS/IWhZdq6qmDUIgAAIOCYQBi3zS1IQFwTcEYCWOV6Y0BAEQAAEspMAtMzdxovWIBCfALQsO1dVzBoEQAAEHBOAlsXfVHEFBNwRgJY5XpjQEARAAASykwC0zN3Gi9YgEJ8AtCw7V1XMGgRAAAQcE4CWxd9UcQUE3BGAljlemNAQBEAABLKTALTM3caL1iAQnwC0LDtXVcwaBEAABBwTgJbF31RxBQTcEfBJyzx57RpbMpIJ5VWdNL+iMc3dJUMpzUNKc3cgAAIg4AkBaJm7jRetQSA+AZ+0zPE/wtAQBEAABEBAcQLQsvibKq6AgDsC0DLFlz8MDwRAAARUIwAtc7fxojUIxCcALVNtvcN4QAAEQEBxAtCy+JsqroCAOwLQMsWXPwwPBEAABFQjAC1zt/EGovXqiu7dK1YHYqiU0mCNNiFVaJlq6x3GAwIgAAKKEwiClq2u6E5I1CsSbNsJLiXcPt1eTNBvgktue9Xb63CI8VNeZRszqTHEBBJ524ZMoTCp3oV4CerzSzwhtFMwCS1TfPnD8EAABEBANQIB0bLu5eX8wCfBlpzgUqY2bb+HJMavKhfsVZiwWEcojpuMFyduA08vJBhtgkueDsGrYNAy1dY7jAcEQAAEFCcQFC2rWF1VTthhENubxR3aSEfPe7qPG9tdMzntEKm8yig3jpKEWsaNvWiJfEgUvWIc1lWV84OpmdqdwQotr/fQvWK1NgyjU72U3ZAzFXTCyQAAHMFJREFUGkRP+7za81kckQM1GUXHrU+a14mWJxiOIGVSfT2OMeWYycmndDHtWO/an3a/ET42fvvSLIkGMWQzWqD/fvXfXrQsOlN9hOxX7y3rlKNByxRf/jA8EAABEFCNQHC0jJrSEd3mzeelzI08+liStlvr5qF5lJnQ/tcUFy4BWonhe9Hm3HjMK1Xl5VXaZTNvSklU9ZiW8dMqHpWPLeU9PbkGQnxz0rxvc8RGHevcbboQpMxSX3cgU8EsvfBgAieNG+vdHJzOW/iNCOM3+IslLCYfCL9kJCxjEEcozIQPLc0JaJlq6x3GAwIgAAKKEwiSlsVs23yHjgqW8LQ4vyol9G3bPPASDrrYds0rG7u3tutzZzN65xu7WJmlxRLNPnT5iCnkjb1LiDPSO4wZp3ZVFCNh6rph8tasKR+1Nj5+zWhkxmFjF+fFeonOyY4bry8leJb/HnmJOABpaqwOr2mMNv4Io2NLawpapvjyh+GBAAiAgGoEAqVluiqUV+ifK5S2ZNttm+/0PCG2Yhu0qU9aznpVKzUlQ7oqZllaLOGCE1PogxNY44slTJhYiVhuPxCRhR0NMYKUFo4Rzdix3Hh9KcGznD8r0UZuuGL098Ir8zpmFV0ioWXrVVtfMB4QAAEQAIGUCARMywxJMu4YRm8hGjs4P7aR9m++5euOZd6GY/4guAhvxa6sriiPPn0W22U0oF7Vagk8Kh+SaSse/680Zi265kNsjkbnRp1oue0Y+JDNq5b6MX1Fr8pTlLgtitVoHoQlhMZa0nhEjz2oF6Uf5/drGQMPLv2CzCml+X9xWpbSYoTKIAACIAACgdMy3Tr0MxJtF9d/xI9pahs1ITGPhFsP0oy7cuYD/qyNEct8Xk3bwKMXjEMZ3iUh5foj/8aXgUUNg4eOup8xJDGwh3YgiggPGx2nPgxeJ1puzp03ESarz8FsyCfEhYk3iUaLTla/GMuNw7H+Imx/j+ZoeZR6fr/GCM0BG78qu9M+PvJ0JXzSMk/ehsvWvmRCeVUnzW/OTnN3yVBK85DS3B0IgAAIeEIgCFqWrk1UMxNJMFLq2vSJlBqhcogJ+KRl+NckCIAACIBAWAlAy8RjIjdSpsTxTIgVJ4hTg5aFdd3EvEAABEDAJwLQsiBu9xhzMAhAy3xathAWBEAABMJKAFoWjA0eowwiAWhZWNdNzAsEQAAEfCIALQvido8xB4MAtMynZQthQQAEQCCsBKBlwdjgMcogEoCWhXXdxLxAAARAwCcC0LIgbvcYczAIQMt8WrYQFgRAAATCSgBaFowNHqMMIgFoWVjXTcwLBEAABHwiAC0L4naPMQeDALTMp2ULYUEABEAgrASgZcHY4DHKIBKAloV13cS8QAAEQMAnAtCyIG73GHMwCEDLfFq2EBYEQAAEwkoAWhaMDR6jDCIBn7TMk9eusRUtmVBe1UnzKxrT3F0ylNI8pDR3BwIgAAKeEICWBXG7x5iDQcAnLQvrvxExLxAAARAAAWhZMDZ4jDKIBKBlWGFBAARAAARSIgAtC+J2jzEHgwC0LKXFCJVBAARAAASgZcHY4DHKIBKAlmGFBQEQAAEQSIkAtCyI2z3GHAwC0LKUFiNUBgEQAAEQgJYFY4PHKINIAFqGFRYEQAAEQCAlAtCyIG73GHMwCEDLUlqMUBkEQAAEQABaFowNHqMMIgFoGVZYEAABEACBlAgEUssee4yWlKj7X//+dNWqYFgESPr6e4KWpbQYoTIIgAAIgEAgtaykhBKiqJYVFmpj692bRiK+7vjeBAdJbzjGiQItwwoLAiAAAiCQEoGgallJSZydMNPF1dWalhFCKyszPZQk+meHjklUzECVYJG0BQQtS2kxQmUQAAEQAAFome1+6ryQyUSnTrSggNbUOI+Tnpbqa1lQSNr+vnzSMk9eu8bWvmRCeVUnza9oTHN3yVBK85DS3B0IgAAIeEIAWma7nzovZFo2e7amZWVlqt/KVF/LgkLS9m+MT1qGf02CAAiAAAiElQC0zHY/dV7ItKy6WruJqf6tTPW1LCgkbf/GQMvCum5iXiAAAiDgEwFome1+6ryQa1kkop2WKX4rMxBaFgiStn9joGU+LVsICwIgAAJhJQAts91PnRdyLaNUe7ZM8VuZkpbNnTv33HPPPeKIIw4//PDOnTtfd911b775JmNx11139bX7ueuuuyily5cvZxefffZZkd0HH3zQt29fHoRS+uyzz5aUlLAujj/++KFDh7722mtiE54OFkk+bDEBLQvruol5gQAIgIBPBKBl4jbqQVqUCUrp+PHarcz33/cgsh8hRC274YYbCCGtW7ceNGjQb3/729NPPz0nJycvL4/1269fP0LIscce2zH2Z9iwYZTS6upqov+0b99+7969fKgvvfQSIWTu3LmsZNSoUYSQVq1aXX311UOHDj3zzDNzc3MJIWIT3jZYJPmwxQS0zKdlC2FBAARAIKwEoGXiNupBWpIJKetBB56G4Fr29ttvE0LOPPPMH3/8kffw2Wef9ezZk2WZlm3evJlfFRNMy0455ZRDYjd9+nR+SdSypUuX5uTk/PKXv9y+fTuv8MUXX5SWliajZYqT5DMSE9CysK6bmBcIgAAI+EQAWiZuox6kJXuQsh504GkIrmUTJkwghDz++ONS+Ij5rbjJaFlFRUWnTp3atWv3008/sTiilv3lL385dFQ2derUeF1I5RI6KStVVjMLLfNp2UJYEAABEAgrAWiZxxu6ZA9S1uPOXIfjWnbvvfcSQtiDYrZRk9GyRx55ZM6cOYSQKVOmsCCilj388MOEkFtvvdU2vrVQQidlrfUVLIGWhXXdxLxAAARAwCcC0DKPd3PJHqSsx525Dse17PPPP8/Ly2vSpMnkyZNra2utgZmWTZgw4cHYn2+//ZY/W/bII48cOHDg+OOPb9u27e7duymlopatWbOmUaNG+fn5kyZN+uabb6xdSCUSOikrVVYzCy3zadlCWBAAARAIKwFomccbumQPUtbjzlyH41pGKa2srMzPz2dP7hcXF994440ff/wx74FpGbsq/lldXS1qGaX0mWeeIYQ8+OCDkpZRSufMmdOkSRPWvFOnTuXl5e/H/zSEhE7K8oGpnICWhXXdxLxAAARAwCcC0DKPt3XJHqSsx525DidqGaX0m2++uf/++88///ymTZsyeeL3HJmWffjhh6tjf9ipGHvk/5FHHqGUHjx48KSTTjrqqKN27twpnpaxwdbW1j7wwAN9+/Zt1qwZ6+Kmm26ynYeETsraNlGtEFrm07KFsCAAAiAQVgJh0DJlv21LP0bSviBDP1FSzRm08Uhaxoe4Z8+ep59+umXLloSQDz/8kFKa5LNlLMKLL75ICJk8ebJVy3gXe/fufeGFF1q3bk0IYUdu/BJLSB4mZaXKamahZWFdNzEvEAABEPCJQOC1TPFv21JcJuJpGbOcSZMmEUIeeOCBVLUsEol069btyCOPnDdvnvi9ZVZ5euihhwghd999t/WShE7KWusrWOKTlnnyNly2oCQTyqs6aX5zdpq7S4ZSmoeU5u5AAARAwBMCwdayeN+2dd5557FNOpkznmz+ti2uZRs2bLBqzdSpUwkhDz/8cKpaRil9+eWX2RehcS2z7WLWrFmEkHvvvdfau+RhUtZaX8ESn7TMp3+iISwIgAAIgEDGCQRby+J929bBgwfZJp2MlmXzt21xLfvNb37zu9/9Tvy22K1bt5544okNGjT46quvHGgZpbR79+7s6TH2Lf833HDDddddV1dXx/1p+/btp556ak5OzmeffcYLeULyMCnLq6mcgJZlfIHDAEAABEAgWASCrWX4ti2XUsK17Nprrz10apWfn9+rV6/hw4dffvnlLVq0IIRMmjSJdcEEN/HLl9gj/3xIb7zxhqhlN910EyGkYcOGPXv2HDZs2JVXXtmqVStCyLhx43gTMSF5mJQVayqbhpYFazXEaEEABEAg4wSCrWX4ti2XRsK17KeffnryyScvvfTSwsLCFi1atGnT5vzzz3/55Zd5/GReVb5w4UJenyWuv/56/qryPXv2PPvss1dccUWHDh1atGhx1FFH9e7de/78+VITnpU8TMryaionoGUZX+AwABAAARAIFoFgaxm+bcullHAtcxnHj+aSh0lZP3r0PCa0LFirIUYLAiAAAhknEHgt49+2VVZW5ve3bV1wwQWHHXZYmL5tC1rmuYqJAaFlGV/gMAAQAAEQCBaBMGgZ3wjT821b//jHP4488shwfNuWYy3buHHjBx988Omnn3L4UmL79u3z58+fMmXKo48++sYbb+zatUuqUG9WOh6TsvU2V6ECtCxYqyFGCwIgAAIZJxAqLWM78cSJE/3+tq0HH3wwHN+25VjLrrnmGvb8/pYtWyQBikQikyZN4ieX7HCxefPmI0eOlGomzkoeJmUTt1XkKrQs4wscBgACIAACwSIQbC2z/SosfNtW8lLiTMv27NnTokWL5s2bE0L+9re/Sd2xL/jt2rXr/Pnz6+rqVq1aNWfOnJNPPjk/P1+qmTgreZiUTdxWkavQsmCthhgtCIAACGScQLC1LLPftrV8+XLr9i/Zg5S11s9siTMtW7BgAfua2fz8/D59+ohTeOWVVwgh3bp127lzp1i+f//+8ePHiyX1piV0Urbe5ipUgJZlfIHDAEAABEAgWASCrWXxvm1r4sSJbFf279u2xo4da7vxS/YgZW2bZLDQmZYNHjy4YcOG27Ztu/DCC/Py8v73v//xKfTu3ZsQ8u677/ISxwkJnZR1HDadDaFlwVoNMVoQAAEQyDiBYGsZvm3LpWQ40LLdu3c3b968b9++lNKZM2cSQiorK9kwdu/enZ+ff8wxx7gcFWsueZiU9aQLv4P4pGWevHaNLT3JhPKqTppf0Zjm7pKhlOYhpbk7EAABEPCEQLC1zO9t1UF8yR6krIOAvjZxoGUvvPACIeSvf/0rpXTLli15eXm9evVig1y1ahUh5KKLLvJkzBI6KetJF34H8UnLMv6POQwABEAABEDAJwLQMo+3ZskepKzHnbkO50DLBg4c2KBBA37jsk+fPg0aNNi0adOh92YuXbqUEDJo0CDX49ICSOikrCdd+B0EWubTsoWwIAACIBBWAtAyj7dmyR6krMeduQ6Xqpbt2rWrWbNmZ5999vfmzwMPPEAImT59OqX0yy+/JIT069fP9bi0ABI6KetJF34HgZaFdd3EvEAABEDAJwLQMo+3ZskepKzHnbkOl6qWPffcc+x7yKQ/e/bsSSndtWtXw4YN8WwZ/7VAy3xathAWBEAABMJKAFrG91BvEpKHSVlv+vAuSqpaNmDAgNzc3HvuuWey8HPiiSfm5ubW1dVRSs8991xCyNtvv+1+jBI6Kes+fhoiQMvCum5iXiAAAiDgEwFomce7s2QPUtbjzlyHS0nLdu7c2bRp03POOUfqdsqUKYSQqVOnUkqff/55QsjJJ5+8Y8cOsdr+/fv/9Kc/iSX1piV0Urbe5ipUgJb5tGwhLAiAAAiElQC0zOPtW7IHKetxZ67DpaRlTz/9NCHkoYcekrr99ttvc3JyuK4NHDiQENKlS5fnn3++pqbms88+mzlzJr7lX4LGsqtWrdpu+Vm1ahWlVFO6fevxHwiAAAiAQFYRgJbZbpfOCyUPk7LO4/rTMiUtu+KKK3JyctavX28dy1lnnZWbm8vehbV///7bb7+9cePG4vNnRxxxxB133GFtmKBEQidlEzRU5xJOy7JqMcVkQQAEQMA9AWiZx5u4ZA9S1uPOXIdLScuWLVu2dOlS2z7XrVv3wQcfbNu2jV/dtm3bCy+8MGXKlMrKyurq6r179/JLSSYkdFI2ySCZrQYtc79CIQIIgAAIZBUBaJnHG7dkD1LW485ch0tJy1z3lloACZ2UTS1WhmpDy7JqMcVkQQAEQMA9AWiZxzu2ZA9S1uPOXIeDlrlGmCgAtMz9CoUIIAACIJBVBIKqZYRQphSq/VlYSAmhCxcau7X6WgaSicTK3TWftMyT166xZS6ZUF7VSfMrGtPcXTKU0jykNHcHAiAAAp4QCKSWjRqlqU9xsYpm1rMnbdSIlpXRSETb0hXXMpB05131tPZJy7LqH46YLAiAAAhkFYFAatmuXbRTJ1pURHftqmdfzMjlykrNGisrtc4V1zKQ9PVvCLQsqxZTTBYEQAAE3BMIpJZRSpcsobm5dMQIX3dVh8EjEe20rKCA1tSormUg6fB3nFwzaJn7FQoRQAAEQCCrCARVyyjVnCw3V/MzBX9qajQtKyujixdrJ2fV1QqOMTokkIyy8DQFLcuqxRSTBQEQAAH3BAKsZYG4ATdoUAC0DCQ9lbFoMGiZ+xUKEUAABEAgqwgEWMsCcQOOkABoGUhGTcrTFLQsqxZTTBYEQAAE3BMItpbxW5nTpmk3ClX7b/ZszckI0W5lqv/DbmWCpIe/KWiZ+xUKEUAABEAgqwgEXsvYDThmP2r+WVJC16zxcK/3KxRIek4WWpZViykmCwIgAALuCQReyyg1PvCo2lEZH8+6dZ5v934FZB8d5SNXLREgkuw3BC1zv0IhAgiAAAhkFYEwaJlfkoK4IOCOALQsqxZTTBYEQAAE3BOAlrnbeNEaBOITgJa5X6EQAQRAAASyigC0LP6miisg4I6AT1rmyWvX2DKXTCiv6qT5FY1p7i4ZSmkeUpq7AwEQAAFPCEDL3G28aA0C8Qn4pGVZ9Q9HTBYEQAAEsooAtCz+poorIOCOALQsqxZTTBYEQAAE3BOAlrnbeNEaBOITgJa5X6EQAQRAAASyigC0LP6miisg4I4AtCyrFlNMFgRAAATcE4CWudt40RoE4hOAlrlfoRABBEAABLKKALQs/qaKKyDgjgC0LKsWU0wWBEAABNwTgJa523jRGgTiE4CWuV+hEAEEQAAEsooAtCz+poorIOCOALQsqxZTTBYEQAAE3BOAlrnbeNEaBOITgJa5X6EQAQRAAASyikBGtWx1RXcS/SmvEva3qvI4F4Q6zpKrK7p3r1hNKbUmpID1VpDqi1neViz0Pa0DZbPjfYEkR5H2BLQsqxZTTBYEQAAE3BPItJZxh9CNgpmZkNQ20qryGGHzbG9N3pySr+nZ4BwF0sZZXm5YpxYBJB1x9KwRtMz9CoUIIAACIJBVBJTRsujxVT0SpKuGfpTGD72MgzU9r7euMM/aBM8zmxjhhTDjxmomoxVw/6sqJ+VV1poVi4RKVeWESyV3oNhetAjl5fqRoB5Ou8r78GzzNwOx8QrDMiZgXpf/V0BgHh+CpAzJVR5allWLKSYLAiAAAu4JqKRl1JShBOoiyJN+iqY3YVsnkxDdNQz1YYYiNeGuYklEY7GUpYLWD6/EE7x3c9jawKKD0dVNu5NoJmJcztWuH9vYHC73MmHisTX1nHAVJG34eFHkk5Z58jZctnYkE8qrOml+c3aau0uGUpqHlObuQAAEQMATAkpqWSJxYY9KmUdOuoQZRzzsKMqUE21XNdKWJiw+r8kTpmlVles1eDlPaEGNSmZdvnvb9cIbWhO8nVcJ3oU2wtjx23dhGbDAUTvUiwbMMpL2uJyU+qRl7v81hgggAAIgAAJqElBJywwPMK0i0T5oKoWoDqy+WCKmNVnRbyHyQmtC87jyKmpYmWl1XEqMAelCZrGy6EWhF2sXvCTR7JxckwRV9zKQdELSwzbQMjVXPYwKBEAABJQloI6WadrEDsF0wzDPw6RH/ldXlOvPQZmuFG1l7Kai97C01GSR8ElM1qHQRPOycnZWZvZgPDkfHQ97kJ6duEW3cNteeGRrItrSk5RwS5Kd6JnnZSZUrZeYD09IA14Nkp78ImKCQMuUXfgwMBAAARBQk0CmtSx64yzGc2LOfgQj0u8hGm2MBmJV9uQ+j2TIEDsn01ppV7ghmbG6s0f+2X4q6o21ZowRxmzAZrDYXngEa8K8Gao3ZDOMdwIndWSX5fGNi9FzMhGP+fAbqxSLxfzcZhSuGNNIxzYRKrALYSBpR9dxGbRMzVUPowIBEAABZQlkVMscb3eZbRh1nsyOI/i9h50ktEzZhQ8DAwEQAAE1CUDLUpYbF4daKfcV7gahJwktU3PVw6hAAARAQFkC0LJwmw9ml0kC0DJlFz4MDARAAATUJAAty+S2jb7DTQBapuaqh1GBAAiAgLIEoGXhFgPMLpMEoGXKLnwYGAiAAAioSQBalsltG32HmwC0TM1VD6MCARAAAWUJQMvCLQaYXSYJQMuUXfgwMBAAARBQkwC0LJPbNvoONwGftMyT166x9SiZUF7VSfMrGtPcXTKU0jykNHcHAiAAAp4QgJaFWwwwu0wS8EnL1PwXHkYFAiAAAiDgngC0LJPbNvoONwFomfsVChFAAARAIKsIQMvCLQaYXSYJQMuyajHFZEEABEDAPQFoWSa3bfQdbgLQMvcrFCKAAAiAQFYRgJaFWwwwu0wSgJZl1WKKyYIACICAewLQskxu2+g73ASgZe5XKEQAARAAgawiAC0LtxhgdpkkAC3LqsUUkwUBEAAB9wSgZZncttF3uAlAy9yvUIgAAiAAAllFAFoWbjHA7DJJAFqWVYspJgsCIAAC7glAyzK5baPvcBOAlrlfoRABBEAABLKKALQs3GKA2WWSALQsqxZTTBYEQAAE3BOAlmVy20bf4Sbgk5Z58to1tnYkE8qrOml+RWOau0uGUpqHlObuQAAEQMATAtCycIsBZpdJAj5pmft/jSECCIAACICAmgSgZZncttF3uAlAy9Rc9TAqEAABEFCWALQs3GKA2WWSALRM2YUPAwMBEAABNQlAyzK5baPvcBOAlqm56mFUIAACIKAsAWhZuMUAs8skAWiZsgsfBgYCIAACahKAlmVy20bf4SYALVNz1cOoQAAEQEBZAtCycIsBZpdJAtAyZRc+DAwEQAAE1CQALcvkto2+w00AWqbmqodRgQAIgICyBKBl4RYDzC6TBKBlyi58GBgIgAAIqEkAWpbJbRt9h5sAtEzNVQ+jAgEQAAFlCUDLwi0GmF0mCUDLlF34MDAQAAEQUJMAtCyT2zb6DjcBaJmaq97/b++OjRgIYSAA9t+1AzfADDynOTZ/LGkDcY7QFQECBMYKiGXdwcB0SYGPYtmR13D/K2nlp059c/nl7MvlVpQut3S5HAECBI4IiGXJa1vtboGPYtnYP3kaI0CAAIFNAbGsOxiYLikglm2uJ8cJECDwmoBYlry21e4WEMte26fmJUCAwKaAWNYdDEyXFBDLNteT4wQIEHhNQCxLXttqdwuIZa/tU/MSIEBgU0As6w4GpksKiGWb68lxAgQIvCYgliWvbbW7BcSy1/apeQkQILApIJZ1BwPTJQXEss315DgBAgReExDLkte22t0CYtlr+9S8BAgQ2BQQy7qDgemSAmLZ5npynAABAq8JiGXJa1vtbgGx7LV9al4CBAhsCohl3cHAdEmBj2LZkWfX/otj5adOfXP5icbL5VaULrd0uRwBAgSOCIhlyWtb7W6Bj2LZ5l8xxwkQIEBgrIBY1h0MTJcUEMvGLj6NESBAYKaAWJa8ttXuFhDLZm49XREgQGCsgFjWHQxMlxQQy8YuPo0RIEBgpoBYlry21e4WEMtmbj1dESBAYKyAWNYdDEyXFBDLxi4+jREgQGCmgFiWvLbV7hYQy2ZuPV0RIEBgrIBY1h0MTJcUEMvGLj6NESBAYKaAWJa8ttXuFhDLZm49XREgQGCsgFjWHQxMlxQQy8YuPo0RIEBgpoBYlry21e4WEMtmbj1dESBAYKyAWNYdDEyXFPgolh15du2/klZ+6tQ3l59ovFxuRelyS5fLESBA4IjAD7qfzqXm7qndAAAAAElFTkSuQmCC;" vertex="1" parent="WIyWlLk6GJQsqaUBKTNV-1">
          <mxGeometry x="85" y="160" width="658" height="675.7" as="geometry" />
        </mxCell>
        <mxCell id="cTkpzX_AqZkBJyhIl-F0-1" value="" style="rounded=0;whiteSpace=wrap;html=1;fillColor=none;strokeWidth=4;strokeColor=#FF0000;" vertex="1" parent="WIyWlLk6GJQsqaUBKTNV-1">
          <mxGeometry x="390" y="380" width="80" height="20" as="geometry" />
        </mxCell>
        <mxCell id="cTkpzX_AqZkBJyhIl-F0-3" style="edgeStyle=orthogonalEdgeStyle;rounded=0;orthogonalLoop=1;jettySize=auto;html=1;exitX=0;exitY=0.5;exitDx=0;exitDy=0;entryX=1;entryY=0.5;entryDx=0;entryDy=0;strokeWidth=3;fillColor=#f8cecc;strokeColor=#FF0000;" edge="1" parent="WIyWlLk6GJQsqaUBKTNV-1" source="cTkpzX_AqZkBJyhIl-F0-2" target="cTkpzX_AqZkBJyhIl-F0-1">
          <mxGeometry relative="1" as="geometry" />
        </mxCell>
        <mxCell id="cTkpzX_AqZkBJyhIl-F0-2" value="" style="rounded=0;whiteSpace=wrap;html=1;fillColor=none;strokeWidth=4;strokeColor=#FF0000;" vertex="1" parent="WIyWlLk6GJQsqaUBKTNV-1">
          <mxGeometry x="580" y="360" width="60" height="20" as="geometry" />
        </mxCell>
        <mxCell id="cTkpzX_AqZkBJyhIl-F0-8" value="&lt;b&gt;&lt;font style=&quot;font-size: 14px;&quot;&gt;For each step in Parameter Sweep SW1&lt;/font&gt;&lt;/b&gt;" style="rounded=0;whiteSpace=wrap;html=1;verticalAlign=top;fillColor=#d5e8d4;strokeColor=#82b366;" vertex="1" parent="WIyWlLk6GJQsqaUBKTNV-1">
          <mxGeometry x="350" y="560" width="368.75" height="240" as="geometry" />
        </mxCell>
        <mxCell id="cTkpzX_AqZkBJyhIl-F0-15" style="edgeStyle=orthogonalEdgeStyle;rounded=0;orthogonalLoop=1;jettySize=auto;html=1;exitX=0.5;exitY=1;exitDx=0;exitDy=0;entryX=0.5;entryY=0;entryDx=0;entryDy=0;fillColor=#60a917;strokeColor=#2D7600;strokeWidth=4;" edge="1" parent="WIyWlLk6GJQsqaUBKTNV-1" source="cTkpzX_AqZkBJyhIl-F0-9" target="cTkpzX_AqZkBJyhIl-F0-12">
          <mxGeometry relative="1" as="geometry" />
        </mxCell>
        <mxCell id="cTkpzX_AqZkBJyhIl-F0-9" value="Run a new instance of Transient Simulation TR1" style="rounded=0;whiteSpace=wrap;html=1;fillColor=#dae8fc;strokeColor=#6c8ebf;fontStyle=1" vertex="1" parent="WIyWlLk6GJQsqaUBKTNV-1">
          <mxGeometry x="397.5" y="670" width="302.5" height="40" as="geometry" />
        </mxCell>
        <mxCell id="cTkpzX_AqZkBJyhIl-F0-14" style="edgeStyle=orthogonalEdgeStyle;rounded=0;orthogonalLoop=1;jettySize=auto;html=1;exitX=0.5;exitY=1;exitDx=0;exitDy=0;entryX=0.5;entryY=0;entryDx=0;entryDy=0;fillColor=#60a917;strokeColor=#2D7600;strokeWidth=4;" edge="1" parent="WIyWlLk6GJQsqaUBKTNV-1" source="cTkpzX_AqZkBJyhIl-F0-11" target="cTkpzX_AqZkBJyhIl-F0-9">
          <mxGeometry relative="1" as="geometry" />
        </mxCell>
        <mxCell id="cTkpzX_AqZkBJyhIl-F0-11" value="Increment Resistance of R1 up by 20" style="rounded=0;whiteSpace=wrap;html=1;fillColor=#60a917;strokeColor=#2D7600;fontColor=#ffffff;fontStyle=1" vertex="1" parent="WIyWlLk6GJQsqaUBKTNV-1">
          <mxGeometry x="397.5" y="600" width="302.5" height="35" as="geometry" />
        </mxCell>
        <mxCell id="cTkpzX_AqZkBJyhIl-F0-16" style="edgeStyle=orthogonalEdgeStyle;rounded=0;orthogonalLoop=1;jettySize=auto;html=1;exitX=0;exitY=0.5;exitDx=0;exitDy=0;entryX=0;entryY=0.5;entryDx=0;entryDy=0;fillColor=#60a917;strokeColor=#2D7600;strokeWidth=4;" edge="1" parent="WIyWlLk6GJQsqaUBKTNV-1" source="cTkpzX_AqZkBJyhIl-F0-12" target="cTkpzX_AqZkBJyhIl-F0-11">
          <mxGeometry relative="1" as="geometry">
            <Array as="points">
              <mxPoint x="360" y="760" />
              <mxPoint x="360" y="618" />
            </Array>
          </mxGeometry>
        </mxCell>
        <mxCell id="cTkpzX_AqZkBJyhIl-F0-12" value="Log results to simulation dataset" style="rounded=0;whiteSpace=wrap;html=1;fillColor=#60a917;strokeColor=#2D7600;fontColor=#ffffff;fontStyle=1" vertex="1" parent="WIyWlLk6GJQsqaUBKTNV-1">
          <mxGeometry x="397.5" y="740" width="302.5" height="40" as="geometry" />
        </mxCell>
        <mxCell id="cTkpzX_AqZkBJyhIl-F0-17" value="Logic depicted in green" style="shape=callout;whiteSpace=wrap;html=1;perimeter=calloutPerimeter;direction=north;size=30;position=0.2;fillColor=#60a917;strokeColor=#2D7600;fontSize=14;fontColor=#ffffff;" vertex="1" parent="WIyWlLk6GJQsqaUBKTNV-1">
          <mxGeometry x="200" y="300" width="197.5" height="50" as="geometry" />
        </mxCell>
        <mxCell id="cTkpzX_AqZkBJyhIl-F0-18" value="Logic depicted in blue" style="shape=callout;whiteSpace=wrap;html=1;perimeter=calloutPerimeter;direction=south;size=30;position=0.2;fillColor=#dae8fc;strokeColor=#6c8ebf;fontSize=14;fontStyle=1" vertex="1" parent="WIyWlLk6GJQsqaUBKTNV-1">
          <mxGeometry x="710" y="300" width="180" height="50" as="geometry" />
        </mxCell>
      </root>
    </mxGraphModel>
  </diagram>
</mxfile>
